  0
SECTION
  2
HEADER
  9
$ACADVER
  1
AC1009
  9
$INSBASE
 10
0.0
 20
0.0
 30
0.0
  9
$EXTMIN
 10
43.9278773254834434
 20
8.7652526155344663
 30
0.0
  9
$EXTMAX
 10
7241.8986259702869575
 20
1892.5713742720220125
 30
0.0
  9
$LIMMIN
 10
0.0
 20
0.0
  9
$LIMMAX
 10
420.0
 20
297.0
  9
$ORTHOMODE
 70
     0
  9
$REGENMODE
 70
     1
  9
$FILLMODE
 70
     1
  9
$QTEXTMODE
 70
     0
  9
$MIRRTEXT
 70
     0
  9
$DRAGMODE
 70
     2
  9
$LTSCALE
 40
1.0
  9
$OSMODE
 70
    37
  9
$ATTMODE
 70
     1
  9
$TEXTSIZE
 40
2.5
  9
$TRACEWID
 40
1.0
  9
$TEXTSTYLE
  7
STANDARD
  9
$CLAYER
  8
0
  9
$CELTYPE
  6
BYLAYER
  9
$CECOLOR
 62
   256
  9
$DIMSCALE
 40
1.0
  9
$DIMASZ
 40
2.5
  9
$DIMEXO
 40
0.625
  9
$DIMDLI
 40
3.75
  9
$DIMRND
 40
0.0
  9
$DIMDLE
 40
0.0
  9
$DIMEXE
 40
1.25
  9
$DIMTP
 40
0.0
  9
$DIMTM
 40
0.0
  9
$DIMTXT
 40
2.5
  9
$DIMCEN
 40
2.5
  9
$DIMTSZ
 40
0.0
  9
$DIMTOL
 70
     0
  9
$DIMLIM
 70
     0
  9
$DIMTIH
 70
     0
  9
$DIMTOH
 70
     0
  9
$DIMSE1
 70
     0
  9
$DIMSE2
 70
     0
  9
$DIMTAD
 70
     1
  9
$DIMZIN
 70
     8
  9
$DIMBLK
  1

  9
$DIMASO
 70
     1
  9
$DIMSHO
 70
     1
  9
$DIMPOST
  1

  9
$DIMAPOST
  1

  9
$DIMALT
 70
     0
  9
$DIMALTD
 70
     3
  9
$DIMALTF
 40
0.03937007874016
  9
$DIMLFAC
 40
1.0
  9
$DIMTOFL
 70
     1
  9
$DIMTVP
 40
0.0
  9
$DIMTIX
 70
     0
  9
$DIMSOXD
 70
     0
  9
$DIMSAH
 70
     0
  9
$DIMBLK1
  1

  9
$DIMBLK2
  1

  9
$DIMSTYLE
  2
ISO-25
  9
$DIMCLRD
 70
     0
  9
$DIMCLRE
 70
     0
  9
$DIMCLRT
 70
     0
  9
$DIMTFAC
 40
1.0
  9
$DIMGAP
 40
0.625
  9
$LUNITS
 70
     2
  9
$LUPREC
 70
     4
  9
$SKETCHINC
 40
1.0
  9
$FILLETRAD
 40
0.0
  9
$AUNITS
 70
     0
  9
$AUPREC
 70
     0
  9
$MENU
  1
.
  9
$ELEVATION
 40
0.0
  9
$PELEVATION
 40
0.0
  9
$THICKNESS
 40
0.0
  9
$LIMCHECK
 70
     0
  9
$BLIPMODE
 70
     0
  9
$CHAMFERA
 40
0.0
  9
$CHAMFERB
 40
0.0
  9
$SKPOLY
 70
     0
  9
$TDCREATE
 40
2459073.6031249999068677
  9
$TDUPDATE
 40
2459083.4339699079282582
  9
$TDINDWG
 40
0.0589467593
  9
$TDUSRTIMER
 40
0.0589236111
  9
$USRTIMER
 70
     1
  9
$ANGBASE
 50
0.0
  9
$ANGDIR
 70
     0
  9
$PDMODE
 70
     0
  9
$PDSIZE
 40
0.0
  9
$PLINEWID
 40
0.0
  9
$COORDS
 70
     1
  9
$SPLFRAME
 70
     0
  9
$SPLINETYPE
 70
     6
  9
$SPLINESEGS
 70
     8
  9
$ATTDIA
 70
     1
  9
$ATTREQ
 70
     1
  9
$HANDLING
 70
     1
  9
$HANDSEED
  5
652
  9
$SURFTAB1
 70
     6
  9
$SURFTAB2
 70
     6
  9
$SURFTYPE
 70
     6
  9
$SURFU
 70
     6
  9
$SURFV
 70
     6
  9
$UCSNAME
  2

  9
$UCSORG
 10
0.0
 20
0.0
 30
0.0
  9
$UCSXDIR
 10
1.0
 20
0.0
 30
0.0
  9
$UCSYDIR
 10
0.0
 20
1.0
 30
0.0
  9
$PUCSNAME
  2

  9
$PUCSORG
 10
0.0
 20
0.0
 30
0.0
  9
$PUCSXDIR
 10
1.0
 20
0.0
 30
0.0
  9
$PUCSYDIR
 10
0.0
 20
1.0
 30
0.0
  9
$USERI1
 70
     0
  9
$USERI2
 70
     0
  9
$USERI3
 70
     0
  9
$USERI4
 70
     0
  9
$USERI5
 70
     0
  9
$USERR1
 40
0.0
  9
$USERR2
 40
0.0
  9
$USERR3
 40
0.0
  9
$USERR4
 40
0.0
  9
$USERR5
 40
0.0
  9
$WORLDVIEW
 70
     1
  9
$SHADEDGE
 70
     3
  9
$SHADEDIF
 70
    70
  9
$TILEMODE
 70
     1
  9
$MAXACTVP
 70
    64
  9
$PLIMCHECK
 70
     0
  9
$PEXTMIN
 10
25.6999999999999886
 20
19.5
 30
0.0
  9
$PEXTMAX
 10
231.3000000000000114
 20
175.5
 30
0.0
  9
$PLIMMIN
 10
-20.0
 20
-7.5
  9
$PLIMMAX
 10
277.0
 20
202.5
  9
$UNITMODE
 70
     0
  9
$VISRETAIN
 70
     1
  9
$PLINEGEN
 70
     0
  9
$PSLTSCALE
 70
     1
  0
ENDSEC
  0
SECTION
  2
TABLES
  0
TABLE
  2
VPORT
 70
     1
  0
VPORT
  2
*ACTIVE
 70
     0
 10
0.0
 20
0.0
 11
1.0
 21
1.0
 12
3124.9571982127531555
 22
329.3542484352365136
 13
0.0
 23
0.0
 14
10.0
 24
10.0
 15
10.0
 25
10.0
 16
-0.0000000000012506
 26
0.0
 36
5666.0878699665354361
 17
790.3638553619382492
 27
698.676083564757846
 37
0.0
 40
5362.8753099022906099
 41
2.0749185667752439
 42
50.0
 43
0.0
 44
0.0
 50
0.0
 51
0.0
 71
     0
 72
  1000
 73
     1
 74
     3
 75
     0
 76
     0
 77
     0
 78
     0
  0
ENDTAB
  0
TABLE
  2
LTYPE
 70
     1
  0
LTYPE
  2
CONTINUOUS
 70
     0
  3
Solid line
 72
    65
 73
     0
 40
0.0
  0
ENDTAB
  0
TABLE
  2
LAYER
 70
     1
  0
LAYER
  2
0
 70
     0
 62
     7
  6
CONTINUOUS
  0
ENDTAB
  0
TABLE
  2
STYLE
 70
     2
  0
STYLE
  2
STANDARD
 70
     0
 40
0.0
 41
1.0
 50
0.0
 71
     0
 42
2.5
  3
txt
  4

  0
STYLE
  2
ANNOTATIVE
 70
     0
 40
0.0
 41
1.0
 50
0.0
 71
     0
 42
2.5
  3
txt
  4

  0
ENDTAB
  0
TABLE
  2
VIEW
 70
     0
  0
ENDTAB
  0
TABLE
  2
UCS
 70
     0
  0
ENDTAB
  0
TABLE
  2
APPID
 70
     9
  0
APPID
  2
ACAD
 70
     0
  0
APPID
  2
ACADANNOTATIVE
 70
     0
  0
APPID
  2
ACAD_PSEXT
 70
     0
  0
APPID
  2
ACADANNOPO
 70
     0
  0
APPID
  2
ACAD_DSTYLE_DIMJAG
 70
     0
  0
APPID
  2
ACAD_DSTYLE_DIMTALN
 70
     0
  0
APPID
  2
ACAD_MLEADERVER
 70
     0
  0
APPID
  2
ACAD_NAV_VCDISPLAY
 70
     0
  0
APPID
  2
ACAD_EXEMPT_FROM_CAD_STANDARDS
 70
     0
  0
ENDTAB
  0
TABLE
  2
DIMSTYLE
 70
     3
  0
DIMSTYLE
  2
STANDARD
 70
     0
  3

  4

  5

  6

  7

 40
1.0
 41
0.18
 42
0.0625
 43
0.38
 44
0.18
 45
0.0
 46
0.0
 47
0.0
 48
0.0
140
0.18
141
0.09
142
0.0
143
25.3999999999999986
144
1.0
145
0.0
146
1.0
147
0.09
 71
     0
 72
     0
 73
     1
 74
     1
 75
     0
 76
     0
 77
     0
 78
     0
170
     0
171
     2
172
     0
173
     0
174
     0
175
     0
176
     0
177
     0
178
     0
  0
DIMSTYLE
  2
ANNOTATIVE
 70
     0
  3

  4

  5

  6

  7

 40
0.0
 41
2.5
 42
0.625
 43
3.75
 44
1.25
 45
0.0
 46
0.0
 47
0.0
 48
0.0
140
2.5
141
2.5
142
0.0
143
0.03937007874016
144
1.0
145
0.0
146
1.0
147
0.625
 71
     0
 72
     0
 73
     0
 74
     0
 75
     0
 76
     0
 77
     1
 78
     8
170
     0
171
     3
172
     1
173
     0
174
     0
175
     0
176
     0
177
     0
178
     0
  0
DIMSTYLE
  2
ISO-25
 70
     0
  3

  4

  5

  6

  7

 40
1.0
 41
2.5
 42
0.625
 43
3.75
 44
1.25
 45
0.0
 46
0.0
 47
0.0
 48
0.0
140
2.5
141
2.5
142
0.0
143
0.03937007874016
144
1.0
145
0.0
146
1.0
147
0.625
 71
     0
 72
     0
 73
     0
 74
     0
 75
     0
 76
     0
 77
     1
 78
     8
170
     0
171
     3
172
     1
173
     0
174
     0
175
     0
176
     0
177
     0
178
     0
  0
ENDTAB
  0
ENDSEC
  0
SECTION
  2
BLOCKS
  0
BLOCK
  8
0
  2
$MODEL_SPACE
 70
     0
 10
0.0
 20
0.0
 30
0.0
  3
$MODEL_SPACE
  1

  0
ENDBLK
  5
577
  8
0
  0
BLOCK
 67
     1
  8
0
  2
$PAPER_SPACE
 70
     0
 10
0.0
 20
0.0
 30
0.0
  3
$PAPER_SPACE
  1

  0
ENDBLK
  5
573
 67
     1
  8
0
  0
ENDSEC
  0
SECTION
  2
ENTITIES
  0
LINE
  5
288
  8
0
 10
91.0183296005925655
 20
8.7652526155352462
 30
0.0
 11
811.9512298494576044
 21
8.7652526155344663
 31
0.0
  0
ARC
  5
2A3
  8
0
 10
968.1099699908385219
 20
39.388287075320342
 30
0.0
 40
159.1330335350538121
 50
102.0947822343075018
 51
191.0950209906175985
  0
LINE
  5
2A4
  8
0
 10
934.7669021664927413
 20
194.9889367851774011
 30
0.0
 11
834.7610303028334329
 21
385.4108902344943886
 31
0.0
  0
ARC
  5
2A5
  8
0
 10
746.0395168191997755
 20
553.9959491796447537
 30
0.0
 40
190.5057192169475968
 50
218.5083966477455988
 51
297.756553855530683
  0
LINE
  5
2A6
  8
0
 10
596.9655682783430848
 20
435.381502669936026
 30
0.0
 11
91.0183296005925939
 21
435.3815026699343775
 31
0.0
  0
LINE
  5
2A8
  8
0
 10
614.4212031633207971
 20
552.3084845431252461
 30
0.0
 11
614.4212031633207971
 21
422.9134853030087129
 31
0.0
  0
LINE
  5
2A9
  8
0
 10
614.4212031633207971
 20
422.9134853030087129
 30
0.0
 11
811.312732679729038
 21
422.9134853030087129
 31
0.0
  0
LINE
  5
2AA
  8
0
 10
811.312732679729038
 20
422.9134853030087129
 30
0.0
 11
811.312732679729038
 21
552.3084845431257008
 31
0.0
  0
LINE
  5
2AB
  8
0
 10
811.312732679729038
 20
552.3084845431257008
 30
0.0
 11
614.4212031633207971
 21
552.3084845431252461
 31
0.0
  0
ARC
  5
2AC
  8
0
 10
737.8770254710226482
 20
184.1062595823476045
 30
0.0
 40
693.9491481455391977
 50
158.7711112332299876
 51
183.4708180726100863
  0
LINE
  5
2AD
  8
0
 10
45.2007450534362079
 20
142.0944664906886032
 30
0.0
 11
91.0183296005925655
 21
8.7652526155352462
 31
0.0
  0
LINE
  5
2AE
  8
0
 10
52.4043365035317734
 20
539.6960656533068459
 30
0.0
 11
530.3452524568051558
 21
539.6960656533068459
 31
0.0
  0
ARC
  5
2AF
  8
0
 10
633.244630286528718
 20
536.7301980810988198
 30
0.0
 40
102.9421115394475947
 50
103.9486470498081019
 51
178.3490215027634918
  0
ARC
  5
2B0
  8
0
 10
691.735887949030257
 20
363.4090862684166723
 30
0.0
 40
285.6452386647462731
 50
63.0672809675397019
 51
106.9561862931381029
  0
LINE
  5
2B1
  8
0
 10
821.1171565986145424
 20
618.0729621803019427
 30
0.0
 11
866.9127702154640929
 21
810.6033118881261998
 31
0.0
  0
ARC
  5
2B2
  8
0
 10
876.6833298723380494
 20
891.3586097183888342
 30
0.0
 40
81.3442189935026505
 50
172.9335969517034926
 51
263.1013322066535807
  0
LINE
  5
2B3
  8
0
 10
795.9569816860963556
 20
901.3655409251356332
 30
0.0
 11
795.9569816860963556
 21
964.1414757791626471
 31
0.0
  0
LINE
  5
2B4
  8
0
 10
52.4043365035317734
 20
1388.5868859050181072
 30
0.0
 11
530.3452524568051558
 21
1388.5868859050181072
 31
0.0
  0
ARC
  5
2B5
  8
0
 10
633.244630286528718
 20
1391.552753477225906
 30
0.0
 40
102.9421115394475947
 50
181.6509784972305965
 51
256.0513529501903918
  0
ARC
  5
2B6
  8
0
 10
691.735887949030257
 20
1564.8738652899089629
 30
0.0
 40
285.6452386647462731
 50
253.0438137068605045
 51
296.9327190324578964
  0
LINE
  5
2B7
  8
0
 10
821.1171565986145424
 20
1310.2099893780230104
 30
0.0
 11
866.9127702154640929
 21
1117.6796396701990943
 31
0.0
  0
ARC
  5
2B8
  8
0
 10
876.6833298723380494
 20
1036.9243418399360053
 30
0.0
 40
81.3442189935026505
 50
96.8986677933469309
 51
187.0664030482938074
  0
LINE
  5
2B9
  8
0
 10
795.9569816860963556
 20
1026.9174106331890926
 30
0.0
 11
795.9569816860963556
 21
964.1414757791626471
 31
0.0
  0
LINE
  5
2BA
  8
0
 10
52.4043365035317734
 20
1388.5868859050181072
 30
0.0
 11
52.4043365035316384
 21
539.6960656533068459
 31
0.0
  0
LINE
  5
2BB
  8
0
 10
891.7800047033299506
 20
23.9070793732537901
 30
0.0
 11
1536.784330040147097
 21
23.9070793732537901
 31
0.0
  0
ARC
  5
2BD
  8
0
 10
1663.7995190181750331
 20
235.4242683794934976
 30
0.0
 40
246.7232852331241872
 50
197.617873065301012
 51
239.0153592892314975
  0
LINE
  5
2BE
  8
0
 10
1428.6484689869450904
 20
160.7492180250725937
 30
0.0
 11
892.7231412559369801
 21
141.8256921561091985
 31
0.0
  0
LINE
  5
2BF
  8
0
 10
892.7231412559369801
 20
141.8256921561091985
 30
0.0
 11
891.7800047033299506
 21
23.9070793732537901
 31
0.0
  0
ARC
  5
2C0
  8
0
 10
883.26649640055291
 20
176.9003159108223997
 30
0.0
 40
81.9740741960120261
 50
352.7221570299304858
 51
45.8780194799803596
  0
LINE
  5
2C1
  8
0
 10
964.5801469574524845
 20
166.5157565362659966
 30
0.0
 11
1483.2342707703169253
 21
189.8810180872050921
 31
0.0
  0
LINE
  5
2C2
  8
0
 10
1483.2342707703169253
 20
189.8810180872050921
 30
0.0
 11
1471.1121387907769531
 21
266.8998502115583733
 31
0.0
  0
LINE
  5
2C3
  8
0
 10
1471.1121387907769531
 20
266.8998502115583733
 30
0.0
 11
940.3358829983700389
 21
235.7461649882397978
 31
0.0
  0
LINE
  5
2C4
  8
0
 10
944.7549168899023471
 20
258.3324909298854095
 30
0.0
 11
1460.8114402913809045
 21
295.5438379576989973
 31
0.0
  0
ARC
  5
2C5
  8
0
 10
1498.3627496407279978
 20
426.1203515432741256
 30
0.0
 40
135.8687849876278051
 50
175.2098938955244876
 51
253.955776226417612
  0
LINE
  5
2C6
  8
0
 10
1362.9685143776569021
 20
437.4661785974149097
 30
0.0
 11
910.1202512852723885
 21
316.3129614399103957
 31
0.0
  0
ARC
  5
2C7
  8
0
 10
887.3268644507128329
 20
263.3625659867497006
 30
0.0
 40
57.6479215760288994
 50
354.9942855832525197
 51
66.7097273391206187
  0
LINE
  5
2C8
  8
0
 10
953.3299543069279025
 20
395.9769712742898946
 30
0.0
 11
1433.630179049014032
 21
518.0656145014936556
 31
0.0
  0
LINE
  5
2C9
  8
0
 10
1433.630179049014032
 20
518.0656145014936556
 30
0.0
 11
1433.630179049014032
 21
733.1081192164328968
 31
0.0
  0
LINE
  5
2CA
  8
0
 10
1433.630179049014032
 20
733.1081192164328968
 30
0.0
 11
926.9550785835726856
 21
819.1251173159288328
 31
0.0
  0
ARC
  5
2CB
  8
0
 10
803.6956306588126608
 20
711.6395065429284159
 30
0.0
 40
163.5421903545430098
 50
311.3241009668627726
 51
41.0893186183260823
  0
ARC
  5
2CC
  8
0
 10
1023.0862919992539446
 20
511.9595867322207141
 30
0.0
 40
135.3436874653122004
 50
145.3959443642407905
 51
238.9757053294941045
  0
LINE
  5
2CD
  8
0
 10
842.7987471943215496
 20
1076.4798632489701049
 30
0.0
 11
842.7987471943215496
 21
851.9036234466827864
 31
0.0
  0
LINE
  5
2CE
  8
0
 10
842.7987471943215496
 20
851.9036234466827864
 30
0.0
 11
938.0233901013233435
 21
851.9036234466827864
 31
0.0
  0
LINE
  5
2CF
  8
0
 10
938.0233901013233435
 20
851.9036234466827864
 30
0.0
 11
938.0233901013235709
 21
1076.4798632489701049
 31
0.0
  0
LINE
  5
2D0
  8
0
 10
938.0233901013235709
 20
1076.4798632489701049
 30
0.0
 11
842.7987471943215496
 21
1076.4798632489701049
 31
0.0
  0
LINE
  5
2D1
  8
0
 10
91.0183296005926366
 20
1424.3889490078049676
 30
0.0
 11
811.9512298494576044
 21
1424.3889490078040581
 31
0.0
  0
ARC
  5
2D2
  8
0
 10
968.1099699908385219
 20
1455.011983467589971
 30
0.0
 40
159.1330335350538121
 50
102.0947822343062938
 51
191.0950209906135058
  0
LINE
  5
2D3
  8
0
 10
934.7669021664927413
 20
1610.6126331774469236
 30
0.0
 11
834.7610303028334329
 21
1801.0345866267639394
 31
0.0
  0
ARC
  5
2D4
  8
0
 10
746.0395168191998891
 20
1969.6196455719150435
 30
0.0
 40
190.5057192169475968
 50
218.5083966477444051
 51
297.7565538555332978
  0
LINE
  5
2D5
  8
0
 10
596.9655682783430848
 20
1851.0051990622050653
 30
0.0
 11
91.0183296005926508
 21
1851.0051990622039284
 31
0.0
  0
ARC
  5
2D6
  8
0
 10
737.8770254710229892
 20
1599.7299559746170416
 30
0.0
 40
693.9491481455391977
 50
158.771111233233313
 51
183.4708180726076989
  0
LINE
  5
2D7
  8
0
 10
45.2007450534362789
 20
1557.7181628829580404
 30
0.0
 11
91.0183296005926366
 21
1424.3889490078049676
 31
0.0
  0
LINE
  5
2D8
  8
0
 10
976.7273317863291595
 20
1307.8302756190760192
 30
0.0
 11
1457.0275565284150616
 21
1185.7416323918719172
 31
0.0
  0
LINE
  5
2D9
  8
0
 10
1457.0275565284150616
 20
1185.7416323918719172
 30
0.0
 11
1457.0275565284150616
 21
970.6991276769331307
 31
0.0
  0
LINE
  5
2DA
  8
0
 10
1457.0275565284150616
 20
970.6991276769331307
 30
0.0
 11
950.3524560629740563
 21
884.6821295774369673
 31
0.0
  0
ARC
  5
2DB
  8
0
 10
840.0420760626276433
 20
993.026293375815726
 30
0.0
 40
154.618361668305397
 50
315.5152092960851178
 51
52.0713711187263328
  0
ARC
  5
2DC
  8
0
 10
1044.6184755516369478
 20
1192.2504463624229629
 30
0.0
 40
134.0444117923557883
 50
120.4298110608296071
 51
215.1985392454353132
  0
LINE
  5
2E1
  8
0
 10
1055.086575258620087
 20
816.604216592833609
 30
0.0
 11
1567.0195450298629112
 21
741.6131894359676835
 31
0.0
  0
ARC
  5
2E2
  8
0
 10
1631.8552741992280062
 20
861.014424593276658
 30
0.0
 40
135.8687849876278051
 50
162.7518392422988995
 51
241.4977215731948093
  0
LINE
  5
2E3
  8
0
 10
1502.0965814072669673
 20
901.3010027420349388
 30
0.0
 11
1033.7752374976710144
 21
880.6910475719604392
 31
0.0
  0
ARC
  5
2E4
  8
0
 10
1000.095824458190009
 20
833.9045110539409507
 30
0.0
 40
57.6479215760288994
 50
342.5362309300301149
 51
54.2516726858991589
  0
ARC
  5
2E5
  8
0
 10
814.3720565791711579
 20
1627.1933871843380075
 30
0.0
 40
215.947109008751994
 50
15.0092997953059406
 51
69.2979352227008718
  0
LINE
  5
2E6
  8
0
 10
1022.9518717164539794
 20
1683.1184674840978914
 30
0.0
 11
1688.7951779991290095
 21
1683.1184674840978914
 31
0.0
  0
LINE
  5
2E7
  8
0
 10
1688.7951779991290095
 20
1683.1184674840978914
 30
0.0
 11
1688.7951779991290095
 21
1782.8229117730029429
 31
0.0
  0
LINE
  5
2E8
  8
0
 10
1688.7951779991290095
 20
1782.8229117730029429
 30
0.0
 11
890.7112068896839219
 21
1829.1970703663689619
 31
0.0
  0
ARC
  5
2E9
  8
0
 10
948.850430630578785
 20
1476.7039008791950891
 30
0.0
 40
68.0531805676430395
 50
12.9844000250323699
 51
158.9066663783843012
  0
LINE
  5
2EA
  8
0
 10
885.3571252372113349
 20
1501.1954413696751089
 30
0.0
 11
885.3571252372113349
 21
1329.1375051546899613
 31
0.0
  0
LINE
  5
2EB
  8
0
 10
1015.1635782274289568
 20
1491.9944810241900086
 30
0.0
 11
1015.1635782274289568
 21
1329.1375051546899613
 31
0.0
  0
ARC
  5
2EC
  8
0
 10
950.2603517323199185
 20
1258.0406360258250515
 30
0.0
 40
96.2662641292489241
 50
47.6075316336431129
 51
132.3924683663568942
  0
LINE
  5
2ED
  8
0
 10
1529.9267912479031111
 20
1204.7426214545450875
 30
0.0
 11
1049.6265665058160721
 21
1326.8312646817480527
 31
0.0
  0
LINE
  5
2EE
  8
0
 10
1049.6265665058160721
 20
1326.8312646817480527
 30
0.0
 11
1049.6265665058160721
 21
1541.8737693966870665
 31
0.0
  0
LINE
  5
2EF
  8
0
 10
1049.6265665058160721
 20
1541.8737693966870665
 30
0.0
 11
1556.3016669712581006
 21
1627.8907674961840257
 31
0.0
  0
ARC
  5
2F0
  8
0
 10
1728.3049469087659418
 20
1523.636985043742925
 30
0.0
 40
201.1317465367012005
 50
148.7793144491496093
 51
218.8072659656536985
  0
ARC
  5
2F1
  8
0
 10
1343.4523233435170368
 20
1345.9303652412170322
 30
0.0
 40
233.8946475996962135
 50
322.8690887592421745
 51
12.7592615470079291
  0
LINE
  5
2F2
  8
0
 10
1580.2392864114549411
 20
262.4341859177691276
 30
0.0
 11
2058.1802023647292117
 21
262.4341859177691276
 31
0.0
  0
ARC
  5
2F3
  8
0
 10
2161.0795801944518644
 20
259.4683183455612721
 30
0.0
 40
102.9421115394475947
 50
103.9486470498113988
 51
178.3490215027628096
  0
ARC
  5
2F4
  8
0
 10
2219.5708378569538581
 20
86.1472065328788545
 30
0.0
 40
285.6452386647462731
 50
63.0672809675414285
 51
106.9561862931413998
  0
LINE
  5
2F5
  8
0
 10
2348.952106506536893
 20
340.8110824447641107
 30
0.0
 11
2394.7477201233878077
 21
533.3414321525884816
 31
0.0
  0
ARC
  5
2F6
  8
0
 10
2404.5182797802631285
 20
614.0967299828511159
 30
0.0
 40
81.3442189935026505
 50
172.9335969517024125
 51
263.1013322066531259
  0
LINE
  5
2F7
  8
0
 10
2323.791931594019843
 20
624.1036611895981423
 30
0.0
 11
2323.791931594019843
 21
686.8795960436248151
 31
0.0
  0
LINE
  5
2F8
  8
0
 10
1580.2392864114549411
 20
1111.3250061694809574
 30
0.0
 11
2058.1802023647292117
 21
1111.3250061694809574
 31
0.0
  0
ARC
  5
2F9
  8
0
 10
2161.0795801944518644
 20
1114.290873741688074
 30
0.0
 40
102.9421115394475947
 50
181.6509784972305965
 51
256.0513529501885159
  0
ARC
  5
2FA
  8
0
 10
2219.5708378569538581
 20
1287.6119855543699941
 30
0.0
 40
285.6452386647462731
 50
253.0438137068576054
 51
296.9327190324571006
  0
LINE
  5
2FB
  8
0
 10
2348.952106506536893
 20
1032.948109642486088
 30
0.0
 11
2394.7477201233878077
 21
840.4177599346611487
 31
0.0
  0
ARC
  5
2FC
  8
0
 10
2404.5182797802631285
 20
759.6624621043987418
 30
0.0
 40
81.3442189935026505
 50
96.8986677933469309
 51
187.0664030482942053
  0
LINE
  5
2FD
  8
0
 10
2323.791931594019843
 20
749.6555308976517153
 30
0.0
 11
2323.791931594019843
 21
686.8795960436248151
 31
0.0
  0
LINE
  5
2FE
  8
0
 10
1580.2392864114549411
 20
1111.3250061694809574
 30
0.0
 11
1580.2392864114549411
 21
262.4341859177691276
 31
0.0
  0
LINE
  5
2FF
  8
0
 10
1458.50076424150393
 20
625.815707474460396
 30
0.0
 11
1458.50076424150393
 21
401.2394676721733049
 31
0.0
  0
LINE
  5
300
  8
0
 10
1458.50076424150393
 20
401.2394676721733049
 30
0.0
 11
1553.7254071485060649
 21
401.2394676721733049
 31
0.0
  0
LINE
  5
301
  8
0
 10
1553.7254071485060649
 20
401.2394676721733049
 30
0.0
 11
1553.7254071485060649
 21
625.815707474460396
 31
0.0
  0
LINE
  5
302
  8
0
 10
1553.7254071485060649
 20
625.815707474460396
 30
0.0
 11
1458.50076424150393
 21
625.815707474460396
 31
0.0
  0
LINE
  5
303
  8
0
 10
1561.1300996272400425
 20
23.9070793732537901
 30
0.0
 11
2206.1344249640569615
 21
23.9070793732537901
 31
0.0
  0
ARC
  5
304
  8
0
 10
2333.1496139420842155
 20
235.4242683794934976
 30
0.0
 40
246.7232852331241872
 50
197.6178730653005005
 51
239.015359289230588
  0
LINE
  5
305
  8
0
 10
2097.9985639108540454
 20
160.7492180250725937
 30
0.0
 11
1562.073236179847072
 21
141.8256921561091985
 31
0.0
  0
LINE
  5
306
  8
0
 10
1562.073236179847072
 20
141.8256921561091985
 30
0.0
 11
1561.1300996272400425
 21
23.9070793732537901
 31
0.0
  0
LINE
  5
307
  8
0
 10
2132.9087764643318224
 20
273.9387923512585985
 30
0.0
 11
2132.9087764643318224
 21
108.9200680626326943
 31
0.0
  0
LINE
  5
308
  8
0
 10
2132.9087764643318224
 20
108.9200680626326943
 30
0.0
 11
2197.2280731898349586
 21
108.9200680626326943
 31
0.0
  0
LINE
  5
309
  8
0
 10
2132.9087764643318224
 20
273.9387923512585985
 30
0.0
 11
2195.6440476202551508
 21
273.9387923512585985
 31
0.0
  0
ARC
  5
30A
  8
0
 10
2249.7329390759241505
 20
240.9366754970421027
 30
0.0
 40
63.3620382860467686
 50
148.6107157306406066
 51
233.077494154697888
  0
ARC
  5
30B
  8
0
 10
2254.8350020849748034
 20
140.6578248235686033
 30
0.0
 40
65.7711445920317743
 50
131.0185392773483954
 51
208.8519709223517111
  0
LINE
  5
30C
  8
0
 10
2248.2755665098670761
 20
280.7591647008276254
 30
0.0
 11
2248.2755665098670761
 21
56.1829248985404774
 31
0.0
  0
LINE
  5
30D
  8
0
 10
2248.2755665098670761
 20
56.1829248985404774
 30
0.0
 11
2343.5002094168680742
 21
56.1829248985404774
 31
0.0
  0
LINE
  5
30E
  8
0
 10
2343.5002094168680742
 20
56.1829248985404774
 30
0.0
 11
2343.5002094168680742
 21
280.7591647008276254
 31
0.0
  0
LINE
  5
30F
  8
0
 10
2343.5002094168680742
 20
280.7591647008276254
 30
0.0
 11
2248.2755665098670761
 21
280.7591647008276254
 31
0.0
  0
LINE
  5
310
  8
0
 10
1632.2176536543349812
 20
1124.8668290943539887
 30
0.0
 11
2353.1505539032000343
 21
1124.8668290943530792
 31
0.0
  0
ARC
  5
311
  8
0
 10
2509.3092940445822023
 20
1155.4898635541389922
 30
0.0
 40
159.1330335350538121
 50
102.0947822343077007
 51
191.0950209906137047
  0
LINE
  5
312
  8
0
 10
2475.966226220235967
 20
1311.0905132639959447
 30
0.0
 11
2375.960354356577227
 21
1501.5124667133129606
 31
0.0
  0
ARC
  5
313
  8
0
 10
2287.2388408729430012
 20
1670.0975256584640647
 30
0.0
 40
190.5057192169475968
 50
218.5083966477440072
 51
297.7565538555376179
  0
LINE
  5
314
  8
0
 10
2138.16489233208722
 20
1551.4830791487549959
 30
0.0
 11
1632.2176536543349812
 21
1551.4830791487529495
 31
0.0
  0
ARC
  5
315
  8
0
 10
2279.0763495247661012
 20
1300.2078360611660628
 30
0.0
 40
693.9491481455391977
 50
158.771111233234592
 51
183.4708180726076137
  0
LINE
  5
316
  8
0
 10
1586.4000691071789788
 20
1258.1960429695079711
 30
0.0
 11
1632.2176536543349812
 21
1124.8668290943539887
 31
0.0
  0
ARC
  5
317
  8
0
 10
1670.7871805803570169
 20
1574.5004684687401095
 30
0.0
 40
81.9740741960120261
 50
352.7221570299356017
 51
45.8780194799799901
  0
LINE
  5
318
  8
0
 10
1752.1008311372570461
 20
1564.1159090941839622
 30
0.0
 11
2270.7549549501209185
 21
1587.4811706451230293
 31
0.0
  0
LINE
  5
319
  8
0
 10
2270.7549549501209185
 20
1587.4811706451230293
 30
0.0
 11
2258.6328229705800368
 21
1664.5000027694750315
 31
0.0
  0
LINE
  5
31A
  8
0
 10
2258.6328229705800368
 20
1664.5000027694750315
 30
0.0
 11
1727.8565671781739184
 21
1633.3463175461570245
 31
0.0
  0
LINE
  5
31B
  8
0
 10
1732.2756010697059992
 20
1655.9326434878030341
 30
0.0
 11
2248.3321244711860345
 21
1693.1439905156169061
 31
0.0
  0
ARC
  5
31C
  8
0
 10
2285.8834338205319909
 20
1823.7205041011920912
 30
0.0
 40
135.8687849876278051
 50
175.209893895528694
 51
253.955776226418692
  0
LINE
  5
31D
  8
0
 10
2150.4891985574608952
 20
1835.0663311553309995
 30
0.0
 11
1697.6409354650770638
 21
1713.9131139978280771
 31
0.0
  0
ARC
  5
31E
  8
0
 10
1674.8475486305160302
 20
1660.962718544667041
 30
0.0
 40
57.6479215760288994
 50
354.9942855832532018
 51
66.7097273391214998
  0
LINE
  5
31F
  8
0
 10
2402.354723605531035
 20
1230.5312304401470556
 30
0.0
 11
2402.354723605531035
 21
1065.5125061515200287
 31
0.0
  0
LINE
  5
320
  8
0
 10
2402.354723605531035
 20
1065.5125061515200287
 30
0.0
 11
2466.6740203310350807
 21
1065.5125061515200287
 31
0.0
  0
LINE
  5
321
  8
0
 10
2402.354723605531035
 20
1230.5312304401470556
 30
0.0
 11
2465.0899947614529992
 21
1230.5312304401470556
 31
0.0
  0
ARC
  5
322
  8
0
 10
2519.1788862171229084
 20
1197.5291135859299629
 30
0.0
 40
63.3620382860467686
 50
148.6107157306396118
 51
233.0774941546985133
  0
ARC
  5
323
  8
0
 10
2524.2809492261740161
 20
1097.2502629124569467
 30
0.0
 40
65.7711445920317743
 50
131.0185392773464059
 51
208.8519709223502048
  0
LINE
  5
324
  8
0
 10
2351.1441828095780693
 20
770.399673377020008
 30
0.0
 11
2351.1441828095780693
 21
605.380949088394118
 31
0.0
  0
LINE
  5
325
  8
0
 10
2351.1441828095780693
 20
605.380949088394118
 30
0.0
 11
2415.4634795350812055
 21
605.380949088394118
 31
0.0
  0
LINE
  5
326
  8
0
 10
2351.1441828095780693
 20
770.399673377020008
 30
0.0
 11
2413.879453965500943
 21
770.399673377020008
 31
0.0
  0
ARC
  5
327
  8
0
 10
2467.9683454211699427
 20
737.3975565228032565
 30
0.0
 40
63.3620382860467686
 50
148.6107157306414024
 51
233.0774941546985133
  0
ARC
  5
328
  8
0
 10
2473.0704084302210504
 20
637.1187058493297855
 30
0.0
 40
65.7711445920317743
 50
131.0185392773485944
 51
208.8519709223531891
  0
CIRCLE
  5
329
  8
0
 10
2368.3272502900249492
 20
1723.7543519788960111
 30
0.0
 40
93.9125106675287213
  0
LINE
  5
32A
  8
0
 10
2466.3838491197820986
 20
59.2157823156255674
 30
0.0
 11
2944.3247650730550049
 21
59.2157823156255674
 31
0.0
  0
ARC
  5
32B
  8
0
 10
3047.2241429027790218
 20
56.2499147434177686
 30
0.0
 40
102.9421115394475947
 50
103.9486470497986943
 51
178.3490215027632075
  0
ARC
  5
32C
  8
0
 10
3105.7154005652801061
 20
-117.0711970692645991
 30
0.0
 40
285.6452386647462731
 50
63.0672809675414285
 51
106.9561862931288942
  0
LINE
  5
32D
  8
0
 10
3235.0966692148640504
 20
137.5926788426203871
 30
0.0
 11
3280.8922828317149651
 21
330.123028550445099
 31
0.0
  0
ARC
  5
32E
  8
0
 10
3290.6628424885889217
 20
410.8783263807072217
 30
0.0
 40
81.3442189935026505
 50
172.9335969517040041
 51
263.1013322066659725
  0
LINE
  5
32F
  8
0
 10
3209.9364943023470005
 20
420.8852575874543049
 30
0.0
 11
3209.9364943023470005
 21
483.6611924414813188
 31
0.0
  0
LINE
  5
330
  8
0
 10
2466.3838491197820986
 20
908.1066025673371769
 30
0.0
 11
2944.3247650730550049
 21
908.1066025673371769
 31
0.0
  0
ARC
  5
331
  8
0
 10
3047.2241429027790218
 20
911.0724701395447482
 30
0.0
 40
102.9421115394475947
 50
181.6509784972301134
 51
256.0513529502013057
  0
ARC
  5
332
  8
0
 10
3105.7154005652801061
 20
1084.3935819522268957
 30
0.0
 40
285.6452386647462731
 50
253.043813706870111
 51
296.9327190324571006
  0
LINE
  5
333
  8
0
 10
3235.0966692148640504
 20
829.7297060403423075
 30
0.0
 11
3280.8922828317149651
 21
637.1993563325175955
 31
0.0
  0
ARC
  5
334
  8
0
 10
3290.6628424885889217
 20
556.4440585022553023
 30
0.0
 40
81.3442189935026505
 50
96.8986677933598628
 51
187.0664030482926137
  0
LINE
  5
335
  8
0
 10
3209.9364943023470005
 20
546.4371272955077075
 30
0.0
 11
3209.9364943023470005
 21
483.6611924414813188
 31
0.0
  0
LINE
  5
336
  8
0
 10
2466.3838491197820986
 20
908.1066025673371769
 30
0.0
 11
2466.3838491197820986
 21
59.2157823156255674
 31
0.0
  0
LINE
  5
337
  8
0
 10
3299.0121064218838001
 20
917.923509380909536
 30
0.0
 11
2821.0711904686099842
 21
917.9235093809159025
 31
0.0
  0
ARC
  5
338
  8
0
 10
2718.1718126388877863
 20
914.9576418087096954
 30
0.0
 40
102.9421115394475947
 50
1.6509784972306261
 51
76.0513529502281216
  0
ARC
  5
339
  8
0
 10
2659.6805549763821546
 20
741.6365299960281163
 30
0.0
 40
285.6452386647462731
 50
73.0438137068978506
 51
116.9327190324352017
  0
LINE
  5
33A
  8
0
 10
2530.2992863268018482
 20
996.300405907915092
 30
0.0
 11
2484.5036727099550262
 21
1188.8307556157399176
 31
0.0
  0
ARC
  5
33B
  8
0
 10
2474.7331130530819792
 20
1269.5860534460030067
 30
0.0
 40
81.3442189935026505
 50
276.8986677933601754
 51
7.0664030482935027
  0
LINE
  5
33C
  8
0
 10
2555.4594612393248099
 20
1279.5929846527481004
 30
0.0
 11
2555.4594612393248099
 21
1342.3689195067759101
 31
0.0
  0
LINE
  5
33D
  8
0
 10
3299.0121064218960782
 20
1766.8143296326209111
 30
0.0
 11
2821.0711904686208982
 21
1766.8143296326279597
 31
0.0
  0
ARC
  5
33E
  8
0
 10
2718.1718126388977907
 20
1769.7801972048368953
 30
0.0
 40
102.9421115394475947
 50
283.9486470497718074
 51
358.3490215027694035
  0
ARC
  5
33F
  8
0
 10
2659.6805549763989802
 20
1943.1013090175199522
 30
0.0
 40
285.6452386647462731
 50
243.0672809675648125
 51
286.956186293102121
  0
LINE
  5
340
  8
0
 10
2530.2992863268109431
 20
1688.4374331056369556
 30
0.0
 11
2484.5036727099591189
 21
1495.9070833978130395
 31
0.0
  0
ARC
  5
341
  8
0
 10
2474.7331130530837981
 20
1415.1517855675499504
 30
0.0
 40
81.3442189935026505
 50
352.9335969517064768
 51
83.1013322066397393
  0
LINE
  5
342
  8
0
 10
2555.4594612393270836
 20
1405.1448543608019008
 30
0.0
 11
2555.4594612393248099
 21
1342.3689195067759101
 31
0.0
  0
LINE
  5
343
  8
0
 10
3299.0121064218960782
 20
1766.8143296326209111
 30
0.0
 11
3299.0121064218838001
 21
917.923509380909536
 31
0.0
  0
LINE
  5
344
  8
0
 10
3383.6022186743389284
 20
59.2157823156255674
 30
0.0
 11
4104.5351189232032993
 21
59.2157823156248782
 31
0.0
  0
ARC
  5
345
  8
0
 10
4260.6938590645850127
 20
89.8388167754105922
 30
0.0
 40
159.1330335350538121
 50
102.0947822343063933
 51
191.0950209906110899
  0
LINE
  5
346
  8
0
 10
4227.3507912402392321
 20
245.439466485267701
 30
0.0
 11
4127.3449193765809468
 21
435.8614199345847169
 31
0.0
  0
ARC
  5
347
  8
0
 10
4038.6234058929471757
 20
604.4464788797351957
 30
0.0
 40
190.5057192169475968
 50
218.5083966477440072
 51
297.7565538555388116
  0
LINE
  5
348
  8
0
 10
3889.5494573520900303
 20
485.8320323700262975
 30
0.0
 11
3383.6022186743389284
 21
485.8320323700247059
 31
0.0
  0
ARC
  5
349
  8
0
 10
4030.4609145447680021
 20
234.5567892824379044
 30
0.0
 40
693.9491481455391977
 50
158.7711112332297887
 51
183.4708180726084095
  0
LINE
  5
34A
  8
0
 10
3337.784634127182926
 20
192.5449961907791021
 30
0.0
 11
3383.6022186743389284
 21
59.2157823156255674
 31
0.0
  0
LINE
  5
34B
  8
0
 10
3383.6022186743412021
 20
502.2817024512568764
 30
0.0
 11
4104.5351189232032993
 21
502.2817024512560806
 31
0.0
  0
ARC
  5
34C
  8
0
 10
4260.6938590645850127
 20
532.9047369110419368
 30
0.0
 40
159.1330335350538121
 50
102.0947822343077007
 51
191.0950209906110899
  0
LINE
  5
34D
  8
0
 10
4227.3507912402392321
 20
688.5053866208991167
 30
0.0
 11
4127.3449193765809468
 21
878.9273400702156778
 31
0.0
  0
ARC
  5
34E
  8
0
 10
4038.6234058929471757
 20
1047.5123990153660998
 30
0.0
 40
190.5057192169475968
 50
218.5083966477440072
 51
297.7565538555360263
  0
LINE
  5
34F
  8
0
 10
3889.5494573520909398
 20
928.8979525056574857
 30
0.0
 11
3383.6022186743412021
 21
928.8979525056561215
 31
0.0
  0
ARC
  5
350
  8
0
 10
4030.4609145447711853
 20
677.6227094180692347
 30
0.0
 40
693.9491481455391977
 50
158.7711112332297887
 51
183.4708180726084095
  0
LINE
  5
351
  8
0
 10
3337.7846341271838355
 20
635.6109163264103472
 30
0.0
 11
3383.6022186743412021
 21
502.2817024512568764
 31
0.0
  0
LINE
  5
352
  8
0
 10
3383.6022186743412021
 20
962.5160971679395061
 30
0.0
 11
4028.6065440111560747
 21
962.5160971679395061
 31
0.0
  0
ARC
  5
353
  8
0
 10
4155.6217329891842382
 20
1174.0332861741790111
 30
0.0
 40
246.7232852331241872
 50
197.6178730653033142
 51
239.0153592892312986
  0
LINE
  5
354
  8
0
 10
3920.4706829579558871
 20
1099.3582358197579651
 30
0.0
 11
3384.5453552269468673
 21
1080.4347099507949679
 31
0.0
  0
LINE
  5
355
  8
0
 10
3384.5453552269468673
 20
1080.4347099507949679
 30
0.0
 11
3383.6022186743412021
 21
962.5160971679395061
 31
0.0
  0
ARC
  5
356
  8
0
 10
3375.0887103715640478
 20
1115.5093337055079701
 30
0.0
 40
81.9740741960120261
 50
352.7221570299299174
 51
45.8780194799846726
  0
LINE
  5
357
  8
0
 10
3456.402360928464077
 20
1105.1247743309520501
 30
0.0
 11
3975.0564847413288589
 21
1128.4900358818908899
 31
0.0
  0
LINE
  5
358
  8
0
 10
3975.0564847413288589
 20
1128.4900358818908899
 30
0.0
 11
3962.9343527617888867
 21
1205.5088680062440289
 31
0.0
  0
LINE
  5
359
  8
0
 10
3962.9343527617888867
 20
1205.5088680062440289
 30
0.0
 11
3432.1580969693809493
 21
1174.3551827829251124
 31
0.0
  0
LINE
  5
35A
  8
0
 10
3436.5771308609128027
 20
1196.9415087245708946
 30
0.0
 11
3952.6336542623930654
 21
1234.152855752384994
 31
0.0
  0
ARC
  5
35B
  8
0
 10
3990.1849636117390219
 20
1364.7293693379599517
 30
0.0
 40
135.8687849876278051
 50
175.2098938955215033
 51
253.9557762264080054
  0
LINE
  5
35C
  8
0
 10
3854.7907283486679262
 20
1376.0751963921009065
 30
0.0
 11
3401.9424652562829579
 21
1254.9219792345959377
 31
0.0
  0
ARC
  5
35D
  8
0
 10
3379.1490784217248802
 20
1201.9715837814349015
 30
0.0
 40
57.6479215760288994
 50
354.9942855832543955
 51
66.7097273391240719
  0
ARC
  5
35E
  8
0
 10
3394.7502175133668061
 20
1476.7039008791950891
 30
0.0
 40
68.0531805676430395
 50
12.9844000250351197
 51
158.9066663783856086
  0
LINE
  5
35F
  8
0
 10
3331.256912119999015
 20
1501.1954413696751089
 30
0.0
 11
3331.256912119999015
 21
1329.1375051546899613
 31
0.0
  0
LINE
  5
360
  8
0
 10
3461.0633651102189106
 20
1491.9944810241900086
 30
0.0
 11
3461.0633651102189106
 21
1329.1375051546899613
 31
0.0
  0
ARC
  5
361
  8
0
 10
3396.1601386151100996
 20
1258.0406360258250515
 30
0.0
 40
96.2662641292489241
 50
47.6075316336353822
 51
132.3924683663645965
  0
ARC
  5
362
  8
0
 10
4056.2846837775359745
 20
1584.0165623265891099
 30
0.0
 40
81.9740741960120261
 50
172.7221570299203961
 51
225.8780194799568903
  0
LINE
  5
363
  8
0
 10
3974.9710332206391286
 20
1594.4011217011450299
 30
0.0
 11
3456.3169094077729824
 21
1571.0358601502059628
 31
0.0
  0
LINE
  5
364
  8
0
 10
3456.3169094077729824
 20
1571.0358601502059628
 30
0.0
 11
3468.4390413873129546
 21
1494.0170280258530511
 31
0.0
  0
LINE
  5
365
  8
0
 10
3468.4390413873129546
 20
1494.0170280258530511
 30
0.0
 11
3999.2152971797199825
 21
1525.1707132491710581
 31
0.0
  0
LINE
  5
366
  8
0
 10
3994.7962632881881291
 20
1502.584387307525958
 30
0.0
 11
3478.7397398867087759
 21
1465.373040279712086
 31
0.0
  0
ARC
  5
367
  8
0
 10
3441.1884305373628195
 20
1334.7965266941369009
 30
0.0
 40
135.8687849876278051
 50
355.2098938955285234
 51
73.9557762264068828
  0
LINE
  5
368
  8
0
 10
3576.5826658004339151
 20
1323.4506996399959462
 30
0.0
 11
4029.430928892817974
 21
1444.603916797500915
 31
0.0
  0
ARC
  5
369
  8
0
 10
4052.2243157273787801
 20
1497.5543122506610416
 30
0.0
 40
57.6479215760288994
 50
174.99428558324351
 51
246.7097273391700867
  0
LINE
  5
36A
  8
0
 10
4044.5901426464261021
 20
1424.8686400264400618
 30
0.0
 11
4524.8903673885133685
 21
1302.7799967992370966
 31
0.0
  0
LINE
  5
36B
  8
0
 10
4524.8903673885133685
 20
1302.7799967992370966
 30
0.0
 11
4524.8903673885133685
 21
1087.7374920842980828
 31
0.0
  0
LINE
  5
36C
  8
0
 10
4524.8903673885133685
 20
1087.7374920842980828
 30
0.0
 11
4018.2152669230690663
 21
1001.7204939848020331
 31
0.0
  0
ARC
  5
36D
  8
0
 10
3907.9048869227258365
 20
1110.0646577831801096
 30
0.0
 40
154.618361668305397
 50
315.5152092960933032
 51
52.0713711187327633
  0
ARC
  5
36E
  8
0
 10
4112.4812864117347999
 20
1309.2888107697870055
 30
0.0
 40
134.0444117923557883
 50
120.4298110608317955
 51
215.1985392454340058
  0
LINE
  5
36F
  8
0
 10
4532.9676995115505633
 20
1321.7809858619100396
 30
0.0
 11
4052.667474769465116
 21
1443.8696290891130047
 31
0.0
  0
LINE
  5
370
  8
0
 10
4052.667474769465116
 20
1443.8696290891130047
 30
0.0
 11
4052.667474769465116
 21
1658.9121338040520186
 31
0.0
  0
LINE
  5
371
  8
0
 10
4052.667474769465116
 20
1658.9121338040520186
 30
0.0
 11
4559.3425752349075992
 21
1744.9291319035480683
 31
0.0
  0
ARC
  5
372
  8
0
 10
4731.345855172415213
 20
1640.6753494511081044
 30
0.0
 40
201.1317465367012005
 50
148.7793144491544979
 51
218.8072659656596954
  0
ARC
  5
373
  8
0
 10
4346.4932316071672176
 20
1462.9687296485819843
 30
0.0
 40
233.8946475996962135
 50
322.8690887592371723
 51
12.7592615470062505
  0
ARC
  5
374
  8
0
 10
3247.081007739341203
 20
1627.1933871843380075
 30
0.0
 40
215.947109008751994
 50
15.0092997953038996
 51
69.2979352226968217
  0
LINE
  5
375
  8
0
 10
3455.6608228766240245
 20
1683.1184674840978914
 30
0.0
 11
4121.5041291592970083
 21
1683.1184674840978914
 31
0.0
  0
LINE
  5
376
  8
0
 10
4121.5041291592970083
 20
1683.1184674840978914
 30
0.0
 11
4121.5041291592970083
 21
1782.8229117730029429
 31
0.0
  0
LINE
  5
377
  8
0
 10
4121.5041291592970083
 20
1782.8229117730029429
 30
0.0
 11
3323.420158049856127
 21
1829.1970703663689619
 31
0.0
  0
LINE
  5
378
  8
0
 10
4274.3887355226970612
 20
59.2157823156247289
 30
0.0
 11
5113.9955324860593464
 21
59.2157823156247289
 31
0.0
  0
LINE
  5
379
  8
0
 10
4274.3887355226970612
 20
59.2157823156247289
 30
0.0
 11
4316.9103431420726338
 21
527.2836069404290811
 31
0.0
  0
LINE
  5
37A
  8
0
 10
4316.9103431420726338
 20
527.2836069404290811
 30
0.0
 11
5096.7994016341081078
 21
743.0924821697167317
 31
0.0
  0
ARC
  5
37B
  8
0
 10
4978.5095874290718712
 20
463.4913022392818789
 30
0.0
 40
303.5939722114940764
 50
307.4540452070920082
 51
67.068419720318829
  0
ARC
  5
37C
  8
0
 10
5265.2442188795066613
 20
102.7256683694988055
 30
0.0
 40
157.3825762915460871
 50
130.452028870459003
 51
196.0490012827148121
  0
LINE
  5
37F
  8
0
 10
4185.3075937768771837
 20
962.4224182750602949
 30
0.0
 11
4185.3075937768771837
 21
806.2423729818547145
 31
0.0
  0
LINE
  5
380
  8
0
 10
4185.3075937768771837
 20
806.2423729818547145
 30
0.0
 11
4358.1336253983899951
 21
806.2423729818547145
 31
0.0
  0
LINE
  5
381
  8
0
 10
4358.1336253983899951
 20
806.2423729818547145
 30
0.0
 11
4358.1336253983899951
 21
962.4224182750602949
 31
0.0
  0
LINE
  5
382
  8
0
 10
4358.1336253983899951
 20
962.4224182750602949
 30
0.0
 11
4185.3075937768771837
 21
962.4224182750602949
 31
0.0
  0
CIRCLE
  5
383
  8
0
 10
4385.9785153923476173
 20
686.8869159918740479
 30
0.0
 40
93.9125106675287213
  0
LINE
  5
384
  8
0
 10
6311.4724231945720021
 20
59.2157823156247289
 30
0.0
 11
5471.8656262312097169
 21
59.2157823156247289
 31
0.0
  0
LINE
  5
385
  8
0
 10
6311.4724231945720021
 20
59.2157823156247289
 30
0.0
 11
6268.9508155751964296
 21
527.2836069404290811
 31
0.0
  0
LINE
  5
386
  8
0
 10
6268.9508155751964296
 20
527.2836069404290811
 30
0.0
 11
5489.0617570831627745
 21
743.0924821697167317
 31
0.0
  0
ARC
  5
387
  8
0
 10
5607.3515712881990112
 20
463.4913022392818789
 30
0.0
 40
303.5939722114940764
 50
112.9315802796779025
 51
232.5459547928691109
  0
ARC
  5
388
  8
0
 10
5320.61693983776604
 20
102.7256683695000987
 30
0.0
 40
157.382576291543387
 50
343.9509987172843921
 51
49.5479711295649992
  0
LINE
  5
38E
  8
0
 10
5166.8636618236168943
 20
64.0156409929237782
 30
0.0
 11
5430.8936206854195916
 21
64.0156409929543315
 31
0.0
  0
LINE
  5
38F
  8
0
 10
5430.8936206854195916
 20
64.0156409929543315
 30
0.0
 11
5430.8936206854077682
 21
166.9265157537599862
 31
0.0
  0
LINE
  5
390
  8
0
 10
5166.8636618236168943
 20
64.0156409929237782
 30
0.0
 11
5166.8636618236059803
 21
164.3920748424010867
 31
0.0
  0
ARC
  5
391
  8
0
 10
5219.6670487903429603
 20
250.9343011714773013
 30
0.0
 40
101.3792612576747985
 50
238.6107157306510942
 51
323.077494154698627
  0
ARC
  5
392
  8
0
 10
5380.1132098678990587
 20
259.0976019859758139
 30
0.0
 40
105.2338313472507991
 50
221.0185392773582009
 51
298.8519709223451173
  0
LINE
  5
393
  8
0
 10
4589.8661997039816924
 20
681.0154318530654791
 30
0.0
 11
4987.2952648011851124
 21
795.3192424794142426
 31
0.0
  0
LINE
  5
394
  8
0
 10
4987.2952648011851124
 20
795.3192424794142426
 30
0.0
 11
4987.2952648011851124
 21
1063.9332097845579028
 31
0.0
  0
LINE
  5
395
  8
0
 10
4987.2952648011851124
 20
1063.9332097845579028
 30
0.0
 11
4575.5701788016958744
 21
1118.227522781324069
 31
0.0
  0
LINE
  5
396
  8
0
 10
4575.5701788016958744
 20
1118.227522781324069
 30
0.0
 11
4589.8661997039816924
 21
681.0154318530654791
 31
0.0
  0
LINE
  5
397
  8
0
 10
4999.2599967042269782
 20
1545.8694702441039226
 30
0.0
 11
4601.8309316070262867
 21
1431.565659617755955
 31
0.0
  0
LINE
  5
398
  8
0
 10
4601.8309316070262867
 20
1431.565659617755955
 30
0.0
 11
4601.8309316070262867
 21
1162.9516923126120673
 31
0.0
  0
LINE
  5
399
  8
0
 10
4601.8309316070262867
 20
1162.9516923126120673
 30
0.0
 11
5013.5560176065146152
 21
1108.6573793158459011
 31
0.0
  0
LINE
  5
39A
  8
0
 10
5013.5560176065146152
 20
1108.6573793158459011
 30
0.0
 11
4999.2599967042269782
 21
1545.8694702441039226
 31
0.0
  0
LINE
  5
39B
  8
0
 10
4599.2903128161960922
 20
1455.3592833437630816
 30
0.0
 11
4996.7193779133976932
 21
1569.6630939701119587
 31
0.0
  0
LINE
  5
39C
  8
0
 10
4996.7193779133976932
 20
1569.6630939701119587
 30
0.0
 11
4996.7193779133976932
 21
1838.2770612752560737
 31
0.0
  0
LINE
  5
39D
  8
0
 10
4996.7193779133976932
 20
1838.2770612752560737
 30
0.0
 11
4584.9942919139102742
 21
1892.5713742720220125
 31
0.0
  0
LINE
  5
39E
  8
0
 10
4584.9942919139102742
 20
1892.5713742720220125
 30
0.0
 11
4599.2903128161960922
 21
1455.3592833437630816
 31
0.0
  0
LINE
  5
39F
  8
0
 10
5054.9212489157216623
 20
778.8306419800557023
 30
0.0
 11
5532.8621648689959329
 21
778.8306419800557023
 31
0.0
  0
ARC
  5
3A0
  8
0
 10
5635.7615426987204046
 20
775.8647744078475625
 30
0.0
 40
102.9421115394475947
 50
103.9486470497986943
 51
178.3490215027632075
  0
ARC
  5
3A1
  8
0
 10
5694.2528003612233078
 20
602.5436625951653014
 30
0.0
 40
285.6452386647462731
 50
63.0672809675414285
 51
106.9561862931288942
  0
LINE
  5
3A2
  8
0
 10
5823.6340690108036142
 20
857.2075385070503444
 30
0.0
 11
5869.4296826276540742
 21
1049.7378882148750563
 31
0.0
  0
ARC
  5
3A3
  8
0
 10
5879.2002422845280307
 20
1130.4931860451370085
 30
0.0
 40
81.3442189935026505
 50
172.9335969517073011
 51
263.1013322066664273
  0
LINE
  5
3A4
  8
0
 10
5798.473894098287019
 20
1140.5001172518839212
 30
0.0
 11
5798.473894098287019
 21
1203.2760521059110488
 31
0.0
  0
LINE
  5
3A5
  8
0
 10
5054.9212489157216623
 20
1627.7214622317669637
 30
0.0
 11
5532.8621648689959329
 21
1627.7214622317669637
 31
0.0
  0
ARC
  5
3A6
  8
0
 10
5635.7615426987204046
 20
1630.6873298039749898
 30
0.0
 40
102.9421115394475947
 50
181.6509784972301134
 51
256.0513529502013057
  0
ARC
  5
3A7
  8
0
 10
5694.2528003612233078
 20
1804.0084416166569099
 30
0.0
 40
285.6452386647462731
 50
253.0438137068709921
 51
296.9327190324585217
  0
LINE
  5
3A8
  8
0
 10
5823.6340690108036142
 20
1549.3445657047720943
 30
0.0
 11
5869.4296826276540742
 21
1356.8142159969479508
 31
0.0
  0
ARC
  5
3A9
  8
0
 10
5879.2002422845280307
 20
1276.0589181666850891
 30
0.0
 40
81.3442189935026505
 50
96.8986677933602039
 51
187.0664030482926137
  0
LINE
  5
3AA
  8
0
 10
5798.473894098287019
 20
1266.051986959937949
 30
0.0
 11
5798.473894098287019
 21
1203.2760521059110488
 31
0.0
  0
LINE
  5
3AB
  8
0
 10
5054.9212489157216623
 20
1627.7214622317669637
 30
0.0
 11
5054.9212489157216623
 21
778.8306419800557023
 31
0.0
  0
ARC
  5
3AC
  8
0
 10
5680.6963198874127556
 20
774.8685031793795588
 30
0.0
 40
68.0531805676430395
 50
102.9844000250461988
 51
248.9066663783796969
  0
LINE
  5
3AD
  8
0
 10
5656.2047793969286431
 20
711.3751977860141551
 30
0.0
 11
5828.2627156119160645
 21
711.3751977860006264
 31
0.0
  0
LINE
  5
3AE
  8
0
 10
5665.4057397424248848
 20
841.1816507762329138
 30
0.0
 11
5828.2627156119287974
 21
841.181650776219044
 31
0.0
  0
ARC
  5
3AF
  8
0
 10
5899.3595847407859765
 20
776.2784242811044351
 30
0.0
 40
96.2662641292489241
 50
137.607531633622699
 51
222.3924683663771873
  0
LINE
  5
3BC
  8
0
 10
6305.7832680433994028
 20
546.8880414163103296
 30
0.0
 11
5908.3542029461950733
 21
661.1918520426588657
 31
0.0
  0
LINE
  5
3BD
  8
0
 10
5908.3542029461950733
 20
661.1918520426588657
 30
0.0
 11
5908.3542029461950733
 21
929.805819347802867
 31
0.0
  0
LINE
  5
3BE
  8
0
 10
5908.3542029461950733
 20
929.805819347802867
 30
0.0
 11
6320.0792889456870398
 21
984.1001323445690332
 31
0.0
  0
LINE
  5
3BF
  8
0
 10
6320.0792889456870398
 20
984.1001323445690332
 30
0.0
 11
6305.7832680433994028
 21
546.8880414163103296
 31
0.0
  0
LINE
  5
3C0
  8
0
 10
5896.3894710431532076
 20
1411.7420798073490005
 30
0.0
 11
6293.8185361403557181
 21
1297.438269180999896
 31
0.0
  0
LINE
  5
3C1
  8
0
 10
6293.8185361403557181
 20
1297.438269180999896
 30
0.0
 11
6293.8185361403557181
 21
1028.8243018758560083
 31
0.0
  0
LINE
  5
3C2
  8
0
 10
6293.8185361403557181
 20
1028.8243018758560083
 30
0.0
 11
5882.0934501408673896
 21
974.5299888790905243
 31
0.0
  0
LINE
  5
3C3
  8
0
 10
5882.0934501408673896
 20
974.5299888790905243
 30
0.0
 11
5896.3894710431532076
 21
1411.7420798073490005
 31
0.0
  0
LINE
  5
3C4
  8
0
 10
6296.3591549311850031
 20
1321.2318929070079321
 30
0.0
 11
5898.9300898339815831
 21
1435.5357035333558997
 31
0.0
  0
LINE
  5
3C5
  8
0
 10
5898.9300898339815831
 20
1435.5357035333558997
 30
0.0
 11
5898.9300898339815831
 21
1704.1496708384991052
 31
0.0
  0
LINE
  5
3C6
  8
0
 10
5898.9300898339815831
 20
1704.1496708384991052
 30
0.0
 11
6310.6551758334708211
 21
1758.4439838352659535
 31
0.0
  0
LINE
  5
3C7
  8
0
 10
6310.6551758334708211
 20
1758.4439838352659535
 30
0.0
 11
6296.3591549311850031
 21
1321.2318929070079321
 31
0.0
  0
ARC
  5
3C8
  8
0
 10
4965.1324967176078644
 20
1627.1933871843380075
 30
0.0
 40
215.947109008751994
 50
15.0092997953106497
 51
69.2979352226968217
  0
LINE
  5
3C9
  8
0
 10
5173.7123118548915954
 20
1683.1184674840978914
 30
0.0
 11
5839.555618137563215
 21
1683.1184674840978914
 31
0.0
  0
LINE
  5
3CA
  8
0
 10
5839.555618137563215
 20
1683.1184674840978914
 30
0.0
 11
5839.555618137563215
 21
1782.8229117730029429
 31
0.0
  0
LINE
  5
3CB
  8
0
 10
5839.555618137563215
 20
1782.8229117730029429
 30
0.0
 11
5041.471647028121879
 21
1829.1970703663689619
 31
0.0
  0
LINE
  5
58C
  8
0
 10
6398.150053404388018
 20
59.2157823156255674
 30
0.0
 11
7119.0829536532528437
 21
59.2157823156248782
 31
0.0
  0
ARC
  5
58D
  8
0
 10
7275.241693794634557
 20
89.8388167754105922
 30
0.0
 40
159.1330335350538121
 50
102.0947822343075018
 51
191.0950209906091004
  0
LINE
  5
58E
  8
0
 10
7241.8986259702869575
 20
245.439466485267701
 30
0.0
 11
7141.8927541066314006
 21
435.8614199345847169
 31
0.0
  0
ARC
  5
58F
  8
0
 10
7053.1712406229971748
 20
604.4464788797351957
 30
0.0
 40
190.5057192169475968
 50
218.5083966477442061
 51
297.7565538555380726
  0
LINE
  5
590
  8
0
 10
6904.0972920821386651
 20
485.8320323700262975
 30
0.0
 11
6398.150053404388018
 21
485.8320323700247059
 31
0.0
  0
ARC
  5
591
  8
0
 10
7045.0087492748170916
 20
234.5567892824379044
 30
0.0
 40
693.9491481455391977
 50
158.7711112332262928
 51
183.4708180726090063
  0
LINE
  5
592
  8
0
 10
6352.3324688572320156
 20
192.5449961907791021
 30
0.0
 11
6398.150053404388018
 21
59.2157823156255674
 31
0.0
  0
LINE
  5
593
  8
0
 10
6398.1500534043898369
 20
502.2817024512568764
 30
0.0
 11
7119.0829536532528437
 21
502.2817024512560806
 31
0.0
  0
ARC
  5
594
  8
0
 10
7275.241693794634557
 20
532.9047369110419368
 30
0.0
 40
159.1330335350538121
 50
102.0947822343076012
 51
191.0950209906091004
  0
LINE
  5
595
  8
0
 10
7241.8986259702869575
 20
688.5053866208991167
 30
0.0
 11
7141.8927541066314006
 21
878.9273400702156778
 31
0.0
  0
ARC
  5
596
  8
0
 10
7053.1712406229971748
 20
1047.5123990153660998
 30
0.0
 40
190.5057192169475968
 50
218.5083966477442061
 51
297.7565538555375042
  0
LINE
  5
597
  8
0
 10
6904.0972920821395746
 20
928.8979525056574857
 30
0.0
 11
6398.1500534043898369
 21
928.8979525056561215
 31
0.0
  0
ARC
  5
598
  8
0
 10
7045.0087492748207296
 20
677.6227094180692347
 30
0.0
 40
693.9491481455391977
 50
158.7711112332262928
 51
183.4708180726090063
  0
LINE
  5
599
  8
0
 10
6352.3324688572329251
 20
635.6109163264103472
 30
0.0
 11
6398.1500534043898369
 21
502.2817024512568764
 31
0.0
  0
LINE
  5
59A
  8
0
 10
6398.1500534043898369
 20
962.5160971679395061
 30
0.0
 11
7043.1543787412047095
 21
962.5160971679395061
 31
0.0
  0
ARC
  5
59B
  8
0
 10
7170.1695677192328731
 20
1174.0332861741790111
 30
0.0
 40
246.7232852331241872
 50
197.6178730653066111
 51
239.0153592892305028
  0
LINE
  5
59C
  8
0
 10
6935.0185176880040672
 20
1099.3582358197579651
 30
0.0
 11
6399.0931899569959569
 21
1080.4347099507949679
 31
0.0
  0
LINE
  5
59D
  8
0
 10
6399.0931899569959569
 20
1080.4347099507949679
 30
0.0
 11
6398.1500534043898369
 21
962.5160971679395061
 31
0.0
  0
ARC
  5
59E
  8
0
 10
6389.6365451016126826
 20
1115.5093337055079701
 30
0.0
 40
81.9740741960120261
 50
352.7221570299303721
 51
45.8780194799888292
  0
LINE
  5
59F
  8
0
 10
6470.9501956585127118
 20
1105.1247743309520501
 30
0.0
 11
6989.6043194713793127
 21
1128.4900358818908899
 31
0.0
  0
LINE
  5
5A0
  8
0
 10
6989.6043194713793127
 20
1128.4900358818908899
 30
0.0
 11
6977.4821874918388858
 21
1205.5088680062440289
 31
0.0
  0
LINE
  5
5A1
  8
0
 10
6977.4821874918388858
 20
1205.5088680062440289
 30
0.0
 11
6446.7059316994300389
 21
1174.3551827829251124
 31
0.0
  0
LINE
  5
5A2
  8
0
 10
6451.1249655909614376
 20
1196.9415087245708946
 30
0.0
 11
6967.1814889924417002
 21
1234.152855752384994
 31
0.0
  0
ARC
  5
5A3
  8
0
 10
7004.7327983417881114
 20
1364.7293693379599517
 30
0.0
 40
135.8687849876278051
 50
175.2098938955211054
 51
253.9557762264070107
  0
LINE
  5
5A4
  8
0
 10
6869.3385630787170157
 20
1376.0751963921009065
 30
0.0
 11
6416.4902999863334117
 21
1254.9219792345959377
 31
0.0
  0
ARC
  5
5A5
  8
0
 10
6393.6969131517744245
 20
1201.9715837814349015
 30
0.0
 40
57.6479215760288994
 50
354.9942855832554756
 51
66.7097273391240435
  0
ARC
  5
5A6
  8
0
 10
6409.2980522434163504
 20
1476.7039008791950891
 30
0.0
 40
68.0531805676430395
 50
12.9844000250377292
 51
158.9066663783870013
  0
LINE
  5
5A7
  8
0
 10
6345.8047468500481045
 20
1501.1954413696751089
 30
0.0
 11
6345.8047468500481045
 21
1329.1375051546899613
 31
0.0
  0
LINE
  5
5A8
  8
0
 10
6475.6111998402693644
 20
1491.9944810241900086
 30
0.0
 11
6475.6111998402693644
 21
1329.1375051546899613
 31
0.0
  0
ARC
  5
5A9
  8
0
 10
6410.7079733451600987
 20
1258.0406360258250515
 30
0.0
 40
96.2662641292489241
 50
47.6075316336318792
 51
132.3924683663680923
  0
ARC
  5
5AA
  8
0
 10
7070.8325185075846093
 20
1584.0165623265891099
 30
0.0
 40
81.9740741960120261
 50
172.722157029920993
 51
225.8780194799566061
  0
LINE
  5
5AB
  8
0
 10
6989.5188679506891276
 20
1594.4011217011450299
 30
0.0
 11
6470.8647441378216172
 21
1571.0358601502059628
 31
0.0
  0
LINE
  5
5AC
  8
0
 10
6470.8647441378216172
 20
1571.0358601502059628
 30
0.0
 11
6482.9868761173629537
 21
1494.0170280258530511
 31
0.0
  0
LINE
  5
5AD
  8
0
 10
6482.9868761173629537
 20
1494.0170280258530511
 30
0.0
 11
7013.7631319097690721
 21
1525.1707132491710581
 31
0.0
  0
LINE
  5
5AE
  8
0
 10
7009.3440980182358544
 20
1502.584387307525958
 30
0.0
 11
6493.2875746167583202
 21
1465.373040279712086
 31
0.0
  0
ARC
  5
5AF
  8
0
 10
6455.7362652674109995
 20
1334.7965266941369009
 30
0.0
 40
135.8687849876278051
 50
355.2098938955281255
 51
73.9557762264069538
  0
LINE
  5
5B0
  8
0
 10
6591.1305005304820952
 20
1323.4506996399959462
 30
0.0
 11
7043.9787636228666088
 21
1444.603916797500915
 31
0.0
  0
ARC
  5
5B1
  8
0
 10
6261.628842469391202
 20
1627.1933871843380075
 30
0.0
 40
215.947109008751994
 50
15.0092997953020006
 51
69.2979352226963101
  0
LINE
  5
5B2
  8
0
 10
6470.2086576066722046
 20
1683.1184674840978914
 30
0.0
 11
7136.0519638893465526
 21
1683.1184674840978914
 31
0.0
  0
LINE
  5
5B3
  8
0
 10
7136.0519638893465526
 20
1683.1184674840978914
 30
0.0
 11
7136.0519638893465526
 21
1782.8229117730029429
 31
0.0
  0
LINE
  5
5B4
  8
0
 10
7136.0519638893465526
 20
1782.8229117730029429
 30
0.0
 11
6337.9679927799052166
 21
1829.1970703663689619
 31
0.0
  0
ARC
  5
5B5
  8
0
 10
7066.7721504573810307
 20
1497.5543122506810505
 30
0.0
 40
57.6479215760288994
 50
174.99428558324459
 51
246.7097273391790964
  0
VIEWPORT
  5
295
 67
     1
  8
0
 10
128.5
 20
97.5
 30
0.0
 40
448.3484477296727277
 41
222.1800000000000068
 68
     1
 69
     1
1001
ACAD
1000
MVIEW
1002
{
1070
    16
1010
0.0
1020
0.0
1030
0.0
1010
0.0
1020
0.0
1030
1.0
1040
0.0
1040
222.1800000000000068
1040
128.5
1040
97.5
1040
50.0
1040
0.0
1040
0.0
1070
     0
1070
  1000
1070
     1
1070
     1
1070
     0
1070
     0
1070
     0
1070
     0
1040
0.0
1040
0.0
1040
0.0
1040
10.0
1040
10.0
1040
10.0
1040
10.0
1070
     0
1002
{
1002
}
1002
}
  0
VIEWPORT
  5
299
 67
     1
  8
0
 10
128.5
 20
97.5
 30
0.0
 40
205.5999999999999943
 41
156.0
 68
     2
 69
     2
1001
ACAD
1000
MVIEW
1002
{
1070
    16
1010
-760.3754690064529314
1020
415.4407559275949211
1030
7.098547315027484
1010
0.0
1020
-76.3812648374894536
1030
4375.879731848692245
1040
0.0
1040
343.7783167208571058
1040
1076.3937986070450279
1040
-406.7374513959841806
1040
50.0
1040
0.0
1040
0.0
1070
     0
1070
  1000
1070
     1
1070
     3
1070
     0
1070
     0
1070
     0
1070
     0
1040
0.0
1040
0.0
1040
0.0
1040
10.0
1040
10.0
1040
10.0
1040
10.0
1070
     0
1002
{
1002
}
1002
}
  0
ENDSEC
  0
EOF
