  0
SECTION
  2
HEADER
  9
$ACADVER
  1
AC1009
  9
$INSBASE
 10
0.0
 20
0.0
 30
0.0
  9
$EXTMIN
 10
43.9278773254834434
 20
8.7652526155344663
 30
0.0
  9
$EXTMAX
 10
7241.8986259702887764
 20
3824.1456495769712092
 30
0.0
  9
$LIMMIN
 10
0.0
 20
0.0
  9
$LIMMAX
 10
420.0
 20
297.0
  9
$ORTHOMODE
 70
     0
  9
$REGENMODE
 70
     1
  9
$FILLMODE
 70
     1
  9
$QTEXTMODE
 70
     0
  9
$MIRRTEXT
 70
     0
  9
$DRAGMODE
 70
     2
  9
$LTSCALE
 40
1.0
  9
$OSMODE
 70
    37
  9
$ATTMODE
 70
     1
  9
$TEXTSIZE
 40
2.5
  9
$TRACEWID
 40
1.0
  9
$TEXTSTYLE
  7
STANDARD
  9
$CLAYER
  8
0
  9
$CELTYPE
  6
BYLAYER
  9
$CECOLOR
 62
   256
  9
$DIMSCALE
 40
1.0
  9
$DIMASZ
 40
2.5
  9
$DIMEXO
 40
0.625
  9
$DIMDLI
 40
3.75
  9
$DIMRND
 40
0.0
  9
$DIMDLE
 40
0.0
  9
$DIMEXE
 40
1.25
  9
$DIMTP
 40
0.0
  9
$DIMTM
 40
0.0
  9
$DIMTXT
 40
2.5
  9
$DIMCEN
 40
2.5
  9
$DIMTSZ
 40
0.0
  9
$DIMTOL
 70
     0
  9
$DIMLIM
 70
     0
  9
$DIMTIH
 70
     0
  9
$DIMTOH
 70
     0
  9
$DIMSE1
 70
     0
  9
$DIMSE2
 70
     0
  9
$DIMTAD
 70
     1
  9
$DIMZIN
 70
     8
  9
$DIMBLK
  1

  9
$DIMASO
 70
     1
  9
$DIMSHO
 70
     1
  9
$DIMPOST
  1

  9
$DIMAPOST
  1

  9
$DIMALT
 70
     0
  9
$DIMALTD
 70
     3
  9
$DIMALTF
 40
0.03937007874016
  9
$DIMLFAC
 40
1.0
  9
$DIMTOFL
 70
     1
  9
$DIMTVP
 40
0.0
  9
$DIMTIX
 70
     0
  9
$DIMSOXD
 70
     0
  9
$DIMSAH
 70
     0
  9
$DIMBLK1
  1

  9
$DIMBLK2
  1

  9
$DIMSTYLE
  2
ISO-25
  9
$DIMCLRD
 70
     0
  9
$DIMCLRE
 70
     0
  9
$DIMCLRT
 70
     0
  9
$DIMTFAC
 40
1.0
  9
$DIMGAP
 40
0.625
  9
$LUNITS
 70
     2
  9
$LUPREC
 70
     4
  9
$SKETCHINC
 40
1.0
  9
$FILLETRAD
 40
0.0
  9
$AUNITS
 70
     0
  9
$AUPREC
 70
     0
  9
$MENU
  1
.
  9
$ELEVATION
 40
0.0
  9
$PELEVATION
 40
0.0
  9
$THICKNESS
 40
0.0
  9
$LIMCHECK
 70
     0
  9
$BLIPMODE
 70
     0
  9
$CHAMFERA
 40
0.0
  9
$CHAMFERB
 40
0.0
  9
$SKPOLY
 70
     0
  9
$TDCREATE
 40
2459073.6031249999068677
  9
$TDUPDATE
 40
2459166.6234027780592442
  9
$TDINDWG
 40
0.0905439815
  9
$TDUSRTIMER
 40
0.0905208333
  9
$USRTIMER
 70
     1
  9
$ANGBASE
 50
0.0
  9
$ANGDIR
 70
     0
  9
$PDMODE
 70
     0
  9
$PDSIZE
 40
0.0
  9
$PLINEWID
 40
0.0
  9
$COORDS
 70
     1
  9
$SPLFRAME
 70
     0
  9
$SPLINETYPE
 70
     6
  9
$SPLINESEGS
 70
     8
  9
$ATTDIA
 70
     1
  9
$ATTREQ
 70
     1
  9
$HANDLING
 70
     1
  9
$HANDSEED
  5
944
  9
$SURFTAB1
 70
     6
  9
$SURFTAB2
 70
     6
  9
$SURFTYPE
 70
     6
  9
$SURFU
 70
     6
  9
$SURFV
 70
     6
  9
$UCSNAME
  2

  9
$UCSORG
 10
0.0
 20
0.0
 30
0.0
  9
$UCSXDIR
 10
1.0
 20
0.0
 30
0.0
  9
$UCSYDIR
 10
0.0
 20
1.0
 30
0.0
  9
$PUCSNAME
  2

  9
$PUCSORG
 10
0.0
 20
0.0
 30
0.0
  9
$PUCSXDIR
 10
1.0
 20
0.0
 30
0.0
  9
$PUCSYDIR
 10
0.0
 20
1.0
 30
0.0
  9
$USERI1
 70
     0
  9
$USERI2
 70
     0
  9
$USERI3
 70
     0
  9
$USERI4
 70
     0
  9
$USERI5
 70
     0
  9
$USERR1
 40
0.0
  9
$USERR2
 40
0.0
  9
$USERR3
 40
0.0
  9
$USERR4
 40
0.0
  9
$USERR5
 40
0.0
  9
$WORLDVIEW
 70
     1
  9
$SHADEDGE
 70
     3
  9
$SHADEDIF
 70
    70
  9
$TILEMODE
 70
     1
  9
$MAXACTVP
 70
    64
  9
$PLIMCHECK
 70
     0
  9
$PEXTMIN
 10
25.6999999999999886
 20
19.5
 30
0.0
  9
$PEXTMAX
 10
231.3000000000000114
 20
175.5
 30
0.0
  9
$PLIMMIN
 10
-20.0
 20
-7.5
  9
$PLIMMAX
 10
277.0
 20
202.5
  9
$UNITMODE
 70
     0
  9
$VISRETAIN
 70
     1
  9
$PLINEGEN
 70
     0
  9
$PSLTSCALE
 70
     1
  0
ENDSEC
  0
SECTION
  2
TABLES
  0
TABLE
  2
VPORT
 70
     1
  0
VPORT
  2
*ACTIVE
 70
     0
 10
0.0
 20
0.0
 11
1.0
 21
1.0
 12
4503.0918045259568316
 22
866.6874151610795707
 13
0.0
 23
0.0
 14
10.0
 24
10.0
 15
10.0
 25
10.0
 16
-0.0000000000012506
 26
0.0
 36
5666.0878699665354361
 17
790.3638553619382492
 27
698.6760835647576187
 37
0.0
 40
5403.4399551878532293
 41
2.5410052910052912
 42
50.0
 43
0.0
 44
0.0
 50
0.0
 51
0.0
 71
     0
 72
  1000
 73
     1
 74
     3
 75
     0
 76
     0
 77
     0
 78
     0
  0
ENDTAB
  0
TABLE
  2
LTYPE
 70
     1
  0
LTYPE
  2
CONTINUOUS
 70
     0
  3
Solid line
 72
    65
 73
     0
 40
0.0
  0
ENDTAB
  0
TABLE
  2
LAYER
 70
     1
  0
LAYER
  2
0
 70
     0
 62
     7
  6
CONTINUOUS
  0
ENDTAB
  0
TABLE
  2
STYLE
 70
     2
  0
STYLE
  2
STANDARD
 70
     0
 40
0.0
 41
1.0
 50
0.0
 71
     0
 42
2.5
  3
txt
  4

  0
STYLE
  2
ANNOTATIVE
 70
     0
 40
0.0
 41
1.0
 50
0.0
 71
     0
 42
2.5
  3
txt
  4

  0
ENDTAB
  0
TABLE
  2
VIEW
 70
     0
  0
ENDTAB
  0
TABLE
  2
UCS
 70
     0
  0
ENDTAB
  0
TABLE
  2
APPID
 70
     9
  0
APPID
  2
ACAD
 70
     0
  0
APPID
  2
ACADANNOTATIVE
 70
     0
  0
APPID
  2
ACAD_PSEXT
 70
     0
  0
APPID
  2
ACADANNOPO
 70
     0
  0
APPID
  2
ACAD_DSTYLE_DIMJAG
 70
     0
  0
APPID
  2
ACAD_DSTYLE_DIMTALN
 70
     0
  0
APPID
  2
ACAD_MLEADERVER
 70
     0
  0
APPID
  2
ACAD_NAV_VCDISPLAY
 70
     0
  0
APPID
  2
ACAD_EXEMPT_FROM_CAD_STANDARDS
 70
     0
  0
ENDTAB
  0
TABLE
  2
DIMSTYLE
 70
     3
  0
DIMSTYLE
  2
STANDARD
 70
     0
  3

  4

  5

  6

  7

 40
1.0
 41
0.18
 42
0.0625
 43
0.38
 44
0.18
 45
0.0
 46
0.0
 47
0.0
 48
0.0
140
0.18
141
0.09
142
0.0
143
25.3999999999999986
144
1.0
145
0.0
146
1.0
147
0.09
 71
     0
 72
     0
 73
     1
 74
     1
 75
     0
 76
     0
 77
     0
 78
     0
170
     0
171
     2
172
     0
173
     0
174
     0
175
     0
176
     0
177
     0
178
     0
  0
DIMSTYLE
  2
ANNOTATIVE
 70
     0
  3

  4

  5

  6

  7

 40
0.0
 41
2.5
 42
0.625
 43
3.75
 44
1.25
 45
0.0
 46
0.0
 47
0.0
 48
0.0
140
2.5
141
2.5
142
0.0
143
0.03937007874016
144
1.0
145
0.0
146
1.0
147
0.625
 71
     0
 72
     0
 73
     0
 74
     0
 75
     0
 76
     0
 77
     1
 78
     8
170
     0
171
     3
172
     1
173
     0
174
     0
175
     0
176
     0
177
     0
178
     0
  0
DIMSTYLE
  2
ISO-25
 70
     0
  3

  4

  5

  6

  7

 40
1.0
 41
2.5
 42
0.625
 43
3.75
 44
1.25
 45
0.0
 46
0.0
 47
0.0
 48
0.0
140
2.5
141
2.5
142
0.0
143
0.03937007874016
144
1.0
145
0.0
146
1.0
147
0.625
 71
     0
 72
     0
 73
     0
 74
     0
 75
     0
 76
     0
 77
     1
 78
     8
170
     0
171
     3
172
     1
173
     0
174
     0
175
     0
176
     0
177
     0
178
     0
  0
ENDTAB
  0
ENDSEC
  0
SECTION
  2
BLOCKS
  0
BLOCK
  8
0
  2
$MODEL_SPACE
 70
     0
 10
0.0
 20
0.0
 30
0.0
  3
$MODEL_SPACE
  1

  0
ENDBLK
  5
7A5
  8
0
  0
BLOCK
 67
     1
  8
0
  2
$PAPER_SPACE
 70
     0
 10
0.0
 20
0.0
 30
0.0
  3
$PAPER_SPACE
  1

  0
ENDBLK
  5
7A1
 67
     1
  8
0
  0
ENDSEC
  0
SECTION
  2
ENTITIES
  0
LINE
  5
288
  8
0
 10
91.0183296005925655
 20
8.7652526155352462
 30
0.0
 11
811.9512298494576044
 21
8.7652526155344663
 31
0.0
  0
ARC
  5
2A3
  8
0
 10
968.1099699908385219
 20
39.388287075320342
 30
0.0
 40
159.1330335350538121
 50
102.0947822343075018
 51
191.0950209906175985
  0
LINE
  5
2A4
  8
0
 10
934.7669021664927413
 20
194.9889367851774011
 30
0.0
 11
834.7610303028334329
 21
385.4108902344943886
 31
0.0
  0
ARC
  5
2A5
  8
0
 10
746.0395168191997755
 20
553.9959491796447537
 30
0.0
 40
190.5057192169475968
 50
218.5083966477455988
 51
297.756553855530683
  0
LINE
  5
2A6
  8
0
 10
596.9655682783430848
 20
435.381502669936026
 30
0.0
 11
91.0183296005925939
 21
435.3815026699343775
 31
0.0
  0
LINE
  5
2A8
  8
0
 10
614.4212031633207971
 20
552.3084845431252461
 30
0.0
 11
614.4212031633207971
 21
422.9134853030087129
 31
0.0
  0
LINE
  5
2A9
  8
0
 10
614.4212031633207971
 20
422.9134853030087129
 30
0.0
 11
811.312732679729038
 21
422.9134853030087129
 31
0.0
  0
LINE
  5
2AA
  8
0
 10
811.312732679729038
 20
422.9134853030087129
 30
0.0
 11
811.312732679729038
 21
552.3084845431257008
 31
0.0
  0
LINE
  5
2AB
  8
0
 10
811.312732679729038
 20
552.3084845431257008
 30
0.0
 11
614.4212031633207971
 21
552.3084845431252461
 31
0.0
  0
ARC
  5
2AC
  8
0
 10
737.8770254710226482
 20
184.1062595823476045
 30
0.0
 40
693.9491481455391977
 50
158.7711112332299876
 51
183.4708180726100863
  0
LINE
  5
2AD
  8
0
 10
45.2007450534362079
 20
142.0944664906886032
 30
0.0
 11
91.0183296005925655
 21
8.7652526155352462
 31
0.0
  0
LINE
  5
2AE
  8
0
 10
52.4043365035317592
 20
539.6960656533068459
 30
0.0
 11
530.3452524568051558
 21
539.6960656533068459
 31
0.0
  0
ARC
  5
2AF
  8
0
 10
633.244630286528718
 20
536.7301980810988198
 30
0.0
 40
102.9421115394475947
 50
103.9486470498081019
 51
178.3490215027634918
  0
ARC
  5
2B0
  8
0
 10
691.7358879490301433
 20
363.4090862684166723
 30
0.0
 40
285.6452386647462731
 50
63.0672809675397019
 51
106.9561862931381029
  0
LINE
  5
2B1
  8
0
 10
821.1171565986145424
 20
618.0729621803019427
 30
0.0
 11
866.9127702154640929
 21
810.6033118881261998
 31
0.0
  0
ARC
  5
2B2
  8
0
 10
876.6833298723380494
 20
891.3586097183888342
 30
0.0
 40
81.3442189935026505
 50
172.9335969517034926
 51
263.1013322066535807
  0
LINE
  5
2B3
  8
0
 10
795.9569816860963556
 20
901.3655409251356332
 30
0.0
 11
795.9569816860963556
 21
964.1414757791626471
 31
0.0
  0
LINE
  5
2B4
  8
0
 10
52.4043365035317592
 20
1388.5868859050181072
 30
0.0
 11
530.3452524568051558
 21
1388.5868859050181072
 31
0.0
  0
ARC
  5
2B5
  8
0
 10
633.244630286528718
 20
1391.552753477225906
 30
0.0
 40
102.9421115394475947
 50
181.6509784972305965
 51
256.0513529501903918
  0
ARC
  5
2B6
  8
0
 10
691.7358879490301433
 20
1564.8738652899089629
 30
0.0
 40
285.6452386647462731
 50
253.0438137068605045
 51
296.9327190324578964
  0
LINE
  5
2B7
  8
0
 10
821.1171565986145424
 20
1310.2099893780230104
 30
0.0
 11
866.9127702154640929
 21
1117.6796396701990943
 31
0.0
  0
ARC
  5
2B8
  8
0
 10
876.6833298723380494
 20
1036.9243418399360053
 30
0.0
 40
81.3442189935026505
 50
96.8986677933469309
 51
187.0664030482938074
  0
LINE
  5
2B9
  8
0
 10
795.9569816860963556
 20
1026.9174106331890926
 30
0.0
 11
795.9569816860963556
 21
964.1414757791626471
 31
0.0
  0
LINE
  5
2BA
  8
0
 10
52.4043365035317592
 20
1388.5868859050181072
 30
0.0
 11
52.4043365035316384
 21
539.6960656533068459
 31
0.0
  0
LINE
  5
2BB
  8
0
 10
891.7800047033299506
 20
23.9070793732537901
 30
0.0
 11
1536.784330040147097
 21
23.9070793732537901
 31
0.0
  0
ARC
  5
2BD
  8
0
 10
1663.7995190181750331
 20
235.4242683794934976
 30
0.0
 40
246.7232852331241872
 50
197.617873065301012
 51
239.0153592892314975
  0
LINE
  5
2BE
  8
0
 10
1428.6484689869450904
 20
160.7492180250725937
 30
0.0
 11
892.7231412559369801
 21
141.8256921561091985
 31
0.0
  0
LINE
  5
2BF
  8
0
 10
892.7231412559369801
 20
141.8256921561091985
 30
0.0
 11
891.7800047033299506
 21
23.9070793732537901
 31
0.0
  0
ARC
  5
2C0
  8
0
 10
883.26649640055291
 20
176.9003159108223997
 30
0.0
 40
81.9740741960120261
 50
352.7221570299304858
 51
45.8780194799803596
  0
LINE
  5
2C1
  8
0
 10
964.5801469574524845
 20
166.5157565362659966
 30
0.0
 11
1483.2342707703169253
 21
189.8810180872050921
 31
0.0
  0
LINE
  5
2C2
  8
0
 10
1483.2342707703169253
 20
189.8810180872050921
 30
0.0
 11
1471.1121387907769531
 21
266.8998502115583733
 31
0.0
  0
LINE
  5
2C3
  8
0
 10
1471.1121387907769531
 20
266.8998502115583733
 30
0.0
 11
940.3358829983700389
 21
235.7461649882397978
 31
0.0
  0
LINE
  5
2C4
  8
0
 10
944.7549168899023471
 20
258.3324909298854095
 30
0.0
 11
1460.8114402913809045
 21
295.5438379576989973
 31
0.0
  0
ARC
  5
2C5
  8
0
 10
1498.3627496407279978
 20
426.1203515432741256
 30
0.0
 40
135.8687849876278051
 50
175.2098938955244876
 51
253.955776226417612
  0
LINE
  5
2C6
  8
0
 10
1362.9685143776569021
 20
437.4661785974149097
 30
0.0
 11
910.1202512852723885
 21
316.3129614399103957
 31
0.0
  0
ARC
  5
2C7
  8
0
 10
887.3268644507128329
 20
263.3625659867497006
 30
0.0
 40
57.6479215760288994
 50
354.9942855832525197
 51
66.7097273391206187
  0
LINE
  5
2C8
  8
0
 10
953.3299543069279025
 20
395.9769712742898946
 30
0.0
 11
1433.630179049014032
 21
518.0656145014936556
 31
0.0
  0
LINE
  5
2C9
  8
0
 10
1433.630179049014032
 20
518.0656145014936556
 30
0.0
 11
1433.630179049014032
 21
733.1081192164328968
 31
0.0
  0
LINE
  5
2CA
  8
0
 10
1433.630179049014032
 20
733.1081192164328968
 30
0.0
 11
926.9550785835726856
 21
819.1251173159288328
 31
0.0
  0
ARC
  5
2CB
  8
0
 10
803.6956306588126608
 20
711.6395065429284159
 30
0.0
 40
163.5421903545430098
 50
311.3241009668627726
 51
41.0893186183260823
  0
ARC
  5
2CC
  8
0
 10
1023.0862919992539446
 20
511.9595867322207141
 30
0.0
 40
135.3436874653122004
 50
145.3959443642407905
 51
238.9757053294941045
  0
LINE
  5
2CD
  8
0
 10
842.7987471943215496
 20
1076.4798632489701049
 30
0.0
 11
842.7987471943215496
 21
851.9036234466827864
 31
0.0
  0
LINE
  5
2CE
  8
0
 10
842.7987471943215496
 20
851.9036234466827864
 30
0.0
 11
938.0233901013233435
 21
851.9036234466827864
 31
0.0
  0
LINE
  5
2CF
  8
0
 10
938.0233901013233435
 20
851.9036234466827864
 30
0.0
 11
938.0233901013235709
 21
1076.4798632489701049
 31
0.0
  0
LINE
  5
2D0
  8
0
 10
938.0233901013235709
 20
1076.4798632489701049
 30
0.0
 11
842.7987471943215496
 21
1076.4798632489701049
 31
0.0
  0
LINE
  5
2D1
  8
0
 10
91.0183296005926366
 20
1424.3889490078049676
 30
0.0
 11
811.9512298494576044
 21
1424.3889490078040581
 31
0.0
  0
ARC
  5
2D2
  8
0
 10
968.1099699908385219
 20
1455.011983467589971
 30
0.0
 40
159.1330335350538121
 50
102.0947822343062938
 51
191.0950209906135058
  0
LINE
  5
2D3
  8
0
 10
934.7669021664927413
 20
1610.6126331774469236
 30
0.0
 11
834.7610303028334329
 21
1801.0345866267639394
 31
0.0
  0
ARC
  5
2D4
  8
0
 10
746.0395168191998891
 20
1969.6196455719150435
 30
0.0
 40
190.5057192169475968
 50
218.5083966477444051
 51
297.7565538555332978
  0
LINE
  5
2D5
  8
0
 10
596.9655682783430848
 20
1851.0051990622050653
 30
0.0
 11
91.0183296005926366
 21
1851.0051990622039284
 31
0.0
  0
ARC
  5
2D6
  8
0
 10
737.8770254710229892
 20
1599.7299559746170416
 30
0.0
 40
693.9491481455391977
 50
158.771111233233313
 51
183.4708180726076137
  0
LINE
  5
2D7
  8
0
 10
45.2007450534362789
 20
1557.7181628829580404
 30
0.0
 11
91.0183296005926366
 21
1424.3889490078049676
 31
0.0
  0
LINE
  5
2D8
  8
0
 10
976.7273317863291595
 20
1307.8302756190760192
 30
0.0
 11
1457.0275565284150616
 21
1185.7416323918719172
 31
0.0
  0
LINE
  5
2D9
  8
0
 10
1457.0275565284150616
 20
1185.7416323918719172
 30
0.0
 11
1457.0275565284150616
 21
970.6991276769331307
 31
0.0
  0
LINE
  5
2DA
  8
0
 10
1457.0275565284150616
 20
970.6991276769331307
 30
0.0
 11
950.3524560629740563
 21
884.6821295774369673
 31
0.0
  0
ARC
  5
2DB
  8
0
 10
840.0420760626276433
 20
993.026293375815726
 30
0.0
 40
154.618361668305397
 50
315.5152092960851178
 51
52.0713711187263328
  0
ARC
  5
2DC
  8
0
 10
1044.6184755516369478
 20
1192.2504463624229629
 30
0.0
 40
134.0444117923557883
 50
120.4298110608296071
 51
215.1985392454353132
  0
LINE
  5
2E1
  8
0
 10
1055.086575258620087
 20
816.604216592833609
 30
0.0
 11
1567.0195450298629112
 21
741.6131894359676835
 31
0.0
  0
ARC
  5
2E2
  8
0
 10
1631.8552741992280062
 20
861.014424593276658
 30
0.0
 40
135.8687849876278051
 50
162.7518392422988995
 51
241.4977215731948093
  0
LINE
  5
2E3
  8
0
 10
1502.0965814072669673
 20
901.3010027420349388
 30
0.0
 11
1033.7752374976710144
 21
880.6910475719602118
 31
0.0
  0
ARC
  5
2E4
  8
0
 10
1000.095824458190009
 20
833.9045110539409507
 30
0.0
 40
57.6479215760288994
 50
342.5362309300301149
 51
54.2516726858991589
  0
ARC
  5
2E5
  8
0
 10
814.3720565791711579
 20
1627.1933871843380075
 30
0.0
 40
215.947109008751994
 50
15.0092997953059406
 51
69.2979352227008718
  0
LINE
  5
2E6
  8
0
 10
1022.9518717164539794
 20
1683.1184674840978914
 30
0.0
 11
1688.7951779991290095
 21
1683.1184674840978914
 31
0.0
  0
LINE
  5
2E7
  8
0
 10
1688.7951779991290095
 20
1683.1184674840978914
 30
0.0
 11
1688.7951779991290095
 21
1782.8229117730029429
 31
0.0
  0
LINE
  5
2E8
  8
0
 10
1688.7951779991290095
 20
1782.8229117730029429
 30
0.0
 11
890.7112068896839219
 21
1829.1970703663689619
 31
0.0
  0
ARC
  5
2E9
  8
0
 10
948.850430630578785
 20
1476.7039008791950891
 30
0.0
 40
68.0531805676430395
 50
12.9844000250323699
 51
158.9066663783843012
  0
LINE
  5
2EA
  8
0
 10
885.3571252372113349
 20
1501.1954413696751089
 30
0.0
 11
885.3571252372113349
 21
1329.1375051546899613
 31
0.0
  0
LINE
  5
2EB
  8
0
 10
1015.1635782274289568
 20
1491.9944810241900086
 30
0.0
 11
1015.1635782274289568
 21
1329.1375051546899613
 31
0.0
  0
ARC
  5
2EC
  8
0
 10
950.2603517323199185
 20
1258.0406360258250515
 30
0.0
 40
96.2662641292489241
 50
47.6075316336431129
 51
132.3924683663568942
  0
LINE
  5
2ED
  8
0
 10
1529.9267912479031111
 20
1204.7426214545450875
 30
0.0
 11
1049.6265665058160721
 21
1326.8312646817480527
 31
0.0
  0
LINE
  5
2EE
  8
0
 10
1049.6265665058160721
 20
1326.8312646817480527
 30
0.0
 11
1049.6265665058160721
 21
1541.8737693966870665
 31
0.0
  0
LINE
  5
2EF
  8
0
 10
1049.6265665058160721
 20
1541.8737693966870665
 30
0.0
 11
1556.3016669712581006
 21
1627.8907674961840257
 31
0.0
  0
ARC
  5
2F0
  8
0
 10
1728.3049469087659418
 20
1523.636985043742925
 30
0.0
 40
201.1317465367012005
 50
148.7793144491496093
 51
218.8072659656536985
  0
ARC
  5
2F1
  8
0
 10
1343.4523233435170368
 20
1345.9303652412170322
 30
0.0
 40
233.8946475996962135
 50
322.8690887592421745
 51
12.7592615470079291
  0
LINE
  5
2F2
  8
0
 10
1580.2392864114549411
 20
262.4341859177691276
 30
0.0
 11
2058.1802023647292117
 21
262.4341859177691276
 31
0.0
  0
ARC
  5
2F3
  8
0
 10
2161.0795801944518644
 20
259.4683183455612721
 30
0.0
 40
102.9421115394475947
 50
103.9486470498113988
 51
178.3490215027628096
  0
ARC
  5
2F4
  8
0
 10
2219.5708378569538581
 20
86.1472065328788545
 30
0.0
 40
285.6452386647462731
 50
63.0672809675414285
 51
106.9561862931413998
  0
LINE
  5
2F5
  8
0
 10
2348.952106506536893
 20
340.8110824447641107
 30
0.0
 11
2394.7477201233878077
 21
533.3414321525884816
 31
0.0
  0
ARC
  5
2F6
  8
0
 10
2404.5182797802631285
 20
614.0967299828511159
 30
0.0
 40
81.3442189935026505
 50
172.9335969517024125
 51
263.1013322066531259
  0
LINE
  5
2F7
  8
0
 10
2323.791931594019843
 20
624.1036611895981423
 30
0.0
 11
2323.791931594019843
 21
686.8795960436248151
 31
0.0
  0
LINE
  5
2F8
  8
0
 10
1580.2392864114549411
 20
1111.3250061694809574
 30
0.0
 11
2058.1802023647292117
 21
1111.3250061694809574
 31
0.0
  0
ARC
  5
2F9
  8
0
 10
2161.0795801944518644
 20
1114.290873741688074
 30
0.0
 40
102.9421115394475947
 50
181.6509784972305965
 51
256.0513529501885159
  0
ARC
  5
2FA
  8
0
 10
2219.5708378569538581
 20
1287.6119855543699941
 30
0.0
 40
285.6452386647462731
 50
253.0438137068576054
 51
296.9327190324571006
  0
LINE
  5
2FB
  8
0
 10
2348.952106506536893
 20
1032.948109642486088
 30
0.0
 11
2394.7477201233878077
 21
840.4177599346611487
 31
0.0
  0
ARC
  5
2FC
  8
0
 10
2404.5182797802631285
 20
759.6624621043987418
 30
0.0
 40
81.3442189935026505
 50
96.8986677933469309
 51
187.0664030482942053
  0
LINE
  5
2FD
  8
0
 10
2323.791931594019843
 20
749.6555308976517153
 30
0.0
 11
2323.791931594019843
 21
686.8795960436248151
 31
0.0
  0
LINE
  5
2FE
  8
0
 10
1580.2392864114549411
 20
1111.3250061694809574
 30
0.0
 11
1580.2392864114549411
 21
262.4341859177691276
 31
0.0
  0
LINE
  5
2FF
  8
0
 10
1458.50076424150393
 20
625.815707474460396
 30
0.0
 11
1458.50076424150393
 21
401.2394676721733049
 31
0.0
  0
LINE
  5
300
  8
0
 10
1458.50076424150393
 20
401.2394676721733049
 30
0.0
 11
1553.7254071485060649
 21
401.2394676721733049
 31
0.0
  0
LINE
  5
301
  8
0
 10
1553.7254071485060649
 20
401.2394676721733049
 30
0.0
 11
1553.7254071485060649
 21
625.815707474460396
 31
0.0
  0
LINE
  5
302
  8
0
 10
1553.7254071485060649
 20
625.815707474460396
 30
0.0
 11
1458.50076424150393
 21
625.815707474460396
 31
0.0
  0
LINE
  5
303
  8
0
 10
1561.1300996272400425
 20
23.9070793732537901
 30
0.0
 11
2206.1344249640569615
 21
23.9070793732537901
 31
0.0
  0
ARC
  5
304
  8
0
 10
2333.1496139420842155
 20
235.4242683794934976
 30
0.0
 40
246.7232852331241872
 50
197.6178730653005005
 51
239.015359289230588
  0
LINE
  5
305
  8
0
 10
2097.9985639108540454
 20
160.7492180250725937
 30
0.0
 11
1562.073236179847072
 21
141.8256921561091985
 31
0.0
  0
LINE
  5
306
  8
0
 10
1562.073236179847072
 20
141.8256921561091985
 30
0.0
 11
1561.1300996272400425
 21
23.9070793732537901
 31
0.0
  0
LINE
  5
307
  8
0
 10
2132.9087764643318224
 20
273.9387923512585985
 30
0.0
 11
2132.9087764643318224
 21
108.9200680626326943
 31
0.0
  0
LINE
  5
308
  8
0
 10
2132.9087764643318224
 20
108.9200680626326943
 30
0.0
 11
2197.2280731898349586
 21
108.9200680626326943
 31
0.0
  0
LINE
  5
309
  8
0
 10
2132.9087764643318224
 20
273.9387923512585985
 30
0.0
 11
2195.6440476202551508
 21
273.9387923512585985
 31
0.0
  0
ARC
  5
30A
  8
0
 10
2249.7329390759241505
 20
240.9366754970421027
 30
0.0
 40
63.3620382860467686
 50
148.6107157306406066
 51
233.077494154697888
  0
ARC
  5
30B
  8
0
 10
2254.8350020849748034
 20
140.6578248235686033
 30
0.0
 40
65.7711445920317743
 50
131.0185392773483954
 51
208.8519709223517111
  0
LINE
  5
30C
  8
0
 10
2248.2755665098670761
 20
280.7591647008276254
 30
0.0
 11
2248.2755665098670761
 21
56.1829248985404774
 31
0.0
  0
LINE
  5
30D
  8
0
 10
2248.2755665098670761
 20
56.1829248985404774
 30
0.0
 11
2343.5002094168680742
 21
56.1829248985404774
 31
0.0
  0
LINE
  5
30E
  8
0
 10
2343.5002094168680742
 20
56.1829248985404774
 30
0.0
 11
2343.5002094168680742
 21
280.7591647008276254
 31
0.0
  0
LINE
  5
30F
  8
0
 10
2343.5002094168680742
 20
280.7591647008276254
 30
0.0
 11
2248.2755665098670761
 21
280.7591647008276254
 31
0.0
  0
LINE
  5
310
  8
0
 10
1632.2176536543349812
 20
1124.8668290943539887
 30
0.0
 11
2353.1505539032000343
 21
1124.8668290943530792
 31
0.0
  0
ARC
  5
311
  8
0
 10
2509.3092940445822023
 20
1155.4898635541389922
 30
0.0
 40
159.1330335350538121
 50
102.0947822343077007
 51
191.0950209906137047
  0
LINE
  5
312
  8
0
 10
2475.966226220235967
 20
1311.0905132639959447
 30
0.0
 11
2375.960354356577227
 21
1501.5124667133129606
 31
0.0
  0
ARC
  5
313
  8
0
 10
2287.2388408729430012
 20
1670.0975256584640647
 30
0.0
 40
190.5057192169475968
 50
218.5083966477440072
 51
297.7565538555376179
  0
LINE
  5
314
  8
0
 10
2138.16489233208722
 20
1551.4830791487549959
 30
0.0
 11
1632.2176536543349812
 21
1551.4830791487529495
 31
0.0
  0
ARC
  5
315
  8
0
 10
2279.0763495247661012
 20
1300.2078360611660628
 30
0.0
 40
693.9491481455391977
 50
158.771111233234592
 51
183.4708180726076137
  0
LINE
  5
316
  8
0
 10
1586.4000691071789788
 20
1258.1960429695079711
 30
0.0
 11
1632.2176536543349812
 21
1124.8668290943539887
 31
0.0
  0
ARC
  5
317
  8
0
 10
1670.7871805803570169
 20
1574.5004684687401095
 30
0.0
 40
81.9740741960120261
 50
352.7221570299356017
 51
45.8780194799799901
  0
LINE
  5
318
  8
0
 10
1752.1008311372570461
 20
1564.1159090941839622
 30
0.0
 11
2270.7549549501209185
 21
1587.4811706451230293
 31
0.0
  0
LINE
  5
319
  8
0
 10
2270.7549549501209185
 20
1587.4811706451230293
 30
0.0
 11
2258.6328229705800368
 21
1664.5000027694750315
 31
0.0
  0
LINE
  5
31A
  8
0
 10
2258.6328229705800368
 20
1664.5000027694750315
 30
0.0
 11
1727.8565671781739184
 21
1633.3463175461570245
 31
0.0
  0
LINE
  5
31B
  8
0
 10
1732.2756010697059992
 20
1655.9326434878030341
 30
0.0
 11
2248.3321244711860345
 21
1693.1439905156169061
 31
0.0
  0
ARC
  5
31C
  8
0
 10
2285.8834338205319909
 20
1823.7205041011920912
 30
0.0
 40
135.8687849876278051
 50
175.209893895528694
 51
253.955776226418692
  0
LINE
  5
31D
  8
0
 10
2150.4891985574608952
 20
1835.0663311553309995
 30
0.0
 11
1697.6409354650770638
 21
1713.9131139978280771
 31
0.0
  0
ARC
  5
31E
  8
0
 10
1674.8475486305160302
 20
1660.962718544667041
 30
0.0
 40
57.6479215760288994
 50
354.9942855832532018
 51
66.7097273391214998
  0
LINE
  5
31F
  8
0
 10
2402.354723605531035
 20
1230.5312304401470556
 30
0.0
 11
2402.354723605531035
 21
1065.5125061515200287
 31
0.0
  0
LINE
  5
320
  8
0
 10
2402.354723605531035
 20
1065.5125061515200287
 30
0.0
 11
2466.6740203310350807
 21
1065.5125061515200287
 31
0.0
  0
LINE
  5
321
  8
0
 10
2402.354723605531035
 20
1230.5312304401470556
 30
0.0
 11
2465.0899947614529992
 21
1230.5312304401470556
 31
0.0
  0
ARC
  5
322
  8
0
 10
2519.1788862171229084
 20
1197.5291135859299629
 30
0.0
 40
63.3620382860467686
 50
148.6107157306396118
 51
233.0774941546985133
  0
ARC
  5
323
  8
0
 10
2524.2809492261740161
 20
1097.2502629124569467
 30
0.0
 40
65.7711445920317743
 50
131.0185392773464059
 51
208.8519709223502048
  0
CIRCLE
  5
329
  8
0
 10
2368.3272502900249492
 20
1723.7543519788960111
 30
0.0
 40
93.9125106675287213
  0
LINE
  5
32A
  8
0
 10
2466.3838491197820986
 20
59.2157823156255674
 30
0.0
 11
2944.3247650730550049
 21
59.2157823156255674
 31
0.0
  0
ARC
  5
32B
  8
0
 10
3047.2241429027790218
 20
56.2499147434177686
 30
0.0
 40
102.9421115394475947
 50
103.9486470497986943
 51
178.3490215027632075
  0
ARC
  5
32C
  8
0
 10
3105.7154005652801061
 20
-117.0711970692645991
 30
0.0
 40
285.6452386647462731
 50
63.0672809675414285
 51
106.9561862931288942
  0
LINE
  5
32D
  8
0
 10
3235.0966692148640504
 20
137.5926788426203871
 30
0.0
 11
3280.8922828317149651
 21
330.123028550445099
 31
0.0
  0
ARC
  5
32E
  8
0
 10
3290.6628424885889217
 20
410.8783263807072217
 30
0.0
 40
81.3442189935026505
 50
172.9335969517040041
 51
263.1013322066659725
  0
LINE
  5
32F
  8
0
 10
3209.9364943023470005
 20
420.8852575874543049
 30
0.0
 11
3209.9364943023470005
 21
483.6611924414813188
 31
0.0
  0
LINE
  5
330
  8
0
 10
2466.3838491197820986
 20
908.1066025673371769
 30
0.0
 11
2944.3247650730550049
 21
908.1066025673371769
 31
0.0
  0
ARC
  5
331
  8
0
 10
3047.2241429027790218
 20
911.0724701395447482
 30
0.0
 40
102.9421115394475947
 50
181.6509784972301134
 51
256.0513529502013057
  0
ARC
  5
332
  8
0
 10
3105.7154005652801061
 20
1084.3935819522268957
 30
0.0
 40
285.6452386647462731
 50
253.043813706870111
 51
296.9327190324571006
  0
LINE
  5
333
  8
0
 10
3235.0966692148640504
 20
829.7297060403423075
 30
0.0
 11
3280.8922828317149651
 21
637.1993563325175955
 31
0.0
  0
ARC
  5
334
  8
0
 10
3290.6628424885889217
 20
556.4440585022553023
 30
0.0
 40
81.3442189935026505
 50
96.8986677933598628
 51
187.0664030482926137
  0
LINE
  5
335
  8
0
 10
3209.9364943023470005
 20
546.4371272955077075
 30
0.0
 11
3209.9364943023470005
 21
483.6611924414813188
 31
0.0
  0
LINE
  5
336
  8
0
 10
2466.3838491197820986
 20
908.1066025673371769
 30
0.0
 11
2466.3838491197820986
 21
59.2157823156255674
 31
0.0
  0
LINE
  5
337
  8
0
 10
3299.0121064218838001
 20
917.923509380909536
 30
0.0
 11
2821.0711904686099842
 21
917.9235093809159025
 31
0.0
  0
ARC
  5
338
  8
0
 10
2718.1718126388877863
 20
914.9576418087096954
 30
0.0
 40
102.9421115394475947
 50
1.6509784972306261
 51
76.0513529502281216
  0
ARC
  5
339
  8
0
 10
2659.6805549763821546
 20
741.6365299960281163
 30
0.0
 40
285.6452386647462731
 50
73.0438137068978506
 51
116.9327190324352017
  0
LINE
  5
33A
  8
0
 10
2530.2992863268018482
 20
996.300405907915092
 30
0.0
 11
2484.5036727099550262
 21
1188.8307556157399176
 31
0.0
  0
ARC
  5
33B
  8
0
 10
2474.7331130530819792
 20
1269.5860534460030067
 30
0.0
 40
81.3442189935026505
 50
276.8986677933601754
 51
7.0664030482935027
  0
LINE
  5
33C
  8
0
 10
2555.4594612393248099
 20
1279.5929846527481004
 30
0.0
 11
2555.4594612393248099
 21
1342.3689195067759101
 31
0.0
  0
LINE
  5
33D
  8
0
 10
3299.0121064218960782
 20
1766.8143296326209111
 30
0.0
 11
2821.0711904686208982
 21
1766.8143296326279597
 31
0.0
  0
ARC
  5
33E
  8
0
 10
2718.1718126388977907
 20
1769.7801972048368953
 30
0.0
 40
102.9421115394475947
 50
283.9486470497718074
 51
358.3490215027694035
  0
ARC
  5
33F
  8
0
 10
2659.6805549763989802
 20
1943.1013090175199522
 30
0.0
 40
285.6452386647462731
 50
243.0672809675648125
 51
286.956186293102121
  0
LINE
  5
340
  8
0
 10
2530.2992863268109431
 20
1688.4374331056369556
 30
0.0
 11
2484.5036727099591189
 21
1495.9070833978130395
 31
0.0
  0
ARC
  5
341
  8
0
 10
2474.7331130530837981
 20
1415.1517855675499504
 30
0.0
 40
81.3442189935026505
 50
352.9335969517064768
 51
83.1013322066397393
  0
LINE
  5
342
  8
0
 10
2555.4594612393270836
 20
1405.1448543608019008
 30
0.0
 11
2555.4594612393248099
 21
1342.3689195067759101
 31
0.0
  0
LINE
  5
343
  8
0
 10
3299.0121064218960782
 20
1766.8143296326209111
 30
0.0
 11
3299.0121064218838001
 21
917.923509380909536
 31
0.0
  0
LINE
  5
344
  8
0
 10
3383.6022186743389284
 20
59.2157823156255674
 30
0.0
 11
4104.5351189232032993
 21
59.2157823156248782
 31
0.0
  0
ARC
  5
345
  8
0
 10
4260.6938590645850127
 20
89.8388167754105922
 30
0.0
 40
159.1330335350538121
 50
102.0947822343063933
 51
191.0950209906110899
  0
LINE
  5
346
  8
0
 10
4227.3507912402392321
 20
245.439466485267701
 30
0.0
 11
4127.3449193765809468
 21
435.8614199345847169
 31
0.0
  0
ARC
  5
347
  8
0
 10
4038.6234058929471757
 20
604.4464788797351957
 30
0.0
 40
190.5057192169475968
 50
218.5083966477440072
 51
297.7565538555388116
  0
LINE
  5
348
  8
0
 10
3889.5494573520900303
 20
485.8320323700262975
 30
0.0
 11
3383.6022186743389284
 21
485.8320323700247059
 31
0.0
  0
ARC
  5
349
  8
0
 10
4030.4609145447670926
 20
234.5567892824379044
 30
0.0
 40
693.9491481455391977
 50
158.7711112332297887
 51
183.4708180726084095
  0
LINE
  5
34A
  8
0
 10
3337.784634127182926
 20
192.5449961907791021
 30
0.0
 11
3383.6022186743389284
 21
59.2157823156255674
 31
0.0
  0
LINE
  5
34B
  8
0
 10
3383.6022186743412021
 20
502.2817024512568764
 30
0.0
 11
4104.5351189232032993
 21
502.2817024512560806
 31
0.0
  0
ARC
  5
34C
  8
0
 10
4260.6938590645850127
 20
532.9047369110419368
 30
0.0
 40
159.1330335350538121
 50
102.0947822343077007
 51
191.0950209906110899
  0
LINE
  5
34D
  8
0
 10
4227.3507912402392321
 20
688.5053866208991167
 30
0.0
 11
4127.3449193765809468
 21
878.9273400702156778
 31
0.0
  0
ARC
  5
34E
  8
0
 10
4038.6234058929471757
 20
1047.5123990153660998
 30
0.0
 40
190.5057192169475968
 50
218.5083966477440072
 51
297.7565538555360263
  0
LINE
  5
34F
  8
0
 10
3889.5494573520909398
 20
928.8979525056574857
 30
0.0
 11
3383.6022186743412021
 21
928.8979525056561215
 31
0.0
  0
ARC
  5
350
  8
0
 10
4030.4609145447711853
 20
677.6227094180692347
 30
0.0
 40
693.9491481455391977
 50
158.7711112332297887
 51
183.4708180726084095
  0
LINE
  5
351
  8
0
 10
3337.7846341271838355
 20
635.6109163264103472
 30
0.0
 11
3383.6022186743412021
 21
502.2817024512568764
 31
0.0
  0
LINE
  5
352
  8
0
 10
3383.6022186743412021
 20
962.5160971679395061
 30
0.0
 11
4028.6065440111560747
 21
962.5160971679395061
 31
0.0
  0
ARC
  5
353
  8
0
 10
4155.6217329891842382
 20
1174.0332861741790111
 30
0.0
 40
246.7232852331241872
 50
197.6178730653033142
 51
239.0153592892312986
  0
LINE
  5
354
  8
0
 10
3920.4706829579558871
 20
1099.3582358197579651
 30
0.0
 11
3384.5453552269468673
 21
1080.4347099507949679
 31
0.0
  0
LINE
  5
355
  8
0
 10
3384.5453552269468673
 20
1080.4347099507949679
 30
0.0
 11
3383.6022186743412021
 21
962.5160971679395061
 31
0.0
  0
ARC
  5
356
  8
0
 10
3375.0887103715640478
 20
1115.5093337055079701
 30
0.0
 40
81.9740741960120261
 50
352.7221570299299174
 51
45.8780194799846726
  0
LINE
  5
357
  8
0
 10
3456.402360928464077
 20
1105.1247743309520501
 30
0.0
 11
3975.0564847413288589
 21
1128.4900358818908899
 31
0.0
  0
LINE
  5
358
  8
0
 10
3975.0564847413288589
 20
1128.4900358818908899
 30
0.0
 11
3962.9343527617888867
 21
1205.5088680062440289
 31
0.0
  0
LINE
  5
359
  8
0
 10
3962.9343527617888867
 20
1205.5088680062440289
 30
0.0
 11
3432.1580969693809493
 21
1174.3551827829251124
 31
0.0
  0
LINE
  5
35A
  8
0
 10
3436.5771308609128027
 20
1196.9415087245708946
 30
0.0
 11
3952.6336542623930654
 21
1234.152855752384994
 31
0.0
  0
ARC
  5
35B
  8
0
 10
3990.1849636117390219
 20
1364.7293693379599517
 30
0.0
 40
135.8687849876278051
 50
175.2098938955215033
 51
253.9557762264080054
  0
LINE
  5
35C
  8
0
 10
3854.7907283486679262
 20
1376.0751963921009065
 30
0.0
 11
3401.9424652562829579
 21
1254.9219792345959377
 31
0.0
  0
ARC
  5
35D
  8
0
 10
3379.1490784217248802
 20
1201.9715837814349015
 30
0.0
 40
57.6479215760288994
 50
354.9942855832543955
 51
66.7097273391240719
  0
ARC
  5
35E
  8
0
 10
3394.7502175133668061
 20
1476.7039008791950891
 30
0.0
 40
68.0531805676430395
 50
12.9844000250351197
 51
158.9066663783856086
  0
LINE
  5
35F
  8
0
 10
3331.256912119999015
 20
1501.1954413696751089
 30
0.0
 11
3331.256912119999015
 21
1329.1375051546899613
 31
0.0
  0
LINE
  5
360
  8
0
 10
3461.0633651102189106
 20
1491.9944810241900086
 30
0.0
 11
3461.0633651102189106
 21
1329.1375051546899613
 31
0.0
  0
ARC
  5
361
  8
0
 10
3396.1601386151100996
 20
1258.0406360258250515
 30
0.0
 40
96.2662641292489241
 50
47.6075316336353822
 51
132.3924683663645965
  0
ARC
  5
362
  8
0
 10
4056.2846837775359745
 20
1584.0165623265891099
 30
0.0
 40
81.9740741960120261
 50
172.7221570299203961
 51
225.8780194799568903
  0
LINE
  5
363
  8
0
 10
3974.9710332206391286
 20
1594.4011217011450299
 30
0.0
 11
3456.3169094077729824
 21
1571.0358601502059628
 31
0.0
  0
LINE
  5
364
  8
0
 10
3456.3169094077729824
 20
1571.0358601502059628
 30
0.0
 11
3468.4390413873129546
 21
1494.0170280258530511
 31
0.0
  0
LINE
  5
365
  8
0
 10
3468.4390413873129546
 20
1494.0170280258530511
 30
0.0
 11
3999.2152971797199825
 21
1525.1707132491710581
 31
0.0
  0
LINE
  5
366
  8
0
 10
3994.7962632881881291
 20
1502.584387307525958
 30
0.0
 11
3478.7397398867087759
 21
1465.373040279712086
 31
0.0
  0
ARC
  5
367
  8
0
 10
3441.1884305373628195
 20
1334.7965266941369009
 30
0.0
 40
135.8687849876278051
 50
355.2098938955285234
 51
73.9557762264068828
  0
LINE
  5
368
  8
0
 10
3576.5826658004339151
 20
1323.4506996399959462
 30
0.0
 11
4029.430928892817974
 21
1444.603916797500915
 31
0.0
  0
ARC
  5
369
  8
0
 10
4052.2243157273787801
 20
1497.5543122506610416
 30
0.0
 40
57.6479215760288994
 50
174.99428558324351
 51
246.7097273391700867
  0
LINE
  5
36A
  8
0
 10
4044.5901426464261021
 20
1424.8686400264400618
 30
0.0
 11
4524.8903673885133685
 21
1302.7799967992370966
 31
0.0
  0
LINE
  5
36B
  8
0
 10
4524.8903673885133685
 20
1302.7799967992370966
 30
0.0
 11
4524.8903673885133685
 21
1087.7374920842980828
 31
0.0
  0
LINE
  5
36C
  8
0
 10
4524.8903673885133685
 20
1087.7374920842980828
 30
0.0
 11
4018.2152669230690663
 21
1001.7204939848020331
 31
0.0
  0
ARC
  5
36D
  8
0
 10
3907.9048869227258365
 20
1110.0646577831801096
 30
0.0
 40
154.618361668305397
 50
315.5152092960933032
 51
52.0713711187327633
  0
ARC
  5
36E
  8
0
 10
4112.4812864117347999
 20
1309.2888107697870055
 30
0.0
 40
134.0444117923557883
 50
120.4298110608317955
 51
215.1985392454340058
  0
LINE
  5
36F
  8
0
 10
4532.9676995115505633
 20
1321.7809858619100396
 30
0.0
 11
4052.667474769465116
 21
1443.8696290891130047
 31
0.0
  0
LINE
  5
370
  8
0
 10
4052.667474769465116
 20
1443.8696290891130047
 30
0.0
 11
4052.667474769465116
 21
1658.9121338040520186
 31
0.0
  0
LINE
  5
371
  8
0
 10
4052.667474769465116
 20
1658.9121338040520186
 30
0.0
 11
4559.3425752349075992
 21
1744.9291319035480683
 31
0.0
  0
ARC
  5
372
  8
0
 10
4731.345855172415213
 20
1640.6753494511081044
 30
0.0
 40
201.1317465367012005
 50
148.7793144491544979
 51
218.8072659656596954
  0
ARC
  5
373
  8
0
 10
4346.4932316071672176
 20
1462.9687296485819843
 30
0.0
 40
233.8946475996962135
 50
322.8690887592371723
 51
12.7592615470062505
  0
ARC
  5
374
  8
0
 10
3247.081007739341203
 20
1627.1933871843380075
 30
0.0
 40
215.947109008751994
 50
15.0092997953038996
 51
69.2979352226968217
  0
LINE
  5
375
  8
0
 10
3455.6608228766240245
 20
1683.1184674840978914
 30
0.0
 11
4121.5041291592970083
 21
1683.1184674840978914
 31
0.0
  0
LINE
  5
376
  8
0
 10
4121.5041291592970083
 20
1683.1184674840978914
 30
0.0
 11
4121.5041291592970083
 21
1782.8229117730029429
 31
0.0
  0
LINE
  5
377
  8
0
 10
4121.5041291592970083
 20
1782.8229117730029429
 30
0.0
 11
3323.420158049856127
 21
1829.1970703663689619
 31
0.0
  0
LINE
  5
378
  8
0
 10
4274.3887355226970612
 20
59.2157823156247289
 30
0.0
 11
5113.9955324860593464
 21
59.2157823156247289
 31
0.0
  0
LINE
  5
379
  8
0
 10
4274.3887355226970612
 20
59.2157823156247289
 30
0.0
 11
4316.9103431420726338
 21
527.2836069404290811
 31
0.0
  0
LINE
  5
37A
  8
0
 10
4316.9103431420726338
 20
527.2836069404290811
 30
0.0
 11
5096.7994016341081078
 21
743.092482169716618
 31
0.0
  0
ARC
  5
37B
  8
0
 10
4978.5095874290718712
 20
463.4913022392818789
 30
0.0
 40
303.5939722114940764
 50
307.4540452070920082
 51
67.068419720318829
  0
ARC
  5
37C
  8
0
 10
5265.2442188795066613
 20
102.7256683694988055
 30
0.0
 40
157.3825762915460871
 50
130.452028870459003
 51
196.0490012827148121
  0
LINE
  5
37F
  8
0
 10
4185.3075937768771837
 20
962.4224182750602949
 30
0.0
 11
4185.3075937768771837
 21
806.2423729818547145
 31
0.0
  0
LINE
  5
380
  8
0
 10
4185.3075937768771837
 20
806.2423729818547145
 30
0.0
 11
4358.1336253983899951
 21
806.2423729818547145
 31
0.0
  0
LINE
  5
381
  8
0
 10
4358.1336253983899951
 20
806.2423729818547145
 30
0.0
 11
4358.1336253983899951
 21
962.4224182750602949
 31
0.0
  0
LINE
  5
382
  8
0
 10
4358.1336253983899951
 20
962.4224182750602949
 30
0.0
 11
4185.3075937768771837
 21
962.4224182750602949
 31
0.0
  0
CIRCLE
  5
383
  8
0
 10
4385.9785153923476173
 20
686.8869159918740479
 30
0.0
 40
93.9125106675287213
  0
LINE
  5
384
  8
0
 10
6311.4724231945720021
 20
59.2157823156247289
 30
0.0
 11
5471.8656262312097169
 21
59.2157823156247289
 31
0.0
  0
LINE
  5
385
  8
0
 10
6311.4724231945720021
 20
59.2157823156247289
 30
0.0
 11
6268.9508155751964296
 21
527.2836069404290811
 31
0.0
  0
LINE
  5
386
  8
0
 10
6268.9508155751964296
 20
527.2836069404290811
 30
0.0
 11
5489.0617570831627745
 21
743.092482169716618
 31
0.0
  0
ARC
  5
387
  8
0
 10
5607.3515712881990112
 20
463.4913022392818789
 30
0.0
 40
303.5939722114940764
 50
112.9315802796779025
 51
232.5459547928691109
  0
ARC
  5
388
  8
0
 10
5320.61693983776604
 20
102.7256683695000987
 30
0.0
 40
157.382576291543387
 50
343.9509987172843921
 51
49.5479711295649992
  0
LINE
  5
38E
  8
0
 10
5166.8636618236168943
 20
64.0156409929237782
 30
0.0
 11
5430.8936206854195916
 21
64.0156409929543315
 31
0.0
  0
LINE
  5
38F
  8
0
 10
5430.8936206854195916
 20
64.0156409929543315
 30
0.0
 11
5430.8936206854077682
 21
166.9265157537599862
 31
0.0
  0
LINE
  5
390
  8
0
 10
5166.8636618236168943
 20
64.0156409929237782
 30
0.0
 11
5166.8636618236059803
 21
164.3920748424010867
 31
0.0
  0
ARC
  5
391
  8
0
 10
5219.6670487903429603
 20
250.9343011714773013
 30
0.0
 40
101.3792612576747985
 50
238.6107157306510942
 51
323.077494154698627
  0
ARC
  5
392
  8
0
 10
5380.1132098678990587
 20
259.0976019859758139
 30
0.0
 40
105.2338313472507991
 50
221.0185392773582009
 51
298.8519709223451173
  0
LINE
  5
393
  8
0
 10
4589.8661997039816924
 20
681.0154318530653654
 30
0.0
 11
4987.2952648011851124
 21
795.3192424794142426
 31
0.0
  0
LINE
  5
394
  8
0
 10
4987.2952648011851124
 20
795.3192424794142426
 30
0.0
 11
4987.2952648011851124
 21
1063.9332097845579028
 31
0.0
  0
LINE
  5
395
  8
0
 10
4987.2952648011851124
 20
1063.9332097845579028
 30
0.0
 11
4575.5701788016958744
 21
1118.227522781324069
 31
0.0
  0
LINE
  5
396
  8
0
 10
4575.5701788016958744
 20
1118.227522781324069
 30
0.0
 11
4589.8661997039816924
 21
681.0154318530653654
 31
0.0
  0
LINE
  5
397
  8
0
 10
4999.2599967042260687
 20
1545.8694702441039226
 30
0.0
 11
4601.8309316070262867
 21
1431.565659617755955
 31
0.0
  0
LINE
  5
398
  8
0
 10
4601.8309316070262867
 20
1431.565659617755955
 30
0.0
 11
4601.8309316070262867
 21
1162.9516923126120673
 31
0.0
  0
LINE
  5
399
  8
0
 10
4601.8309316070262867
 20
1162.9516923126120673
 30
0.0
 11
5013.5560176065146152
 21
1108.6573793158459011
 31
0.0
  0
LINE
  5
39A
  8
0
 10
5013.5560176065146152
 20
1108.6573793158459011
 30
0.0
 11
4999.2599967042260687
 21
1545.8694702441039226
 31
0.0
  0
LINE
  5
39B
  8
0
 10
4599.2903128161960922
 20
1455.3592833437630816
 30
0.0
 11
4996.7193779133976932
 21
1569.6630939701119587
 31
0.0
  0
LINE
  5
39C
  8
0
 10
4996.7193779133976932
 20
1569.6630939701119587
 30
0.0
 11
4996.7193779133976932
 21
1838.2770612752560737
 31
0.0
  0
LINE
  5
39D
  8
0
 10
4996.7193779133976932
 20
1838.2770612752560737
 30
0.0
 11
4584.9942919139102742
 21
1892.5713742720220125
 31
0.0
  0
LINE
  5
39E
  8
0
 10
4584.9942919139102742
 20
1892.5713742720220125
 30
0.0
 11
4599.2903128161960922
 21
1455.3592833437630816
 31
0.0
  0
LINE
  5
39F
  8
0
 10
5054.9212489157216623
 20
778.8306419800557023
 30
0.0
 11
5532.8621648689959329
 21
778.8306419800557023
 31
0.0
  0
ARC
  5
3A0
  8
0
 10
5635.7615426987204046
 20
775.8647744078475625
 30
0.0
 40
102.9421115394475947
 50
103.9486470497986943
 51
178.3490215027632075
  0
ARC
  5
3A1
  8
0
 10
5694.2528003612233078
 20
602.5436625951653014
 30
0.0
 40
285.6452386647462731
 50
63.0672809675414285
 51
106.9561862931288942
  0
LINE
  5
3A2
  8
0
 10
5823.6340690108036142
 20
857.2075385070503444
 30
0.0
 11
5869.4296826276540742
 21
1049.7378882148750563
 31
0.0
  0
ARC
  5
3A3
  8
0
 10
5879.2002422845280307
 20
1130.4931860451370085
 30
0.0
 40
81.3442189935026505
 50
172.9335969517073011
 51
263.1013322066664273
  0
LINE
  5
3A4
  8
0
 10
5798.473894098287019
 20
1140.5001172518839212
 30
0.0
 11
5798.473894098287019
 21
1203.2760521059110488
 31
0.0
  0
LINE
  5
3A5
  8
0
 10
5054.9212489157216623
 20
1627.7214622317669637
 30
0.0
 11
5532.8621648689959329
 21
1627.7214622317669637
 31
0.0
  0
ARC
  5
3A6
  8
0
 10
5635.7615426987204046
 20
1630.6873298039749898
 30
0.0
 40
102.9421115394475947
 50
181.6509784972301134
 51
256.0513529502013057
  0
ARC
  5
3A7
  8
0
 10
5694.2528003612233078
 20
1804.0084416166569099
 30
0.0
 40
285.6452386647462731
 50
253.0438137068709921
 51
296.9327190324585217
  0
LINE
  5
3A8
  8
0
 10
5823.6340690108036142
 20
1549.3445657047720943
 30
0.0
 11
5869.4296826276540742
 21
1356.8142159969479508
 31
0.0
  0
ARC
  5
3A9
  8
0
 10
5879.2002422845280307
 20
1276.0589181666850891
 30
0.0
 40
81.3442189935026505
 50
96.8986677933602039
 51
187.0664030482926137
  0
LINE
  5
3AA
  8
0
 10
5798.473894098287019
 20
1266.051986959937949
 30
0.0
 11
5798.473894098287019
 21
1203.2760521059110488
 31
0.0
  0
LINE
  5
3AB
  8
0
 10
5054.9212489157216623
 20
1627.7214622317669637
 30
0.0
 11
5054.9212489157216623
 21
778.8306419800557023
 31
0.0
  0
ARC
  5
3AC
  8
0
 10
5680.6963198874127556
 20
774.8685031793795588
 30
0.0
 40
68.0531805676430395
 50
102.9844000250461988
 51
248.9066663783796969
  0
LINE
  5
3AD
  8
0
 10
5656.2047793969286431
 20
711.3751977860141551
 30
0.0
 11
5828.2627156119160645
 21
711.3751977860006264
 31
0.0
  0
LINE
  5
3AE
  8
0
 10
5665.4057397424248848
 20
841.1816507762329138
 30
0.0
 11
5828.2627156119287974
 21
841.181650776219044
 31
0.0
  0
ARC
  5
3AF
  8
0
 10
5899.3595847407859765
 20
776.2784242811044351
 30
0.0
 40
96.2662641292489241
 50
137.607531633622699
 51
222.3924683663771873
  0
LINE
  5
3BC
  8
0
 10
6305.7832680433994028
 20
546.8880414163103296
 30
0.0
 11
5908.3542029461950733
 21
661.1918520426588657
 31
0.0
  0
LINE
  5
3BD
  8
0
 10
5908.3542029461950733
 20
661.1918520426588657
 30
0.0
 11
5908.3542029461950733
 21
929.805819347802867
 31
0.0
  0
LINE
  5
3BE
  8
0
 10
5908.3542029461950733
 20
929.805819347802867
 30
0.0
 11
6320.0792889456870398
 21
984.1001323445690332
 31
0.0
  0
LINE
  5
3BF
  8
0
 10
6320.0792889456870398
 20
984.1001323445690332
 30
0.0
 11
6305.7832680433994028
 21
546.8880414163103296
 31
0.0
  0
LINE
  5
3C0
  8
0
 10
5896.3894710431532076
 20
1411.7420798073490005
 30
0.0
 11
6293.8185361403557181
 21
1297.438269180999896
 31
0.0
  0
LINE
  5
3C1
  8
0
 10
6293.8185361403557181
 20
1297.438269180999896
 30
0.0
 11
6293.8185361403557181
 21
1028.8243018758560083
 31
0.0
  0
LINE
  5
3C2
  8
0
 10
6293.8185361403557181
 20
1028.8243018758560083
 30
0.0
 11
5882.0934501408673896
 21
974.5299888790905243
 31
0.0
  0
LINE
  5
3C3
  8
0
 10
5882.0934501408673896
 20
974.5299888790905243
 30
0.0
 11
5896.3894710431532076
 21
1411.7420798073490005
 31
0.0
  0
LINE
  5
3C4
  8
0
 10
6296.3591549311850031
 20
1321.2318929070079321
 30
0.0
 11
5898.9300898339815831
 21
1435.5357035333558997
 31
0.0
  0
LINE
  5
3C5
  8
0
 10
5898.9300898339815831
 20
1435.5357035333558997
 30
0.0
 11
5898.9300898339815831
 21
1704.1496708384991052
 31
0.0
  0
LINE
  5
3C6
  8
0
 10
5898.9300898339815831
 20
1704.1496708384991052
 30
0.0
 11
6310.6551758334708211
 21
1758.4439838352659535
 31
0.0
  0
LINE
  5
3C7
  8
0
 10
6310.6551758334708211
 20
1758.4439838352659535
 30
0.0
 11
6296.3591549311850031
 21
1321.2318929070079321
 31
0.0
  0
ARC
  5
3C8
  8
0
 10
4965.1324967176078644
 20
1627.1933871843380075
 30
0.0
 40
215.947109008751994
 50
15.0092997953106497
 51
69.2979352226968217
  0
LINE
  5
3C9
  8
0
 10
5173.7123118548915954
 20
1683.1184674840978914
 30
0.0
 11
5839.555618137563215
 21
1683.1184674840978914
 31
0.0
  0
LINE
  5
3CA
  8
0
 10
5839.555618137563215
 20
1683.1184674840978914
 30
0.0
 11
5839.555618137563215
 21
1782.8229117730029429
 31
0.0
  0
LINE
  5
3CB
  8
0
 10
5839.555618137563215
 20
1782.8229117730029429
 30
0.0
 11
5041.471647028121879
 21
1829.1970703663689619
 31
0.0
  0
LINE
  5
58C
  8
0
 10
6398.150053404388018
 20
59.2157823156255674
 30
0.0
 11
7119.0829536532528437
 21
59.2157823156248782
 31
0.0
  0
ARC
  5
58D
  8
0
 10
7275.241693794632738
 20
89.8388167754105922
 30
0.0
 40
159.1330335350538121
 50
102.0947822343075018
 51
191.0950209906091004
  0
LINE
  5
58E
  8
0
 10
7241.8986259702887764
 20
245.439466485267701
 30
0.0
 11
7141.8927541066314006
 21
435.8614199345847169
 31
0.0
  0
ARC
  5
58F
  8
0
 10
7053.1712406229971748
 20
604.4464788797351957
 30
0.0
 40
190.5057192169475968
 50
218.5083966477442061
 51
297.7565538555380726
  0
LINE
  5
590
  8
0
 10
6904.0972920821395746
 20
485.8320323700262975
 30
0.0
 11
6398.150053404388018
 21
485.8320323700247059
 31
0.0
  0
ARC
  5
591
  8
0
 10
7045.0087492748170916
 20
234.5567892824379044
 30
0.0
 40
693.9491481455391977
 50
158.7711112332262076
 51
183.4708180726090063
  0
LINE
  5
592
  8
0
 10
6352.3324688572320156
 20
192.5449961907791021
 30
0.0
 11
6398.150053404388018
 21
59.2157823156255674
 31
0.0
  0
LINE
  5
593
  8
0
 10
6398.1500534043889274
 20
502.2817024512568764
 30
0.0
 11
7119.0829536532528437
 21
502.2817024512560806
 31
0.0
  0
ARC
  5
594
  8
0
 10
7275.241693794632738
 20
532.9047369110419368
 30
0.0
 40
159.1330335350538121
 50
102.0947822343076012
 51
191.0950209906091004
  0
LINE
  5
595
  8
0
 10
7241.8986259702887764
 20
688.5053866208991167
 30
0.0
 11
7141.8927541066314006
 21
878.9273400702156778
 31
0.0
  0
ARC
  5
596
  8
0
 10
7053.1712406229971748
 20
1047.5123990153660998
 30
0.0
 40
190.5057192169475968
 50
218.5083966477442061
 51
297.7565538555376179
  0
LINE
  5
597
  8
0
 10
6904.0972920821395746
 20
928.8979525056574857
 30
0.0
 11
6398.1500534043889274
 21
928.8979525056561215
 31
0.0
  0
ARC
  5
598
  8
0
 10
7045.0087492748207296
 20
677.6227094180692347
 30
0.0
 40
693.9491481455391977
 50
158.7711112332262076
 51
183.4708180726090063
  0
LINE
  5
599
  8
0
 10
6352.3324688572329251
 20
635.6109163264103472
 30
0.0
 11
6398.1500534043889274
 21
502.2817024512568764
 31
0.0
  0
LINE
  5
59A
  8
0
 10
6398.1500534043889274
 20
962.5160971679395061
 30
0.0
 11
7043.1543787412047095
 21
962.5160971679395061
 31
0.0
  0
ARC
  5
59B
  8
0
 10
7170.1695677192328731
 20
1174.0332861741790111
 30
0.0
 40
246.7232852331241872
 50
197.6178730653066111
 51
239.0153592892305028
  0
LINE
  5
59C
  8
0
 10
6935.0185176880040672
 20
1099.3582358197579651
 30
0.0
 11
6399.0931899569959569
 21
1080.4347099507949679
 31
0.0
  0
LINE
  5
59D
  8
0
 10
6399.0931899569959569
 20
1080.4347099507949679
 30
0.0
 11
6398.1500534043889274
 21
962.5160971679395061
 31
0.0
  0
ARC
  5
59E
  8
0
 10
6389.6365451016126826
 20
1115.5093337055079701
 30
0.0
 40
81.9740741960120261
 50
352.7221570299303721
 51
45.8780194799888008
  0
LINE
  5
59F
  8
0
 10
6470.9501956585127118
 20
1105.1247743309520501
 30
0.0
 11
6989.6043194713793127
 21
1128.4900358818908899
 31
0.0
  0
LINE
  5
5A0
  8
0
 10
6989.6043194713793127
 20
1128.4900358818908899
 30
0.0
 11
6977.4821874918388858
 21
1205.5088680062440289
 31
0.0
  0
LINE
  5
5A1
  8
0
 10
6977.4821874918388858
 20
1205.5088680062440289
 30
0.0
 11
6446.7059316994300389
 21
1174.3551827829251124
 31
0.0
  0
LINE
  5
5A2
  8
0
 10
6451.1249655909623471
 20
1196.9415087245708946
 30
0.0
 11
6967.1814889924407908
 21
1234.152855752384994
 31
0.0
  0
ARC
  5
5A3
  8
0
 10
7004.7327983417872019
 20
1364.7293693379599517
 30
0.0
 40
135.8687849876278051
 50
175.2098938955211054
 51
253.9557762264070107
  0
LINE
  5
5A4
  8
0
 10
6869.3385630787170157
 20
1376.0751963921009065
 30
0.0
 11
6416.4902999863315927
 21
1254.9219792345959377
 31
0.0
  0
ARC
  5
5A5
  8
0
 10
6393.6969131517744245
 20
1201.9715837814349015
 30
0.0
 40
57.6479215760288994
 50
354.9942855832554756
 51
66.7097273391240435
  0
ARC
  5
5A6
  8
0
 10
6409.2980522434163504
 20
1476.7039008791950891
 30
0.0
 40
68.0531805676430395
 50
12.9844000250377292
 51
158.9066663783870013
  0
LINE
  5
5A7
  8
0
 10
6345.8047468500481045
 20
1501.1954413696751089
 30
0.0
 11
6345.8047468500481045
 21
1329.1375051546899613
 31
0.0
  0
LINE
  5
5A8
  8
0
 10
6475.6111998402693644
 20
1491.9944810241900086
 30
0.0
 11
6475.6111998402693644
 21
1329.1375051546899613
 31
0.0
  0
ARC
  5
5A9
  8
0
 10
6410.7079733451600987
 20
1258.0406360258250515
 30
0.0
 40
96.2662641292489241
 50
47.6075316336318792
 51
132.3924683663680071
  0
ARC
  5
5AA
  8
0
 10
7070.8325185075846093
 20
1584.0165623265891099
 30
0.0
 40
81.9740741960120261
 50
172.722157029920993
 51
225.8780194799566061
  0
LINE
  5
5AB
  8
0
 10
6989.5188679506891276
 20
1594.4011217011450299
 30
0.0
 11
6470.8647441378216172
 21
1571.0358601502059628
 31
0.0
  0
LINE
  5
5AC
  8
0
 10
6470.8647441378216172
 20
1571.0358601502059628
 30
0.0
 11
6482.9868761173620442
 21
1494.0170280258530511
 31
0.0
  0
LINE
  5
5AD
  8
0
 10
6482.9868761173620442
 20
1494.0170280258530511
 30
0.0
 11
7013.7631319097690721
 21
1525.1707132491710581
 31
0.0
  0
LINE
  5
5AE
  8
0
 10
7009.3440980182358544
 20
1502.584387307525958
 30
0.0
 11
6493.2875746167583202
 21
1465.373040279712086
 31
0.0
  0
ARC
  5
5AF
  8
0
 10
6455.73626526741009
 20
1334.7965266941369009
 30
0.0
 40
135.8687849876278051
 50
355.2098938955280119
 51
73.9557762264069112
  0
LINE
  5
5B0
  8
0
 10
6591.1305005304820952
 20
1323.4506996399959462
 30
0.0
 11
7043.9787636228656993
 21
1444.603916797500915
 31
0.0
  0
ARC
  5
5B1
  8
0
 10
6261.628842469391202
 20
1627.1933871843380075
 30
0.0
 40
215.947109008751994
 50
15.0092997953020006
 51
69.2979352226963101
  0
LINE
  5
5B2
  8
0
 10
6470.2086576066722046
 20
1683.1184674840978914
 30
0.0
 11
7136.0519638893465526
 21
1683.1184674840978914
 31
0.0
  0
LINE
  5
5B3
  8
0
 10
7136.0519638893465526
 20
1683.1184674840978914
 30
0.0
 11
7136.0519638893465526
 21
1782.8229117730029429
 31
0.0
  0
LINE
  5
5B4
  8
0
 10
7136.0519638893465526
 20
1782.8229117730029429
 30
0.0
 11
6337.9679927799052166
 21
1829.1970703663689619
 31
0.0
  0
ARC
  5
5B5
  8
0
 10
7066.7721504573810307
 20
1497.5543122506810505
 30
0.0
 40
57.6479215760288994
 50
174.99428558324459
 51
246.7097273391790964
  0
LINE
  5
7BA
  8
0
 10
91.018329600592665
 20
1940.3395279204839881
 30
0.0
 11
811.9512298494578317
 21
1940.3395279204839881
 31
0.0
  0
ARC
  5
7BB
  8
0
 10
968.1099699908386356
 20
1970.9625623802689915
 30
0.0
 40
159.1330335350538121
 50
102.0947822343062938
 51
191.0950209906135058
  0
LINE
  5
7BC
  8
0
 10
934.766902166492855
 20
2126.5632120901268536
 30
0.0
 11
834.7610303028335466
 21
2316.9851655394440968
 31
0.0
  0
ARC
  5
7BD
  8
0
 10
746.0395168191998891
 20
2485.5702244845938367
 30
0.0
 40
190.5057192169475968
 50
218.5083966477444903
 51
297.7565538555332978
  0
LINE
  5
7BE
  8
0
 10
596.9655682783431985
 20
2366.9557779748852226
 30
0.0
 11
91.0183296005927218
 21
2366.9557779748829489
 31
0.0
  0
LINE
  5
7BF
  8
0
 10
614.4212031633209108
 20
2483.8827598480747838
 30
0.0
 11
614.4212031633209108
 21
2354.4877606079580801
 31
0.0
  0
LINE
  5
7C0
  8
0
 10
614.4212031633209108
 20
2354.4877606079580801
 30
0.0
 11
811.3127326797291516
 21
2354.4877606079580801
 31
0.0
  0
LINE
  5
7C1
  8
0
 10
811.3127326797291516
 20
2354.4877606079580801
 30
0.0
 11
811.3127326797291516
 21
2483.8827598480747838
 31
0.0
  0
LINE
  5
7C2
  8
0
 10
811.3127326797291516
 20
2483.8827598480747838
 30
0.0
 11
614.4212031633209108
 21
2483.8827598480747838
 31
0.0
  0
ARC
  5
7C3
  8
0
 10
737.8770254710226482
 20
2115.680534887297199
 30
0.0
 40
693.9491481455391977
 50
158.771111233233313
 51
183.4708180726078979
  0
LINE
  5
7C4
  8
0
 10
45.2007450534363073
 20
2073.6687417956381978
 30
0.0
 11
91.018329600592665
 21
1940.3395279204839881
 31
0.0
  0
LINE
  5
7C5
  8
0
 10
52.40433650353188
 20
2471.2703409582559289
 30
0.0
 11
530.3452524568052695
 21
2471.2703409582559289
 31
0.0
  0
ARC
  5
7C6
  8
0
 10
633.2446302865288317
 20
2468.3044733860479027
 30
0.0
 40
102.9421115394475947
 50
103.9486470498094945
 51
178.3490215027694035
  0
ARC
  5
7C7
  8
0
 10
691.7358879490301433
 20
2294.9833615733659826
 30
0.0
 40
285.6452386647462731
 50
63.0672809675420609
 51
106.956186293139595
  0
LINE
  5
7C8
  8
0
 10
821.1171565986146561
 20
2549.6472374852510256
 30
0.0
 11
866.9127702154640929
 21
2742.1775871930758512
 31
0.0
  0
ARC
  5
7C9
  8
0
 10
876.6833298723380494
 20
2822.9328850233378034
 30
0.0
 40
81.3442189935026505
 50
172.9335969517061073
 51
263.1013322066531259
  0
LINE
  5
7CA
  8
0
 10
795.9569816860963556
 20
2832.9398162300849435
 30
0.0
 11
795.9569816860963556
 21
2895.7157510841120711
 31
0.0
  0
LINE
  5
7CB
  8
0
 10
52.40433650353188
 20
3320.1611612099668491
 30
0.0
 11
530.3452524568052695
 21
3320.1611612099668491
 31
0.0
  0
ARC
  5
7CC
  8
0
 10
633.2446302865288317
 20
3323.1270287821748752
 30
0.0
 40
102.9421115394475947
 50
181.6509784972305965
 51
256.0513529501890844
  0
ARC
  5
7CD
  8
0
 10
691.7358879490301433
 20
3496.4481405948581596
 30
0.0
 40
285.6452386647462731
 50
253.0438137068591118
 51
296.9327190324559069
  0
LINE
  5
7CE
  8
0
 10
821.1171565986146561
 20
3241.7842646829731166
 30
0.0
 11
866.9127702154640929
 21
3049.2539149751478362
 31
0.0
  0
ARC
  5
7CF
  8
0
 10
876.6833298723380494
 20
2968.498617144885884
 30
0.0
 40
81.3442189935026505
 50
96.8986677933473857
 51
187.0664030482938074
  0
LINE
  5
7D0
  8
0
 10
795.9569816860963556
 20
2958.4916859381391987
 30
0.0
 11
795.9569816860963556
 21
2895.7157510841120711
 31
0.0
  0
LINE
  5
7D1
  8
0
 10
52.40433650353188
 20
3320.1611612099668491
 30
0.0
 11
52.4043365035317521
 21
2471.2703409582559289
 31
0.0
  0
LINE
  5
7D2
  8
0
 10
891.7800047033300643
 20
1955.4813546782029334
 30
0.0
 11
1536.784330040147097
 21
1955.4813546782029334
 31
0.0
  0
ARC
  5
7D3
  8
0
 10
1663.7995190181750331
 20
2166.9985436844431206
 30
0.0
 40
246.7232852331241872
 50
197.6178730653060995
 51
239.0153592892322081
  0
LINE
  5
7D4
  8
0
 10
1428.6484689869450904
 20
2092.3234933300218472
 30
0.0
 11
892.7231412559369801
 21
2073.3999674610590773
 31
0.0
  0
LINE
  5
7D5
  8
0
 10
892.7231412559369801
 20
2073.3999674610590773
 30
0.0
 11
891.7800047033300643
 21
1955.4813546782029334
 31
0.0
  0
ARC
  5
7D6
  8
0
 10
883.2664964005530237
 20
2108.4745912157718521
 30
0.0
 40
81.9740741960120261
 50
352.7221570299358859
 51
45.8780194799783132
  0
LINE
  5
7D7
  8
0
 10
964.5801469574524845
 20
2098.0900318412150227
 30
0.0
 11
1483.2342707703169253
 21
2121.4552933921540898
 31
0.0
  0
LINE
  5
7D8
  8
0
 10
1483.2342707703169253
 20
2121.4552933921540898
 30
0.0
 11
1471.1121387907769531
 21
2198.4741255165081384
 31
0.0
  0
LINE
  5
7D9
  8
0
 10
1471.1121387907769531
 20
2198.4741255165081384
 30
0.0
 11
940.3358829983700389
 21
2167.3204402931892218
 31
0.0
  0
LINE
  5
7DA
  8
0
 10
944.7549168899023471
 20
2189.9067662348347767
 30
0.0
 11
1460.8114402913809045
 21
2227.1181132626479666
 31
0.0
  0
ARC
  5
7DB
  8
0
 10
1498.3627496407279978
 20
2357.6946268482229243
 30
0.0
 40
135.8687849876278051
 50
175.209893895528495
 51
253.9557762264159919
  0
LINE
  5
7DC
  8
0
 10
1362.9685143776569021
 20
2369.040453902363879
 30
0.0
 11
910.1202512852723885
 21
2247.8872367448598197
 31
0.0
  0
ARC
  5
7DD
  8
0
 10
887.3268644507129466
 20
2194.9368412916987836
 30
0.0
 40
57.6479215760288994
 50
354.9942855832533155
 51
66.7097273391186008
  0
LINE
  5
7DE
  8
0
 10
953.3299543069281299
 20
2327.5512465792389776
 30
0.0
 11
1433.630179049014032
 21
2449.6398898064430796
 31
0.0
  0
LINE
  5
7DF
  8
0
 10
1433.630179049014032
 20
2449.6398898064430796
 30
0.0
 11
1433.630179049014032
 21
2664.6823945213818661
 31
0.0
  0
LINE
  5
7E0
  8
0
 10
1433.630179049014032
 20
2664.6823945213818661
 30
0.0
 11
926.9550785835726856
 21
2750.6993926208779158
 31
0.0
  0
ARC
  5
7E1
  8
0
 10
803.6956306588128882
 20
2643.213781847878181
 30
0.0
 40
163.5421903545430098
 50
311.3241009668603851
 51
41.0893186183249099
  0
ARC
  5
7E2
  8
0
 10
1023.0862919992539446
 20
2443.5338620371699108
 30
0.0
 40
135.3436874653122004
 50
145.3959443642445137
 51
238.9757053294920865
  0
LINE
  5
7E3
  8
0
 10
842.7987471943215496
 20
3008.0541385539190742
 30
0.0
 11
842.7987471943215496
 21
2783.477898751631983
 31
0.0
  0
LINE
  5
7E4
  8
0
 10
842.7987471943215496
 20
2783.477898751631983
 30
0.0
 11
938.0233901013233435
 21
2783.477898751631983
 31
0.0
  0
LINE
  5
7E5
  8
0
 10
938.0233901013233435
 20
2783.477898751631983
 30
0.0
 11
938.0233901013236846
 21
3008.0541385539190742
 31
0.0
  0
LINE
  5
7E6
  8
0
 10
938.0233901013236846
 20
3008.0541385539190742
 30
0.0
 11
842.7987471943215496
 21
3008.0541385539190742
 31
0.0
  0
LINE
  5
7E7
  8
0
 10
91.018329600592736
 20
3355.9632243127539368
 30
0.0
 11
811.9512298494578317
 21
3355.9632243127539368
 31
0.0
  0
ARC
  5
7E8
  8
0
 10
968.1099699908386356
 20
3386.5862587725400772
 30
0.0
 40
159.1330335350538121
 50
102.0947822343051001
 51
191.0950209906133068
  0
LINE
  5
7E9
  8
0
 10
934.766902166492855
 20
3542.1869084823961202
 30
0.0
 11
834.7610303028335466
 21
3732.6088619317129087
 31
0.0
  0
ARC
  5
7EA
  8
0
 10
746.0395168192000028
 20
3901.1939208768649223
 30
0.0
 40
190.5057192169475968
 50
218.5083966477440072
 51
297.7565538555355147
  0
LINE
  5
7EB
  8
0
 10
596.9655682783431985
 20
3782.579474367154944
 30
0.0
 11
91.018329600592736
 21
3782.5794743671531251
 31
0.0
  0
ARC
  5
7EC
  8
0
 10
737.8770254710232166
 20
3531.3042312795660109
 30
0.0
 40
693.9491481455391977
 50
158.7711112332337109
 51
183.4708180726078979
  0
LINE
  5
7ED
  8
0
 10
45.2007450534363926
 20
3489.2924381879079192
 30
0.0
 11
91.018329600592736
 21
3355.9632243127539368
 31
0.0
  0
LINE
  5
7EE
  8
0
 10
976.7273317863293869
 20
3239.4045509240249885
 30
0.0
 11
1457.0275565284150616
 21
3117.315907696821796
 31
0.0
  0
LINE
  5
7EF
  8
0
 10
1457.0275565284150616
 20
3117.315907696821796
 30
0.0
 11
1457.0275565284150616
 21
2902.2734029818821
 31
0.0
  0
LINE
  5
7F0
  8
0
 10
1457.0275565284150616
 20
2902.2734029818821
 30
0.0
 11
950.35245606297417
 21
2816.2564048823860503
 31
0.0
  0
ARC
  5
7F1
  8
0
 10
840.0420760626276433
 20
2924.600568680764809
 30
0.0
 40
154.618361668305397
 50
315.5152092960826167
 51
52.071371118725331
  0
ARC
  5
7F2
  8
0
 10
1044.6184755516369478
 20
3123.8247216673721596
 30
0.0
 40
134.0444117923557883
 50
120.4298110608321934
 51
215.1985392454378996
  0
LINE
  5
7F3
  8
0
 10
1055.086575258620087
 20
2748.1784918977828056
 30
0.0
 11
1567.0195450298629112
 21
2673.1874647409172212
 31
0.0
  0
ARC
  5
7F4
  8
0
 10
1631.8552741992280062
 20
2792.5886998982259684
 30
0.0
 40
135.8687849876278051
 50
162.7518392422956026
 51
241.4977215731931039
  0
LINE
  5
7F5
  8
0
 10
1502.0965814072669673
 20
2832.8752780469840218
 30
0.0
 11
1033.7752374976710144
 21
2812.2653228769099769
 31
0.0
  0
ARC
  5
7F6
  8
0
 10
1000.095824458190009
 20
2765.4787863588899199
 30
0.0
 40
57.6479215760288994
 50
342.5362309300303991
 51
54.2516726858985905
  0
ARC
  5
7F7
  8
0
 10
814.3720565791711579
 20
3558.7676624892869768
 30
0.0
 40
215.947109008751994
 50
15.0092997953105503
 51
69.2979352227022929
  0
LINE
  5
7F8
  8
0
 10
1022.9518717164539794
 20
3614.6927427890482249
 30
0.0
 11
1688.7951779991290095
 21
3614.6927427890482249
 31
0.0
  0
LINE
  5
7F9
  8
0
 10
1688.7951779991290095
 20
3614.6927427890482249
 30
0.0
 11
1688.7951779991290095
 21
3714.3971870779519122
 31
0.0
  0
LINE
  5
7FA
  8
0
 10
1688.7951779991290095
 20
3714.3971870779519122
 30
0.0
 11
890.7112068896839219
 21
3760.7713456713190681
 31
0.0
  0
ARC
  5
7FB
  8
0
 10
948.8504306305790124
 20
3408.2781761841451953
 30
0.0
 40
68.0531805676430395
 50
12.9844000250307907
 51
158.9066663783875129
  0
LINE
  5
7FC
  8
0
 10
885.3571252372114486
 20
3432.7697166746252151
 30
0.0
 11
885.3571252372114486
 21
3260.7117804596391579
 31
0.0
  0
LINE
  5
7FD
  8
0
 10
1015.1635782274289568
 20
3423.5687563291389779
 30
0.0
 11
1015.1635782274289568
 21
3260.7117804596391579
 31
0.0
  0
ARC
  5
7FE
  8
0
 10
950.2603517323201459
 20
3189.6149113307751577
 30
0.0
 40
96.2662641292489241
 50
47.6075316336392405
 51
132.3924683663607027
  0
LINE
  5
7FF
  8
0
 10
1529.9267912479031111
 20
3136.3168967594938294
 30
0.0
 11
1049.6265665058160721
 21
3258.4055399866979315
 31
0.0
  0
LINE
  5
800
  8
0
 10
1049.6265665058160721
 20
3258.4055399866979315
 30
0.0
 11
1049.6265665058160721
 21
3473.4480447016371727
 31
0.0
  0
LINE
  5
801
  8
0
 10
1049.6265665058160721
 20
3473.4480447016371727
 30
0.0
 11
1556.3016669712581006
 21
3559.4650428011341319
 31
0.0
  0
ARC
  5
802
  8
0
 10
1728.3049469087659418
 20
3455.2112603486930311
 30
0.0
 40
201.1317465367012005
 50
148.779314449151201
 51
218.8072659656509131
  0
ARC
  5
803
  8
0
 10
1343.4523233435170368
 20
3277.5046405461671384
 30
0.0
 40
233.8946475996962135
 50
322.8690887592470062
 51
12.7592615470030708
  0
LINE
  5
804
  8
0
 10
1580.2392864114549411
 20
2194.0084612227178695
 30
0.0
 11
2058.1802023647292117
 21
2194.0084612227178695
 31
0.0
  0
ARC
  5
805
  8
0
 10
2161.0795801944518644
 20
2191.0425936505098434
 30
0.0
 40
102.9421115394475947
 50
103.948647049812493
 51
178.3490215027563863
  0
ARC
  5
806
  8
0
 10
2219.5708378569538581
 20
2017.7214818378279233
 30
0.0
 40
285.6452386647462731
 50
63.0672809675434394
 51
106.9561862931425935
  0
LINE
  5
807
  8
0
 10
2348.952106506536893
 20
2272.3853577497138758
 30
0.0
 11
2394.7477201233878077
 21
2464.9157074575377919
 31
0.0
  0
ARC
  5
808
  8
0
 10
2404.5182797802631285
 20
2545.6710052878001989
 30
0.0
 40
81.3442189935026505
 50
172.9335969517061073
 51
263.1013322066526143
  0
LINE
  5
809
  8
0
 10
2323.791931594019843
 20
2555.6779364945468842
 30
0.0
 11
2323.791931594019843
 21
2618.4538713485740118
 31
0.0
  0
LINE
  5
80A
  8
0
 10
1580.2392864114549411
 20
3042.899281474430154
 30
0.0
 11
2058.1802023647292117
 21
3042.899281474430154
 31
0.0
  0
ARC
  5
80B
  8
0
 10
2161.0795801944518644
 20
3045.8651490466368159
 30
0.0
 40
102.9421115394475947
 50
181.6509784972305965
 51
256.0513529501873791
  0
ARC
  5
80C
  8
0
 10
2219.5708378569538581
 20
3219.1862608593191908
 30
0.0
 40
285.6452386647462731
 50
253.043813706856497
 51
296.9327190324553953
  0
LINE
  5
80D
  8
0
 10
2348.952106506536893
 20
2964.5223849474350573
 30
0.0
 11
2394.7477201233878077
 21
2771.9920352396097769
 31
0.0
  0
ARC
  5
80E
  8
0
 10
2404.5182797802631285
 20
2691.2367374093478247
 30
0.0
 40
81.3442189935026505
 50
96.8986677933473857
 51
187.0664030482938074
  0
LINE
  5
80F
  8
0
 10
2323.791931594019843
 20
2681.2298062026020489
 30
0.0
 11
2323.791931594019843
 21
2618.4538713485740118
 31
0.0
  0
LINE
  5
810
  8
0
 10
1580.2392864114549411
 20
3042.899281474430154
 30
0.0
 11
1580.2392864114549411
 21
2194.0084612227178695
 31
0.0
  0
LINE
  5
811
  8
0
 10
1458.50076424150393
 20
2557.3899827794089106
 30
0.0
 11
1458.50076424150393
 21
2332.8137429771231837
 31
0.0
  0
LINE
  5
812
  8
0
 10
1458.50076424150393
 20
2332.8137429771231837
 30
0.0
 11
1553.7254071485060649
 21
2332.8137429771231837
 31
0.0
  0
LINE
  5
813
  8
0
 10
1553.7254071485060649
 20
2332.8137429771231837
 30
0.0
 11
1553.7254071485060649
 21
2557.3899827794089106
 31
0.0
  0
LINE
  5
814
  8
0
 10
1553.7254071485060649
 20
2557.3899827794089106
 30
0.0
 11
1458.50076424150393
 21
2557.3899827794089106
 31
0.0
  0
LINE
  5
815
  8
0
 10
1561.1300996272400425
 20
1955.4813546782029334
 30
0.0
 11
2206.1344249640569615
 21
1955.4813546782029334
 31
0.0
  0
ARC
  5
816
  8
0
 10
2333.1496139420842155
 20
2166.9985436844431206
 30
0.0
 40
246.7232852331241872
 50
197.6178730653059858
 51
239.0153592892314975
  0
LINE
  5
817
  8
0
 10
2097.9985639108540454
 20
2092.3234933300218472
 30
0.0
 11
1562.073236179847072
 21
2073.3999674610590773
 31
0.0
  0
LINE
  5
818
  8
0
 10
1562.073236179847072
 20
2073.3999674610590773
 30
0.0
 11
1561.1300996272400425
 21
1955.4813546782029334
 31
0.0
  0
LINE
  5
819
  8
0
 10
2132.9087764643318224
 20
2205.5130676562080225
 30
0.0
 11
2132.9087764643318224
 21
2040.4943433675819051
 31
0.0
  0
LINE
  5
81A
  8
0
 10
2132.9087764643318224
 20
2040.4943433675819051
 30
0.0
 11
2197.2280731898349586
 21
2040.4943433675819051
 31
0.0
  0
LINE
  5
81B
  8
0
 10
2132.9087764643318224
 20
2205.5130676562080225
 30
0.0
 11
2195.6440476202551508
 21
2205.5130676562080225
 31
0.0
  0
ARC
  5
81C
  8
0
 10
2249.7329390759241505
 20
2172.5109508019918394
 30
0.0
 40
63.3620382860467686
 50
148.6107157306387876
 51
233.0774941546987975
  0
ARC
  5
81D
  8
0
 10
2254.8350020849748034
 20
2072.232100128518141
 30
0.0
 40
65.7711445920317743
 50
131.0185392773508113
 51
208.8519709223556902
  0
LINE
  5
81E
  8
0
 10
2248.2755665098670761
 20
2212.3334400057760831
 30
0.0
 11
2248.2755665098670761
 21
1987.757200203488992
 31
0.0
  0
LINE
  5
81F
  8
0
 10
2248.2755665098670761
 20
1987.757200203488992
 30
0.0
 11
2343.5002094168680742
 21
1987.757200203488992
 31
0.0
  0
LINE
  5
820
  8
0
 10
2343.5002094168680742
 20
1987.757200203488992
 30
0.0
 11
2343.5002094168680742
 21
2212.3334400057760831
 31
0.0
  0
LINE
  5
821
  8
0
 10
2343.5002094168680742
 20
2212.3334400057760831
 30
0.0
 11
2248.2755665098670761
 21
2212.3334400057760831
 31
0.0
  0
LINE
  5
822
  8
0
 10
1632.2176536543349812
 20
3056.4411043993031853
 30
0.0
 11
2353.1505539032000343
 21
3056.4411043993018211
 31
0.0
  0
ARC
  5
823
  8
0
 10
2509.3092940445822023
 20
3087.064138859088871
 30
0.0
 40
159.1330335350538121
 50
102.094782234306507
 51
191.0950209906133068
  0
LINE
  5
824
  8
0
 10
2475.966226220235967
 20
3242.6647885689458235
 30
0.0
 11
2375.960354356577227
 21
3433.0867420182621572
 31
0.0
  0
ARC
  5
825
  8
0
 10
2287.2388408729430012
 20
3601.6718009634128066
 30
0.0
 40
190.5057192169475968
 50
218.5083966477438082
 51
297.7565538555388116
  0
LINE
  5
826
  8
0
 10
2138.16489233208722
 20
3483.0573544537051021
 30
0.0
 11
1632.2176536543349812
 21
3483.0573544537019188
 31
0.0
  0
ARC
  5
827
  8
0
 10
2279.0763495247661012
 20
3231.7821113661148047
 30
0.0
 40
693.9491481455391977
 50
158.7711112332339098
 51
183.4708180726078979
  0
LINE
  5
828
  8
0
 10
1586.4000691071789788
 20
3189.7703182744571677
 30
0.0
 11
1632.2176536543349812
 21
3056.4411043993031853
 31
0.0
  0
ARC
  5
829
  8
0
 10
1670.7871805803570169
 20
3506.0747437736899883
 30
0.0
 40
81.9740741960120261
 50
352.7221570299359996
 51
45.8780194799781
  0
LINE
  5
82A
  8
0
 10
1752.1008311372570461
 20
3495.6901843991331589
 30
0.0
 11
2270.7549549501209185
 21
3519.055445950072226
 31
0.0
  0
LINE
  5
82B
  8
0
 10
2270.7549549501209185
 20
3519.055445950072226
 30
0.0
 11
2258.6328229705800368
 21
3596.0742780744240008
 31
0.0
  0
LINE
  5
82C
  8
0
 10
2258.6328229705800368
 20
3596.0742780744240008
 30
0.0
 11
1727.8565671781739184
 21
3564.9205928511069033
 31
0.0
  0
LINE
  5
82D
  8
0
 10
1732.2756010697059992
 20
3587.5069187927520034
 30
0.0
 11
2248.3321244711860345
 21
3624.7182658205661028
 31
0.0
  0
ARC
  5
82E
  8
0
 10
2285.8834338205319909
 20
3755.2947794061410605
 30
0.0
 40
135.8687849876278051
 50
175.209893895528495
 51
253.9557762264169867
  0
LINE
  5
82F
  8
0
 10
2150.4891985574608952
 20
3766.6406064602801962
 30
0.0
 11
1697.6409354650770638
 21
3645.4873893027779559
 31
0.0
  0
ARC
  5
830
  8
0
 10
1674.8475486305160302
 20
3592.5369938496160103
 30
0.0
 40
57.6479215760288994
 50
354.9942855832533155
 51
66.7097273391193539
  0
LINE
  5
831
  8
0
 10
2402.354723605531035
 20
3162.1055057450957975
 30
0.0
 11
2402.354723605531035
 21
2997.0867814564689979
 31
0.0
  0
LINE
  5
832
  8
0
 10
2402.354723605531035
 20
2997.0867814564689979
 30
0.0
 11
2466.6740203310350807
 21
2997.0867814564689979
 31
0.0
  0
LINE
  5
833
  8
0
 10
2402.354723605531035
 20
3162.1055057450957975
 30
0.0
 11
2465.0899947614529992
 21
3162.1055057450957975
 31
0.0
  0
ARC
  5
834
  8
0
 10
2519.1788862171229084
 20
3129.1033888908791596
 30
0.0
 40
63.3620382860467686
 50
148.6107157306385886
 51
233.0774941546991954
  0
ARC
  5
835
  8
0
 10
2524.2809492261740161
 20
3028.8245382174068254
 30
0.0
 40
65.7711445920317743
 50
131.0185392773495892
 51
208.8519709223552923
  0
CIRCLE
  5
836
  8
0
 10
2368.3272502900249492
 20
3655.3286272838449804
 30
0.0
 40
93.9125106675287213
  0
LINE
  5
837
  8
0
 10
2466.3838491197820986
 20
1990.7900576205749985
 30
0.0
 11
2944.3247650730550049
 21
1990.7900576205749985
 31
0.0
  0
ARC
  5
838
  8
0
 10
3047.2241429027790218
 20
1987.8241900483669724
 30
0.0
 40
102.9421115394475947
 50
103.9486470497974011
 51
178.3490215027694035
  0
ARC
  5
839
  8
0
 10
3105.7154005652801061
 20
1814.5030782356839154
 30
0.0
 40
285.6452386647462731
 50
63.0672809675434394
 51
106.9561862931273026
  0
LINE
  5
83A
  8
0
 10
3235.0966692148640504
 20
2069.1669541475689584
 30
0.0
 11
3280.8922828317149651
 21
2261.697303855393784
 31
0.0
  0
ARC
  5
83B
  8
0
 10
3290.6628424885889217
 20
2342.452601685656191
 30
0.0
 40
81.3442189935026505
 50
172.9335969517061073
 51
263.1013322066652904
  0
LINE
  5
83C
  8
0
 10
3209.9364943023470005
 20
2352.4595328924028763
 30
0.0
 11
3209.9364943023470005
 21
2415.2354677464309134
 31
0.0
  0
LINE
  5
83D
  8
0
 10
2466.3838491197820986
 20
2839.6808778722861462
 30
0.0
 11
2944.3247650730550049
 21
2839.6808778722861462
 31
0.0
  0
ARC
  5
83E
  8
0
 10
3047.2241429027790218
 20
2842.6467454444941723
 30
0.0
 40
102.9421115394475947
 50
181.6509784972305965
 51
256.0513529502024994
  0
ARC
  5
83F
  8
0
 10
3105.7154005652801061
 20
3015.9678572571770019
 30
0.0
 40
285.6452386647462731
 50
253.0438137068717026
 51
296.9327190324553953
  0
LINE
  5
840
  8
0
 10
3235.0966692148640504
 20
2761.3039813452910494
 30
0.0
 11
3280.8922828317149651
 21
2568.7736316374671333
 31
0.0
  0
ARC
  5
841
  8
0
 10
3290.6628424885889217
 20
2488.0183338072051811
 30
0.0
 40
81.3442189935026505
 50
96.8986677933601612
 51
187.0664030482938074
  0
LINE
  5
842
  8
0
 10
3209.9364943023470005
 20
2478.0114026004571315
 30
0.0
 11
3209.9364943023470005
 21
2415.2354677464309134
 31
0.0
  0
LINE
  5
843
  8
0
 10
2466.3838491197820986
 20
2839.6808778722861462
 30
0.0
 11
2466.3838491197820986
 21
1990.7900576205749985
 31
0.0
  0
LINE
  5
844
  8
0
 10
3299.0121064218838001
 20
2849.4977846858591874
 30
0.0
 11
2821.0711904686099842
 21
2849.4977846858660087
 31
0.0
  0
ARC
  5
845
  8
0
 10
2718.1718126388877863
 20
2846.531917113658892
 30
0.0
 40
102.9421115394475947
 50
1.650978497230595
 51
76.0513529502277805
  0
ARC
  5
846
  8
0
 10
2659.6805549763821546
 20
2673.2108053009769719
 30
0.0
 40
285.6452386647462731
 50
73.0438137068971258
 51
116.9327190324380012
  0
LINE
  5
847
  8
0
 10
2530.2992863268018482
 20
2927.8746812128651982
 30
0.0
 11
2484.5036727099550262
 21
3120.4050309206891143
 31
0.0
  0
ARC
  5
848
  8
0
 10
2474.7331130530819792
 20
3201.160328750951976
 30
0.0
 40
81.3442189935026505
 50
276.8986677933605165
 51
7.0664030482938056
  0
LINE
  5
849
  8
0
 10
2555.4594612393248099
 20
3211.1672599576968423
 30
0.0
 11
2555.4594612393248099
 21
3273.9431948117257889
 31
0.0
  0
LINE
  5
84A
  8
0
 10
3299.0121064218960782
 20
3698.3886049375701077
 30
0.0
 11
2821.0711904686208982
 21
3698.3886049375769289
 31
0.0
  0
ARC
  5
84B
  8
0
 10
2718.1718126388977907
 20
3701.3544725097858645
 30
0.0
 40
102.9421115394475947
 50
283.9486470497720916
 51
358.3490215027694035
  0
ARC
  5
84C
  8
0
 10
2659.6805549763989802
 20
3874.6755843224691489
 30
0.0
 40
285.6452386647462731
 50
243.0672809675619988
 51
286.9561862931026894
  0
LINE
  5
84D
  8
0
 10
2530.2992863268109431
 20
3620.0117084105859249
 30
0.0
 11
2484.5036727099591189
 21
3427.4813587027620088
 31
0.0
  0
ARC
  5
84E
  8
0
 10
2474.7331130530837981
 20
3346.7260608724991471
 30
0.0
 40
81.3442189935026505
 50
352.9335969517061926
 51
83.1013322066394693
  0
LINE
  5
84F
  8
0
 10
2555.4594612393270836
 20
3336.7191296657510975
 30
0.0
 11
2555.4594612393248099
 21
3273.9431948117257889
 31
0.0
  0
LINE
  5
850
  8
0
 10
3299.0121064218960782
 20
3698.3886049375701077
 30
0.0
 11
3299.0121064218838001
 21
2849.4977846858591874
 31
0.0
  0
LINE
  5
851
  8
0
 10
3383.6022186743389284
 20
1990.7900576205749985
 30
0.0
 11
4104.5351189232032993
 21
1990.790057620574089
 31
0.0
  0
ARC
  5
852
  8
0
 10
4260.6938590645850127
 20
2021.413092080360002
 30
0.0
 40
159.1330335350538121
 50
102.0947822343052991
 51
191.0950209906131931
  0
LINE
  5
853
  8
0
 10
4227.3507912402392321
 20
2177.0137417902169545
 30
0.0
 11
4127.3449193765809468
 21
2367.4356952395341978
 31
0.0
  0
ARC
  5
854
  8
0
 10
4038.6234058929471757
 20
2536.0207541846848471
 30
0.0
 40
190.5057192169475968
 50
218.5083966477438082
 51
297.7565538555397211
  0
LINE
  5
855
  8
0
 10
3889.5494573520900303
 20
2417.4063076749748689
 30
0.0
 11
3383.6022186743389284
 21
2417.4063076749739594
 31
0.0
  0
ARC
  5
856
  8
0
 10
4030.4609145447670926
 20
2166.1310645873868452
 30
0.0
 40
693.9491481455391977
 50
158.771111233233313
 51
183.4708180726078979
  0
LINE
  5
857
  8
0
 10
3337.784634127182926
 20
2124.119271495727844
 30
0.0
 11
3383.6022186743389284
 21
1990.7900576205749985
 31
0.0
  0
LINE
  5
858
  8
0
 10
3383.6022186743412021
 20
2433.8559777562059026
 30
0.0
 11
4104.5351189232032993
 21
2433.8559777562059026
 31
0.0
  0
ARC
  5
859
  8
0
 10
4260.6938590645850127
 20
2464.4790122159911334
 30
0.0
 40
159.1330335350538121
 50
102.094782234306507
 51
191.0950209906131931
  0
LINE
  5
85A
  8
0
 10
4227.3507912402392321
 20
2620.079661925848086
 30
0.0
 11
4127.3449193765809468
 21
2810.5016153751648744
 31
0.0
  0
ARC
  5
85B
  8
0
 10
4038.6234058929471757
 20
2979.0866743203159785
 30
0.0
 40
190.5057192169475968
 50
218.5083966477438082
 51
297.7565538555376179
  0
LINE
  5
85C
  8
0
 10
3889.5494573520909398
 20
2860.4722278106069098
 30
0.0
 11
3383.6022186743412021
 21
2860.4722278106050908
 31
0.0
  0
ARC
  5
85D
  8
0
 10
4030.4609145447711853
 20
2609.1969847230179766
 30
0.0
 40
693.9491481455391977
 50
158.771111233233313
 51
183.4708180726078979
  0
LINE
  5
85E
  8
0
 10
3337.7846341271838355
 20
2567.1851916313598849
 30
0.0
 11
3383.6022186743412021
 21
2433.8559777562059026
 31
0.0
  0
LINE
  5
85F
  8
0
 10
3383.6022186743412021
 20
2894.0903724728891575
 30
0.0
 11
4028.6065440111560747
 21
2894.0903724728891575
 31
0.0
  0
ARC
  5
860
  8
0
 10
4155.6217329891842382
 20
3105.6075614791279804
 30
0.0
 40
246.7232852331241872
 50
197.6178730653062985
 51
239.0153592892320091
  0
LINE
  5
861
  8
0
 10
3920.4706829579558871
 20
3030.9325111247071618
 30
0.0
 11
3384.5453552269468673
 21
3012.0089852557439372
 31
0.0
  0
LINE
  5
862
  8
0
 10
3384.5453552269468673
 20
3012.0089852557439372
 30
0.0
 11
3383.6022186743412021
 21
2894.0903724728891575
 31
0.0
  0
ARC
  5
863
  8
0
 10
3375.0887103715640478
 20
3047.0836090104571667
 30
0.0
 40
81.9740741960120261
 50
352.7221570299358859
 51
45.878019479980523
  0
LINE
  5
864
  8
0
 10
3456.402360928464077
 20
3036.6990496359007921
 30
0.0
 11
3975.0564847413288589
 21
3060.0643111868398591
 31
0.0
  0
LINE
  5
865
  8
0
 10
3975.0564847413288589
 20
3060.0643111868398591
 30
0.0
 11
3962.9343527617888867
 21
3137.0831433111939077
 31
0.0
  0
LINE
  5
866
  8
0
 10
3962.9343527617888867
 20
3137.0831433111939077
 30
0.0
 11
3432.1580969693809493
 21
3105.9294580878740817
 31
0.0
  0
LINE
  5
867
  8
0
 10
3436.5771308609128027
 20
3128.5157840295210008
 30
0.0
 11
3952.6336542623930654
 21
3165.7271310573341907
 31
0.0
  0
ARC
  5
868
  8
0
 10
3990.1849636117390219
 20
3296.3036446429100579
 30
0.0
 40
135.8687849876278051
 50
175.2098938955155063
 51
253.9557762264072096
  0
LINE
  5
869
  8
0
 10
3854.7907283486679262
 20
3307.6494716970501031
 30
0.0
 11
3401.9424652562829579
 21
3186.4962545395451343
 31
0.0
  0
ARC
  5
86A
  8
0
 10
3379.1490784217248802
 20
3133.5458590863840982
 30
0.0
 40
57.6479215760288994
 50
354.9942855832533155
 51
66.709727339121514
  0
ARC
  5
86B
  8
0
 10
3394.7502175133668061
 20
3408.2781761841451953
 30
0.0
 40
68.0531805676430395
 50
12.9844000250309293
 51
158.9066663783877118
  0
LINE
  5
86C
  8
0
 10
3331.256912119999015
 20
3432.7697166746252151
 30
0.0
 11
3331.256912119999015
 21
3260.7117804596391579
 31
0.0
  0
LINE
  5
86D
  8
0
 10
3461.0633651102189106
 20
3423.5687563291389779
 30
0.0
 11
3461.0633651102189106
 21
3260.7117804596391579
 31
0.0
  0
ARC
  5
86E
  8
0
 10
3396.1601386151100996
 20
3189.6149113307751577
 30
0.0
 40
96.2662641292489241
 50
47.6075316336350198
 51
132.3924683663649944
  0
ARC
  5
86F
  8
0
 10
4056.2846837775359745
 20
3515.5908376315378518
 30
0.0
 40
81.9740741960120261
 50
172.7221570299228119
 51
225.8780194799570893
  0
LINE
  5
870
  8
0
 10
3974.9710332206391286
 20
3525.9753970060942265
 30
0.0
 11
3456.3169094077729824
 21
3502.6101354551551594
 31
0.0
  0
LINE
  5
871
  8
0
 10
3456.3169094077729824
 20
3502.6101354551551594
 30
0.0
 11
3468.4390413873129546
 21
3425.5913033308029298
 31
0.0
  0
LINE
  5
872
  8
0
 10
3468.4390413873129546
 20
3425.5913033308029298
 30
0.0
 11
3999.2152971797199825
 21
3456.7449885541200274
 31
0.0
  0
LINE
  5
873
  8
0
 10
3994.7962632881881291
 20
3434.1586626124749273
 30
0.0
 11
3478.7397398867087759
 21
3396.9473155846608279
 31
0.0
  0
ARC
  5
874
  8
0
 10
3441.1884305373628195
 20
3266.3708019990858702
 30
0.0
 40
135.8687849876278051
 50
355.2098938955285234
 51
73.9557762264061296
  0
LINE
  5
875
  8
0
 10
3576.5826658004339151
 20
3255.0249749449449155
 30
0.0
 11
4029.430928892817974
 21
3376.1781921024498843
 31
0.0
  0
ARC
  5
876
  8
0
 10
4052.2243157273787801
 20
3429.1285875556109204
 30
0.0
 40
57.6479215760288994
 50
174.9942855832402131
 51
246.7097273391705983
  0
LINE
  5
877
  8
0
 10
4044.5901426464261021
 20
3356.4429153313890311
 30
0.0
 11
4524.8903673885133685
 21
3234.3542721041858385
 31
0.0
  0
LINE
  5
878
  8
0
 10
4524.8903673885133685
 20
3234.3542721041858385
 30
0.0
 11
4524.8903673885133685
 21
3019.3117673892470521
 31
0.0
  0
LINE
  5
879
  8
0
 10
4524.8903673885133685
 20
3019.3117673892470521
 30
0.0
 11
4018.2152669230690663
 21
2933.2947692897519119
 31
0.0
  0
ARC
  5
87A
  8
0
 10
3907.9048869227258365
 20
3041.6389330881302158
 30
0.0
 40
154.618361668305397
 50
315.5152092960958043
 51
52.0713711187293384
  0
ARC
  5
87B
  8
0
 10
4112.4812864117347999
 20
3240.8630860747371116
 30
0.0
 40
134.0444117923557883
 50
120.4298110608338988
 51
215.198539245437388
  0
LINE
  5
87C
  8
0
 10
4532.9676995115505633
 20
3253.3552611668587815
 30
0.0
 11
4052.667474769465116
 21
3375.443904394061974
 31
0.0
  0
LINE
  5
87D
  8
0
 10
4052.667474769465116
 20
3375.443904394061974
 30
0.0
 11
4052.667474769465116
 21
3590.4864091090012153
 31
0.0
  0
LINE
  5
87E
  8
0
 10
4052.667474769465116
 20
3590.4864091090012153
 30
0.0
 11
4559.3425752349075992
 21
3676.5034072084968102
 31
0.0
  0
ARC
  5
87F
  8
0
 10
4731.345855172415213
 20
3572.2496247560570737
 30
0.0
 40
201.1317465367012005
 50
148.7793144491525084
 51
218.8072659656633903
  0
ARC
  5
880
  8
0
 10
4346.4932316071672176
 20
3394.5430049535320904
 30
0.0
 40
233.8946475996962135
 50
322.8690887592347849
 51
12.7592615470029909
  0
ARC
  5
881
  8
0
 10
3247.081007739341203
 20
3558.7676624892869768
 30
0.0
 40
215.947109008751994
 50
15.0092997952978298
 51
69.2979352226987544
  0
LINE
  5
882
  8
0
 10
3455.6608228766240245
 20
3614.6927427890482249
 30
0.0
 11
4121.5041291592970083
 21
3614.6927427890482249
 31
0.0
  0
LINE
  5
883
  8
0
 10
4121.5041291592970083
 20
3614.6927427890482249
 30
0.0
 11
4121.5041291592970083
 21
3714.3971870779519122
 31
0.0
  0
LINE
  5
884
  8
0
 10
4121.5041291592970083
 20
3714.3971870779519122
 30
0.0
 11
3323.420158049856127
 21
3760.7713456713190681
 31
0.0
  0
LINE
  5
885
  8
0
 10
4274.3887355226970612
 20
1990.790057620574089
 30
0.0
 11
5113.9955324860593464
 21
1990.790057620574089
 31
0.0
  0
LINE
  5
886
  8
0
 10
4274.3887355226970612
 20
1990.790057620574089
 30
0.0
 11
4316.9103431420726338
 21
2458.8578822453791872
 31
0.0
  0
LINE
  5
887
  8
0
 10
4316.9103431420726338
 20
2458.8578822453791872
 30
0.0
 11
5096.7994016341081078
 21
2674.6667574746661558
 31
0.0
  0
ARC
  5
888
  8
0
 10
4978.5095874290718712
 20
2395.0655775442310187
 30
0.0
 40
303.5939722114940764
 50
307.4540452070920082
 51
67.0684197203202643
  0
ARC
  5
889
  8
0
 10
5265.2442188795066613
 20
2034.299943674448059
 30
0.0
 40
157.3825762915460871
 50
130.4520288704599125
 51
196.0490012827141015
  0
LINE
  5
88A
  8
0
 10
4185.3075937768771837
 20
2893.9966935800089232
 30
0.0
 11
4185.3075937768771837
 21
2737.8166482868041385
 31
0.0
  0
LINE
  5
88B
  8
0
 10
4185.3075937768771837
 20
2737.8166482868041385
 30
0.0
 11
4358.1336253983899951
 21
2737.8166482868041385
 31
0.0
  0
LINE
  5
88C
  8
0
 10
4358.1336253983899951
 20
2737.8166482868041385
 30
0.0
 11
4358.1336253983899951
 21
2893.9966935800089232
 31
0.0
  0
LINE
  5
88D
  8
0
 10
4358.1336253983899951
 20
2893.9966935800089232
 30
0.0
 11
4185.3075937768771837
 21
2893.9966935800089232
 31
0.0
  0
CIRCLE
  5
88E
  8
0
 10
4385.9785153923476173
 20
2618.4611912968230172
 30
0.0
 40
93.9125106675287213
  0
LINE
  5
88F
  8
0
 10
6311.4724231945720021
 20
1990.790057620574089
 30
0.0
 11
5471.8656262312097169
 21
1990.790057620574089
 31
0.0
  0
LINE
  5
890
  8
0
 10
6311.4724231945720021
 20
1990.790057620574089
 30
0.0
 11
6268.9508155751964296
 21
2458.8578822453791872
 31
0.0
  0
LINE
  5
891
  8
0
 10
6268.9508155751964296
 20
2458.8578822453791872
 30
0.0
 11
5489.0617570831627745
 21
2674.6667574746661558
 31
0.0
  0
ARC
  5
892
  8
0
 10
5607.3515712881990112
 20
2395.0655775442310187
 30
0.0
 40
303.5939722114940764
 50
112.9315802796768935
 51
232.5459547928676898
  0
ARC
  5
893
  8
0
 10
5320.61693983776604
 20
2034.2999436744489685
 30
0.0
 40
157.382576291543387
 50
343.9509987172858132
 51
49.5479711295624128
  0
LINE
  5
894
  8
0
 10
5166.8636618236168943
 20
1995.5899162978730601
 30
0.0
 11
5430.8936206854195916
 21
1995.5899162979039829
 31
0.0
  0
LINE
  5
895
  8
0
 10
5430.8936206854195916
 20
1995.5899162979039829
 30
0.0
 11
5430.8936206854077682
 21
2098.5007910587091828
 31
0.0
  0
LINE
  5
896
  8
0
 10
5166.8636618236168943
 20
1995.5899162978730601
 30
0.0
 11
5166.8636618236059803
 21
2095.9663501473501128
 31
0.0
  0
ARC
  5
897
  8
0
 10
5219.6670487903429603
 20
2182.5085764764271516
 30
0.0
 40
101.3792612576747985
 50
238.6107157306506963
 51
323.0774941547005028
  0
ARC
  5
898
  8
0
 10
5380.1132098678990587
 20
2190.6718772909248401
 30
0.0
 40
105.2338313472507991
 50
221.0185392773624073
 51
298.8519709223436962
  0
LINE
  5
899
  8
0
 10
4589.8661997039816924
 20
2612.5897071580147895
 30
0.0
 11
4987.2952648011851124
 21
2726.8935177843632118
 31
0.0
  0
LINE
  5
89A
  8
0
 10
4987.2952648011851124
 20
2726.8935177843632118
 30
0.0
 11
4987.2952648011851124
 21
2995.507485089508009
 31
0.0
  0
LINE
  5
89B
  8
0
 10
4987.2952648011851124
 20
2995.507485089508009
 30
0.0
 11
4575.5701788016958744
 21
3049.8017980862728109
 31
0.0
  0
LINE
  5
89C
  8
0
 10
4575.5701788016958744
 20
3049.8017980862728109
 30
0.0
 11
4589.8661997039816924
 21
2612.5897071580147895
 31
0.0
  0
LINE
  5
89D
  8
0
 10
4999.2599967042260687
 20
3477.4437455490538014
 30
0.0
 11
4601.8309316070262867
 21
3363.1399349227049242
 31
0.0
  0
LINE
  5
89E
  8
0
 10
4601.8309316070262867
 20
3363.1399349227049242
 30
0.0
 11
4601.8309316070262867
 21
3094.5259676175610366
 31
0.0
  0
LINE
  5
89F
  8
0
 10
4601.8309316070262867
 20
3094.5259676175610366
 30
0.0
 11
5013.5560176065146152
 21
3040.2316546207948704
 31
0.0
  0
LINE
  5
8A0
  8
0
 10
5013.5560176065146152
 20
3040.2316546207948704
 30
0.0
 11
4999.2599967042260687
 21
3477.4437455490538014
 31
0.0
  0
LINE
  5
8A1
  8
0
 10
4599.2903128161960922
 20
3386.9335586487131877
 30
0.0
 11
4996.7193779133976932
 21
3501.2373692750620648
 31
0.0
  0
LINE
  5
8A2
  8
0
 10
4996.7193779133976932
 20
3501.2373692750620648
 30
0.0
 11
4996.7193779133976932
 21
3769.8513365802059525
 31
0.0
  0
LINE
  5
8A3
  8
0
 10
4996.7193779133976932
 20
3769.8513365802059525
 30
0.0
 11
4584.9942919139102742
 21
3824.1456495769712092
 31
0.0
  0
LINE
  5
8A4
  8
0
 10
4584.9942919139102742
 20
3824.1456495769712092
 30
0.0
 11
4599.2903128161960922
 21
3386.9335586487131877
 31
0.0
  0
LINE
  5
8A5
  8
0
 10
5054.9212489157216623
 20
2710.4049172850050127
 30
0.0
 11
5532.8621648689959329
 21
2710.4049172850050127
 31
0.0
  0
ARC
  5
8A6
  8
0
 10
5635.7615426987204046
 20
2707.4390497127969866
 30
0.0
 40
102.9421115394475947
 50
103.9486470497974011
 51
178.3490215027694035
  0
ARC
  5
8A7
  8
0
 10
5694.2528003612233078
 20
2534.1179379001150664
 30
0.0
 40
285.6452386647462731
 50
63.0672809675434394
 51
106.9561862931273026
  0
LINE
  5
8A8
  8
0
 10
5823.6340690108036142
 20
2788.7818138119992
 30
0.0
 11
5869.4296826276540742
 21
2981.3121635198240256
 31
0.0
  0
ARC
  5
8A9
  8
0
 10
5879.2002422845280307
 20
3062.0674613500859778
 30
0.0
 40
81.3442189935026505
 50
172.9335969517061926
 51
263.101332206665802
  0
LINE
  5
8AA
  8
0
 10
5798.473894098287019
 20
3072.0743925568331179
 30
0.0
 11
5798.473894098287019
 21
3134.8503274108597907
 31
0.0
  0
LINE
  5
8AB
  8
0
 10
5054.9212489157216623
 20
3559.2957375367168424
 30
0.0
 11
5532.8621648689959329
 21
3559.2957375367168424
 31
0.0
  0
ARC
  5
8AC
  8
0
 10
5635.7615426987204046
 20
3562.2616051089239591
 30
0.0
 40
102.9421115394475947
 50
181.6509784972305965
 51
256.0513529502024994
  0
ARC
  5
8AD
  8
0
 10
5694.2528003612233078
 20
3735.5827169216058792
 30
0.0
 40
285.6452386647462731
 50
253.0438137068724984
 51
296.9327190324564754
  0
LINE
  5
8AE
  8
0
 10
5823.6340690108036142
 20
3480.9188410097208362
 30
0.0
 11
5869.4296826276540742
 21
3288.3884913018978295
 31
0.0
  0
ARC
  5
8AF
  8
0
 10
5879.2002422845280307
 20
3207.6331934716349679
 30
0.0
 40
81.3442189935026505
 50
96.8986677933604739
 51
187.0664030482938074
  0
LINE
  5
8B0
  8
0
 10
5798.473894098287019
 20
3197.6262622648878278
 30
0.0
 11
5798.473894098287019
 21
3134.8503274108597907
 31
0.0
  0
LINE
  5
8B1
  8
0
 10
5054.9212489157216623
 20
3559.2957375367168424
 30
0.0
 11
5054.9212489157216623
 21
2710.4049172850050127
 31
0.0
  0
ARC
  5
8B2
  8
0
 10
5680.6963198874127556
 20
2706.4427784843292102
 30
0.0
 40
68.0531805676430395
 50
102.9844000250453036
 51
248.9066663783818001
  0
LINE
  5
8B3
  8
0
 10
5656.2047793969286431
 20
2642.9494730909627833
 30
0.0
 11
5828.2627156119160645
 21
2642.9494730909500504
 31
0.0
  0
LINE
  5
8B4
  8
0
 10
5665.4057397424248848
 20
2772.7559260811822242
 30
0.0
 11
5828.2627156119287974
 21
2772.755926081168127
 31
0.0
  0
ARC
  5
8B5
  8
0
 10
5899.3595847407859765
 20
2707.8526995860538591
 30
0.0
 40
96.2662641292489241
 50
137.6075316336261096
 51
222.3924683663738051
  0
LINE
  5
8B6
  8
0
 10
6305.7832680433994028
 20
2478.4623167212589578
 30
0.0
 11
5908.3542029461950733
 21
2592.766127347607835
 31
0.0
  0
LINE
  5
8B7
  8
0
 10
5908.3542029461950733
 20
2592.766127347607835
 30
0.0
 11
5908.3542029461950733
 21
2861.3800946527521774
 31
0.0
  0
LINE
  5
8B8
  8
0
 10
5908.3542029461950733
 20
2861.3800946527521774
 30
0.0
 11
6320.0792889456870398
 21
2915.6744076495187983
 31
0.0
  0
LINE
  5
8B9
  8
0
 10
6320.0792889456870398
 20
2915.6744076495187983
 30
0.0
 11
6305.7832680433994028
 21
2478.4623167212589578
 31
0.0
  0
LINE
  5
8BA
  8
0
 10
5896.3894710431532076
 20
3343.3163551122979698
 30
0.0
 11
6293.8185361403557181
 21
3229.0125444859500021
 31
0.0
  0
LINE
  5
8BB
  8
0
 10
6293.8185361403557181
 20
3229.0125444859500021
 30
0.0
 11
6293.8185361403557181
 21
2960.398577180805205
 31
0.0
  0
LINE
  5
8BC
  8
0
 10
6293.8185361403557181
 20
2960.398577180805205
 30
0.0
 11
5882.0934501408673896
 21
2906.1042641840390388
 31
0.0
  0
LINE
  5
8BD
  8
0
 10
5882.0934501408673896
 20
2906.1042641840390388
 30
0.0
 11
5896.3894710431532076
 21
3343.3163551122979698
 31
0.0
  0
LINE
  5
8BE
  8
0
 10
6296.3591549311850031
 20
3252.8061682119569014
 30
0.0
 11
5898.9300898339815831
 21
3367.1099788383057785
 31
0.0
  0
LINE
  5
8BF
  8
0
 10
5898.9300898339815831
 20
3367.1099788383057785
 30
0.0
 11
5898.9300898339815831
 21
3635.7239461434478471
 31
0.0
  0
LINE
  5
8C0
  8
0
 10
5898.9300898339815831
 20
3635.7239461434478471
 30
0.0
 11
6310.6551758334708211
 21
3690.0182591402158323
 31
0.0
  0
LINE
  5
8C1
  8
0
 10
6310.6551758334708211
 20
3690.0182591402158323
 30
0.0
 11
6296.3591549311850031
 21
3252.8061682119569014
 31
0.0
  0
ARC
  5
8C2
  8
0
 10
4965.1324967176078644
 20
3558.7676624892869768
 30
0.0
 40
215.947109008751994
 50
15.00929979531087
 51
69.2979352226987544
  0
LINE
  5
8C3
  8
0
 10
5173.7123118548915954
 20
3614.6927427890482249
 30
0.0
 11
5839.555618137563215
 21
3614.6927427890482249
 31
0.0
  0
LINE
  5
8C4
  8
0
 10
5839.555618137563215
 20
3614.6927427890482249
 30
0.0
 11
5839.555618137563215
 21
3714.3971870779519122
 31
0.0
  0
LINE
  5
8C5
  8
0
 10
5839.555618137563215
 20
3714.3971870779519122
 30
0.0
 11
5041.471647028121879
 21
3760.7713456713190681
 31
0.0
  0
LINE
  5
8C6
  8
0
 10
6398.150053404388018
 20
1990.7900576205749985
 30
0.0
 11
7119.0829536532528437
 21
1990.790057620574089
 31
0.0
  0
ARC
  5
8C7
  8
0
 10
7275.241693794632738
 20
2021.413092080360002
 30
0.0
 40
159.1330335350538121
 50
102.0947822343062938
 51
191.0950209906131931
  0
LINE
  5
8C8
  8
0
 10
7241.8986259702887764
 20
2177.0137417902169545
 30
0.0
 11
7141.8927541066314006
 21
2367.4356952395341978
 31
0.0
  0
ARC
  5
8C9
  8
0
 10
7053.1712406229971748
 20
2536.0207541846848471
 30
0.0
 40
190.5057192169475968
 50
218.5083966477438935
 51
297.7565538555392095
  0
LINE
  5
8CA
  8
0
 10
6904.0972920821395746
 20
2417.4063076749748689
 30
0.0
 11
6398.150053404388018
 21
2417.4063076749739594
 31
0.0
  0
ARC
  5
8CB
  8
0
 10
7045.0087492748170916
 20
2166.1310645873868452
 30
0.0
 40
693.9491481455391977
 50
158.7711112332206937
 51
183.4708180726078979
  0
LINE
  5
8CC
  8
0
 10
6352.3324688572320156
 20
2124.119271495727844
 30
0.0
 11
6398.150053404388018
 21
1990.7900576205749985
 31
0.0
  0
LINE
  5
8CD
  8
0
 10
6398.1500534043889274
 20
2433.8559777562059026
 30
0.0
 11
7119.0829536532528437
 21
2433.8559777562059026
 31
0.0
  0
ARC
  5
8CE
  8
0
 10
7275.241693794632738
 20
2464.4790122159911334
 30
0.0
 40
159.1330335350538121
 50
102.0947822343063933
 51
191.0950209906131931
  0
LINE
  5
8CF
  8
0
 10
7241.8986259702887764
 20
2620.079661925848086
 30
0.0
 11
7141.8927541066314006
 21
2810.5016153751648744
 31
0.0
  0
ARC
  5
8D0
  8
0
 10
7053.1712406229971748
 20
2979.0866743203159785
 30
0.0
 40
190.5057192169475968
 50
218.5083966477438935
 51
297.7565538555388116
  0
LINE
  5
8D1
  8
0
 10
6904.0972920821395746
 20
2860.4722278106069098
 30
0.0
 11
6398.1500534043889274
 21
2860.4722278106050908
 31
0.0
  0
ARC
  5
8D2
  8
0
 10
7045.0087492748207296
 20
2609.1969847230179766
 30
0.0
 40
693.9491481455391977
 50
158.7711112332206937
 51
183.4708180726078979
  0
LINE
  5
8D3
  8
0
 10
6352.3324688572329251
 20
2567.1851916313598849
 30
0.0
 11
6398.1500534043889274
 21
2433.8559777562059026
 31
0.0
  0
LINE
  5
8D4
  8
0
 10
6398.1500534043889274
 20
2894.0903724728891575
 30
0.0
 11
7043.1543787412047095
 21
2894.0903724728891575
 31
0.0
  0
ARC
  5
8D5
  8
0
 10
7170.1695677192328731
 20
3105.6075614791279804
 30
0.0
 40
246.7232852331241872
 50
197.6178730653066111
 51
239.0153592892314123
  0
LINE
  5
8D6
  8
0
 10
6935.0185176880040672
 20
3030.9325111247071618
 30
0.0
 11
6399.0931899569959569
 21
3012.0089852557439372
 31
0.0
  0
LINE
  5
8D7
  8
0
 10
6399.0931899569959569
 20
3012.0089852557439372
 30
0.0
 11
6398.1500534043889274
 21
2894.0903724728891575
 31
0.0
  0
ARC
  5
8D8
  8
0
 10
6389.6365451016126826
 20
3047.0836090104571667
 30
0.0
 40
81.9740741960120261
 50
352.7221570299358859
 51
45.8780194799917211
  0
LINE
  5
8D9
  8
0
 10
6470.9501956585127118
 20
3036.6990496359007921
 30
0.0
 11
6989.6043194713793127
 21
3060.0643111868398591
 31
0.0
  0
LINE
  5
8DA
  8
0
 10
6989.6043194713793127
 20
3060.0643111868398591
 30
0.0
 11
6977.4821874918388858
 21
3137.0831433111939077
 31
0.0
  0
LINE
  5
8DB
  8
0
 10
6977.4821874918388858
 20
3137.0831433111939077
 30
0.0
 11
6446.7059316994300389
 21
3105.9294580878740817
 31
0.0
  0
LINE
  5
8DC
  8
0
 10
6451.1249655909623471
 20
3128.5157840295210008
 30
0.0
 11
6967.1814889924407908
 21
3165.7271310573341907
 31
0.0
  0
ARC
  5
8DD
  8
0
 10
7004.7327983417872019
 20
3296.3036446429100579
 30
0.0
 40
135.8687849876278051
 50
175.2098938955155063
 51
253.9557762264061864
  0
LINE
  5
8DE
  8
0
 10
6869.3385630787170157
 20
3307.6494716970501031
 30
0.0
 11
6416.4902999863315927
 21
3186.4962545395451343
 31
0.0
  0
ARC
  5
8DF
  8
0
 10
6393.6969131517744245
 20
3133.5458590863840982
 30
0.0
 40
57.6479215760288994
 50
354.9942855832533155
 51
66.7097273391214998
  0
ARC
  5
8E0
  8
0
 10
6409.2980522434163504
 20
3408.2781761841451953
 30
0.0
 40
68.0531805676430395
 50
12.9844000250437599
 51
158.9066663783879108
  0
LINE
  5
8E1
  8
0
 10
6345.8047468500481045
 20
3432.7697166746252151
 30
0.0
 11
6345.8047468500481045
 21
3260.7117804596391579
 31
0.0
  0
LINE
  5
8E2
  8
0
 10
6475.6111998402693644
 20
3423.5687563291389779
 30
0.0
 11
6475.6111998402693644
 21
3260.7117804596391579
 31
0.0
  0
ARC
  5
8E3
  8
0
 10
6410.7079733451600987
 20
3189.6149113307751577
 30
0.0
 40
96.2662641292489241
 50
47.6075316336331085
 51
132.3924683663668134
  0
ARC
  5
8E4
  8
0
 10
7070.8325185075846093
 20
3515.5908376315378518
 30
0.0
 40
81.9740741960120261
 50
172.7221570299228119
 51
225.878019479957004
  0
LINE
  5
8E5
  8
0
 10
6989.5188679506891276
 20
3525.9753970060942265
 30
0.0
 11
6470.8647441378216172
 21
3502.6101354551551594
 31
0.0
  0
LINE
  5
8E6
  8
0
 10
6470.8647441378216172
 20
3502.6101354551551594
 30
0.0
 11
6482.9868761173620442
 21
3425.5913033308029298
 31
0.0
  0
LINE
  5
8E7
  8
0
 10
6482.9868761173620442
 20
3425.5913033308029298
 30
0.0
 11
7013.7631319097690721
 21
3456.7449885541200274
 31
0.0
  0
LINE
  5
8E8
  8
0
 10
7009.3440980182358544
 20
3434.1586626124749273
 30
0.0
 11
6493.2875746167583202
 21
3396.9473155846608279
 31
0.0
  0
ARC
  5
8E9
  8
0
 10
6455.73626526741009
 20
3266.3708019990858702
 30
0.0
 40
135.8687849876278051
 50
355.2098938955285234
 51
73.9557762264061438
  0
LINE
  5
8EA
  8
0
 10
6591.1305005304820952
 20
3255.0249749449449155
 30
0.0
 11
7043.9787636228656993
 21
3376.1781921024498843
 31
0.0
  0
ARC
  5
8EB
  8
0
 10
6261.628842469391202
 20
3558.7676624892869768
 30
0.0
 40
215.947109008751994
 50
15.0092997952977107
 51
69.2979352226982996
  0
LINE
  5
8EC
  8
0
 10
6470.2086576066722046
 20
3614.6927427890482249
 30
0.0
 11
7136.0519638893465526
 21
3614.6927427890482249
 31
0.0
  0
LINE
  5
8ED
  8
0
 10
7136.0519638893465526
 20
3614.6927427890482249
 30
0.0
 11
7136.0519638893465526
 21
3714.3971870779519122
 31
0.0
  0
LINE
  5
8EE
  8
0
 10
7136.0519638893465526
 20
3714.3971870779519122
 30
0.0
 11
6337.9679927799052166
 21
3760.7713456713190681
 31
0.0
  0
ARC
  5
8EF
  8
0
 10
7066.7721504573810307
 20
3429.1285875556300198
 30
0.0
 40
57.6479215760288994
 50
174.9942855832402131
 51
246.7097273391781869
  0
VIEWPORT
  5
295
 67
     1
  8
0
 10
128.5
 20
97.5
 30
0.0
 40
448.3484477296727277
 41
222.1800000000000068
 68
     1
 69
     1
1001
ACAD
1000
MVIEW
1002
{
1070
    16
1010
0.0
1020
0.0
1030
0.0
1010
0.0
1020
0.0
1030
1.0
1040
0.0
1040
222.1800000000000068
1040
128.5
1040
97.5
1040
50.0
1040
0.0
1040
0.0
1070
     0
1070
  1000
1070
     1
1070
     1
1070
     0
1070
     0
1070
     0
1070
     0
1040
0.0
1040
0.0
1040
0.0
1040
10.0
1040
10.0
1040
10.0
1040
10.0
1070
     0
1002
{
1002
}
1002
}
  0
VIEWPORT
  5
299
 67
     1
  8
0
 10
128.5
 20
97.5
 30
0.0
 40
205.5999999999999943
 41
156.0
 68
     2
 69
     2
1001
ACAD
1000
MVIEW
1002
{
1070
    16
1010
-760.3754690064529314
1020
415.4407559275949211
1030
7.098547315027484
1010
0.0
1020
-76.3812648374894536
1030
4375.879731848692245
1040
0.0
1040
343.7783167208571058
1040
1076.3937986070450279
1040
-406.7374513959838964
1040
50.0
1040
0.0
1040
0.0
1070
     0
1070
  1000
1070
     1
1070
     3
1070
     0
1070
     0
1070
     0
1070
     0
1040
0.0
1040
0.0
1040
0.0
1040
10.0
1040
10.0
1040
10.0
1040
10.0
1070
     0
1002
{
1002
}
1002
}
  0
ENDSEC
  0
EOF
