  0
SECTION
  2
HEADER
  9
$ACADVER
  1
AC1009
  9
$INSBASE
 10
0.0
 20
0.0
 30
0.0
  9
$EXTMIN
 10
43.9278773254834434
 20
8.7652526155344663
 30
0.0
  9
$EXTMAX
 10
4227.3507912402392321
 20
1796.3554836994519519
 30
0.0
  9
$LIMMIN
 10
0.0
 20
0.0
  9
$LIMMAX
 10
420.0
 20
297.0
  9
$ORTHOMODE
 70
     0
  9
$REGENMODE
 70
     1
  9
$FILLMODE
 70
     1
  9
$QTEXTMODE
 70
     0
  9
$MIRRTEXT
 70
     0
  9
$DRAGMODE
 70
     2
  9
$LTSCALE
 40
1.0
  9
$OSMODE
 70
    37
  9
$ATTMODE
 70
     1
  9
$TEXTSIZE
 40
2.5
  9
$TRACEWID
 40
1.0
  9
$TEXTSTYLE
  7
STANDARD
  9
$CLAYER
  8
0
  9
$CELTYPE
  6
BYLAYER
  9
$CECOLOR
 62
   256
  9
$DIMSCALE
 40
1.0
  9
$DIMASZ
 40
2.5
  9
$DIMEXO
 40
0.625
  9
$DIMDLI
 40
3.75
  9
$DIMRND
 40
0.0
  9
$DIMDLE
 40
0.0
  9
$DIMEXE
 40
1.25
  9
$DIMTP
 40
0.0
  9
$DIMTM
 40
0.0
  9
$DIMTXT
 40
2.5
  9
$DIMCEN
 40
2.5
  9
$DIMTSZ
 40
0.0
  9
$DIMTOL
 70
     0
  9
$DIMLIM
 70
     0
  9
$DIMTIH
 70
     0
  9
$DIMTOH
 70
     0
  9
$DIMSE1
 70
     0
  9
$DIMSE2
 70
     0
  9
$DIMTAD
 70
     1
  9
$DIMZIN
 70
     8
  9
$DIMBLK
  1

  9
$DIMASO
 70
     1
  9
$DIMSHO
 70
     1
  9
$DIMPOST
  1

  9
$DIMAPOST
  1

  9
$DIMALT
 70
     0
  9
$DIMALTD
 70
     3
  9
$DIMALTF
 40
0.03937007874016
  9
$DIMLFAC
 40
1.0
  9
$DIMTOFL
 70
     1
  9
$DIMTVP
 40
0.0
  9
$DIMTIX
 70
     0
  9
$DIMSOXD
 70
     0
  9
$DIMSAH
 70
     0
  9
$DIMBLK1
  1

  9
$DIMBLK2
  1

  9
$DIMSTYLE
  2
ISO-25
  9
$DIMCLRD
 70
     0
  9
$DIMCLRE
 70
     0
  9
$DIMCLRT
 70
     0
  9
$DIMTFAC
 40
1.0
  9
$DIMGAP
 40
0.625
  9
$LUNITS
 70
     2
  9
$LUPREC
 70
     4
  9
$SKETCHINC
 40
1.0
  9
$FILLETRAD
 40
0.0
  9
$AUNITS
 70
     0
  9
$AUPREC
 70
     0
  9
$MENU
  1
.
  9
$ELEVATION
 40
0.0
  9
$PELEVATION
 40
0.0
  9
$THICKNESS
 40
0.0
  9
$LIMCHECK
 70
     0
  9
$BLIPMODE
 70
     0
  9
$CHAMFERA
 40
0.0
  9
$CHAMFERB
 40
0.0
  9
$SKPOLY
 70
     0
  9
$TDCREATE
 40
2459073.6031249999068677
  9
$TDUPDATE
 40
2459166.718599536921829
  9
$TDINDWG
 40
0.1045949074
  9
$TDUSRTIMER
 40
0.1045717593
  9
$USRTIMER
 70
     1
  9
$ANGBASE
 50
0.0
  9
$ANGDIR
 70
     0
  9
$PDMODE
 70
     0
  9
$PDSIZE
 40
0.0
  9
$PLINEWID
 40
0.0
  9
$COORDS
 70
     1
  9
$SPLFRAME
 70
     0
  9
$SPLINETYPE
 70
     6
  9
$SPLINESEGS
 70
     8
  9
$ATTDIA
 70
     1
  9
$ATTREQ
 70
     1
  9
$HANDLING
 70
     1
  9
$HANDSEED
  5
9D2
  9
$SURFTAB1
 70
     6
  9
$SURFTAB2
 70
     6
  9
$SURFTYPE
 70
     6
  9
$SURFU
 70
     6
  9
$SURFV
 70
     6
  9
$UCSNAME
  2

  9
$UCSORG
 10
0.0
 20
0.0
 30
0.0
  9
$UCSXDIR
 10
1.0
 20
0.0
 30
0.0
  9
$UCSYDIR
 10
0.0
 20
1.0
 30
0.0
  9
$PUCSNAME
  2

  9
$PUCSORG
 10
0.0
 20
0.0
 30
0.0
  9
$PUCSXDIR
 10
1.0
 20
0.0
 30
0.0
  9
$PUCSYDIR
 10
0.0
 20
1.0
 30
0.0
  9
$USERI1
 70
     0
  9
$USERI2
 70
     0
  9
$USERI3
 70
     0
  9
$USERI4
 70
     0
  9
$USERI5
 70
     0
  9
$USERR1
 40
0.0
  9
$USERR2
 40
0.0
  9
$USERR3
 40
0.0
  9
$USERR4
 40
0.0
  9
$USERR5
 40
0.0
  9
$WORLDVIEW
 70
     1
  9
$SHADEDGE
 70
     3
  9
$SHADEDIF
 70
    70
  9
$TILEMODE
 70
     1
  9
$MAXACTVP
 70
    64
  9
$PLIMCHECK
 70
     0
  9
$PEXTMIN
 10
25.6999999999999886
 20
19.5
 30
0.0
  9
$PEXTMAX
 10
231.3000000000000114
 20
175.5
 30
0.0
  9
$PLIMMIN
 10
-20.0
 20
-7.5
  9
$PLIMMAX
 10
277.0
 20
202.5
  9
$UNITMODE
 70
     0
  9
$VISRETAIN
 70
     1
  9
$PLINEGEN
 70
     0
  9
$PSLTSCALE
 70
     1
  0
ENDSEC
  0
SECTION
  2
TABLES
  0
TABLE
  2
VPORT
 70
     1
  0
VPORT
  2
*ACTIVE
 70
     0
 10
0.0
 20
0.0
 11
1.0
 21
1.0
 12
2547.5973535301682205
 22
128.9663205630558878
 13
0.0
 23
0.0
 14
10.0
 24
10.0
 15
10.0
 25
10.0
 16
-0.0000000000012506
 26
0.0
 36
5666.0878699665354361
 17
790.3638553619382492
 27
698.6760835647576187
 37
0.0
 40
3385.8685776403431191
 41
2.3833746898263022
 42
50.0
 43
0.0
 44
0.0
 50
0.0
 51
0.0
 71
     0
 72
  1000
 73
     1
 74
     3
 75
     0
 76
     0
 77
     0
 78
     0
  0
ENDTAB
  0
TABLE
  2
LTYPE
 70
     1
  0
LTYPE
  2
CONTINUOUS
 70
     0
  3
Solid line
 72
    65
 73
     0
 40
0.0
  0
ENDTAB
  0
TABLE
  2
LAYER
 70
     1
  0
LAYER
  2
0
 70
     0
 62
     7
  6
CONTINUOUS
  0
ENDTAB
  0
TABLE
  2
STYLE
 70
     2
  0
STYLE
  2
STANDARD
 70
     0
 40
0.0
 41
1.0
 50
0.0
 71
     0
 42
2.5
  3
txt
  4

  0
STYLE
  2
ANNOTATIVE
 70
     0
 40
0.0
 41
1.0
 50
0.0
 71
     0
 42
2.5
  3
txt
  4

  0
ENDTAB
  0
TABLE
  2
VIEW
 70
     0
  0
ENDTAB
  0
TABLE
  2
UCS
 70
     0
  0
ENDTAB
  0
TABLE
  2
APPID
 70
     9
  0
APPID
  2
ACAD
 70
     0
  0
APPID
  2
ACADANNOTATIVE
 70
     0
  0
APPID
  2
ACAD_PSEXT
 70
     0
  0
APPID
  2
ACADANNOPO
 70
     0
  0
APPID
  2
ACAD_DSTYLE_DIMJAG
 70
     0
  0
APPID
  2
ACAD_DSTYLE_DIMTALN
 70
     0
  0
APPID
  2
ACAD_MLEADERVER
 70
     0
  0
APPID
  2
ACAD_NAV_VCDISPLAY
 70
     0
  0
APPID
  2
ACAD_EXEMPT_FROM_CAD_STANDARDS
 70
     0
  0
ENDTAB
  0
TABLE
  2
DIMSTYLE
 70
     3
  0
DIMSTYLE
  2
STANDARD
 70
     0
  3

  4

  5

  6

  7

 40
1.0
 41
0.18
 42
0.0625
 43
0.38
 44
0.18
 45
0.0
 46
0.0
 47
0.0
 48
0.0
140
0.18
141
0.09
142
0.0
143
25.3999999999999986
144
1.0
145
0.0
146
1.0
147
0.09
 71
     0
 72
     0
 73
     1
 74
     1
 75
     0
 76
     0
 77
     0
 78
     0
170
     0
171
     2
172
     0
173
     0
174
     0
175
     0
176
     0
177
     0
178
     0
  0
DIMSTYLE
  2
ANNOTATIVE
 70
     0
  3

  4

  5

  6

  7

 40
0.0
 41
2.5
 42
0.625
 43
3.75
 44
1.25
 45
0.0
 46
0.0
 47
0.0
 48
0.0
140
2.5
141
2.5
142
0.0
143
0.03937007874016
144
1.0
145
0.0
146
1.0
147
0.625
 71
     0
 72
     0
 73
     0
 74
     0
 75
     0
 76
     0
 77
     1
 78
     8
170
     0
171
     3
172
     1
173
     0
174
     0
175
     0
176
     0
177
     0
178
     0
  0
DIMSTYLE
  2
ISO-25
 70
     0
  3

  4

  5

  6

  7

 40
1.0
 41
2.5
 42
0.625
 43
3.75
 44
1.25
 45
0.0
 46
0.0
 47
0.0
 48
0.0
140
2.5
141
2.5
142
0.0
143
0.03937007874016
144
1.0
145
0.0
146
1.0
147
0.625
 71
     0
 72
     0
 73
     0
 74
     0
 75
     0
 76
     0
 77
     1
 78
     8
170
     0
171
     3
172
     1
173
     0
174
     0
175
     0
176
     0
177
     0
178
     0
  0
ENDTAB
  0
ENDSEC
  0
SECTION
  2
BLOCKS
  0
BLOCK
  8
0
  2
$MODEL_SPACE
 70
     0
 10
0.0
 20
0.0
 30
0.0
  3
$MODEL_SPACE
  1

  0
ENDBLK
  5
969
  8
0
  0
BLOCK
 67
     1
  8
0
  2
$PAPER_SPACE
 70
     0
 10
0.0
 20
0.0
 30
0.0
  3
$PAPER_SPACE
  1

  0
ENDBLK
  5
965
 67
     1
  8
0
  0
ENDSEC
  0
SECTION
  2
ENTITIES
  0
LINE
  5
288
  8
0
 10
91.0183296005925655
 20
8.7652526155352462
 30
0.0
 11
811.9512298494576044
 21
8.7652526155344663
 31
0.0
  0
ARC
  5
2A3
  8
0
 10
968.1099699908385219
 20
39.388287075320342
 30
0.0
 40
159.1330335350538121
 50
102.0947822343075018
 51
191.0950209906175985
  0
LINE
  5
2A4
  8
0
 10
934.7669021664927413
 20
194.9889367851774011
 30
0.0
 11
834.7610303028334329
 21
385.4108902344943886
 31
0.0
  0
ARC
  5
2A5
  8
0
 10
746.0395168191997755
 20
553.9959491796447537
 30
0.0
 40
190.5057192169475968
 50
218.5083966477455988
 51
297.756553855530683
  0
LINE
  5
2A6
  8
0
 10
596.9655682783430848
 20
435.381502669936026
 30
0.0
 11
91.0183296005925939
 21
435.3815026699343775
 31
0.0
  0
ARC
  5
2AC
  8
0
 10
737.8770254710226482
 20
184.1062595823476045
 30
0.0
 40
693.9491481455391977
 50
158.7711112332299876
 51
183.4708180726100863
  0
LINE
  5
2AD
  8
0
 10
45.2007450534362079
 20
142.0944664906886032
 30
0.0
 11
91.0183296005925655
 21
8.7652526155352462
 31
0.0
  0
LINE
  5
2AE
  8
0
 10
52.4043365035317592
 20
472.0345046659787727
 30
0.0
 11
530.3452524568051558
 21
472.0345046659787727
 31
0.0
  0
ARC
  5
2AF
  8
0
 10
633.244630286528718
 20
469.0686370937708034
 30
0.0
 40
102.9421115394475947
 50
103.9486470498081019
 51
178.3490215027636054
  0
ARC
  5
2B0
  8
0
 10
691.7358879490301433
 20
295.7475252810888264
 30
0.0
 40
285.6452386647462731
 50
63.0672809675398511
 51
106.9561862931381029
  0
LINE
  5
2B1
  8
0
 10
821.1171565986145424
 20
550.41140119297404
 30
0.0
 11
866.9127702154640929
 21
742.9417509007984108
 31
0.0
  0
ARC
  5
2B2
  8
0
 10
876.6833298723380494
 20
823.6970487310610451
 30
0.0
 40
81.3442189935026505
 50
172.9335969517036915
 51
263.1013322066535807
  0
LINE
  5
2B3
  8
0
 10
795.9569816860963556
 20
833.7039799378075031
 30
0.0
 11
795.9569816860963556
 21
896.4799147918347444
 31
0.0
  0
LINE
  5
2B4
  8
0
 10
52.4043365035317592
 20
1320.9253249176899772
 30
0.0
 11
530.3452524568051558
 21
1320.9253249176899772
 31
0.0
  0
ARC
  5
2B5
  8
0
 10
633.244630286528718
 20
1323.8911924898980033
 30
0.0
 40
102.9421115394475947
 50
181.6509784972305965
 51
256.0513529501903918
  0
ARC
  5
2B6
  8
0
 10
691.7358879490301433
 20
1497.2123043025810603
 30
0.0
 40
285.6452386647462731
 50
253.0438137068605045
 51
296.9327190324578964
  0
LINE
  5
2B7
  8
0
 10
821.1171565986145424
 20
1242.5484283906951077
 30
0.0
 11
866.9127702154640929
 21
1050.0180786828709643
 31
0.0
  0
ARC
  5
2B8
  8
0
 10
876.6833298723380494
 20
969.2627808526078752
 30
0.0
 40
81.3442189935026505
 50
96.8986677933469309
 51
187.0664030482938074
  0
LINE
  5
2B9
  8
0
 10
795.9569816860963556
 20
959.2558496458610762
 30
0.0
 11
795.9569816860963556
 21
896.4799147918347444
 31
0.0
  0
LINE
  5
2BA
  8
0
 10
52.4043365035317592
 20
1320.9253249176899772
 30
0.0
 11
52.4043365035316384
 21
472.0345046659787727
 31
0.0
  0
LINE
  5
2BB
  8
0
 10
891.7800047033299506
 20
23.9070793732537901
 30
0.0
 11
1536.784330040147097
 21
23.9070793732537901
 31
0.0
  0
ARC
  5
2BD
  8
0
 10
1663.7995190181750331
 20
235.4242683794934976
 30
0.0
 40
246.7232852331241872
 50
197.617873065301012
 51
239.0153592892314975
  0
LINE
  5
2BE
  8
0
 10
1428.6484689869450904
 20
160.7492180250725937
 30
0.0
 11
892.7231412559369801
 21
141.8256921561091985
 31
0.0
  0
LINE
  5
2BF
  8
0
 10
892.7231412559369801
 20
141.8256921561091985
 30
0.0
 11
891.7800047033299506
 21
23.9070793732537901
 31
0.0
  0
ARC
  5
2C0
  8
0
 10
883.26649640055291
 20
176.9003159108223997
 30
0.0
 40
81.9740741960120261
 50
352.7221570299304858
 51
45.8780194799803596
  0
LINE
  5
2C1
  8
0
 10
964.5801469574524845
 20
166.5157565362659966
 30
0.0
 11
1483.2342707703169253
 21
189.8810180872050921
 31
0.0
  0
LINE
  5
2C2
  8
0
 10
1483.2342707703169253
 20
189.8810180872050921
 30
0.0
 11
1471.1121387907769531
 21
266.8998502115583733
 31
0.0
  0
LINE
  5
2C3
  8
0
 10
1471.1121387907769531
 20
266.8998502115583733
 30
0.0
 11
940.3358829983700389
 21
235.7461649882397978
 31
0.0
  0
LINE
  5
2C4
  8
0
 10
944.7549168899023471
 20
258.3324909298854095
 30
0.0
 11
1460.8114402913809045
 21
295.5438379576989973
 31
0.0
  0
ARC
  5
2C5
  8
0
 10
1498.3627496407279978
 20
426.1203515432741256
 30
0.0
 40
135.8687849876278051
 50
175.2098938955244876
 51
253.955776226417612
  0
LINE
  5
2C6
  8
0
 10
1362.9685143776569021
 20
437.4661785974149097
 30
0.0
 11
910.1202512852723885
 21
316.3129614399103957
 31
0.0
  0
ARC
  5
2C7
  8
0
 10
887.3268644507128329
 20
263.3625659867497006
 30
0.0
 40
57.6479215760288994
 50
354.9942855832525197
 51
66.7097273391206187
  0
LINE
  5
2C8
  8
0
 10
953.3299543069279025
 20
395.9769712742898946
 30
0.0
 11
1433.630179049014032
 21
518.0656145014936556
 31
0.0
  0
LINE
  5
2C9
  8
0
 10
1433.630179049014032
 20
518.0656145014936556
 30
0.0
 11
1433.630179049014032
 21
733.1081192164328968
 31
0.0
  0
LINE
  5
2CA
  8
0
 10
1433.630179049014032
 20
733.1081192164328968
 30
0.0
 11
926.9550785835726856
 21
819.1251173159288328
 31
0.0
  0
ARC
  5
2CB
  8
0
 10
803.6956306588126608
 20
711.6395065429284159
 30
0.0
 40
163.5421903545430098
 50
311.3241009668627726
 51
41.0893186183260823
  0
ARC
  5
2CC
  8
0
 10
1023.0862919992539446
 20
511.9595867322207141
 30
0.0
 40
135.3436874653122004
 50
145.3959443642407905
 51
238.9757053294941045
  0
LINE
  5
2D1
  8
0
 10
91.0183296005926366
 20
1369.7392336450479888
 30
0.0
 11
811.9512298494576044
 21
1369.7392336450470793
 31
0.0
  0
ARC
  5
2D2
  8
0
 10
968.1099699908385219
 20
1400.3622681048329923
 30
0.0
 40
159.1330335350538121
 50
102.0947822343061944
 51
191.0950209906133068
  0
LINE
  5
2D3
  8
0
 10
934.7669021664927413
 20
1555.9629178146899449
 30
0.0
 11
834.7610303028334329
 21
1746.3848712640060512
 31
0.0
  0
ARC
  5
2D4
  8
0
 10
746.0395168191998891
 20
1914.9699302091580648
 30
0.0
 40
190.5057192169475968
 50
218.5083966477442914
 51
297.7565538555332978
  0
LINE
  5
2D5
  8
0
 10
596.9655682783430848
 20
1796.3554836994480866
 30
0.0
 11
91.0183296005926366
 21
1796.3554836994469497
 31
0.0
  0
ARC
  5
2D6
  8
0
 10
737.8770254710229892
 20
1545.0802406118600629
 30
0.0
 40
693.9491481455391977
 50
158.7711112332333983
 51
183.4708180726073863
  0
LINE
  5
2D7
  8
0
 10
45.2007450534362789
 20
1503.0684475202010617
 30
0.0
 11
91.0183296005926366
 21
1369.7392336450479888
 31
0.0
  0
LINE
  5
2D8
  8
0
 10
976.7273317863291595
 20
1307.8302756190760192
 30
0.0
 11
1457.0275565284150616
 21
1185.7416323918719172
 31
0.0
  0
LINE
  5
2D9
  8
0
 10
1457.0275565284150616
 20
1185.7416323918719172
 30
0.0
 11
1457.0275565284150616
 21
970.6991276769331307
 31
0.0
  0
LINE
  5
2DA
  8
0
 10
1457.0275565284150616
 20
970.6991276769331307
 30
0.0
 11
950.3524560629740563
 21
884.6821295774369673
 31
0.0
  0
ARC
  5
2DB
  8
0
 10
840.0420760626276433
 20
993.026293375815726
 30
0.0
 40
154.618361668305397
 50
315.5152092960851178
 51
52.0713711187263328
  0
ARC
  5
2DC
  8
0
 10
1044.6184755516369478
 20
1192.2504463624229629
 30
0.0
 40
134.0444117923557883
 50
120.4298110608296071
 51
215.1985392454353132
  0
LINE
  5
2ED
  8
0
 10
1529.9267912479031111
 20
1204.7426214545450875
 30
0.0
 11
905.5610515486769145
 21
1372.6631727327430781
 31
0.0
  0
LINE
  5
2EE
  8
0
 10
905.5610515486769145
 20
1372.6631727327430781
 30
0.0
 11
981.1863141793725163
 21
1621.905473545436962
 31
0.0
  0
LINE
  5
2EF
  8
0
 10
981.1863141793725163
 20
1621.905473545436962
 30
0.0
 11
1556.3016669712581006
 21
1627.8907674961840257
 31
0.0
  0
ARC
  5
2F0
  8
0
 10
1728.3049469087659418
 20
1523.636985043742925
 30
0.0
 40
201.1317465367012005
 50
148.7793144491496093
 51
218.8072659656536985
  0
ARC
  5
2F1
  8
0
 10
1343.4523233435170368
 20
1345.9303652412170322
 30
0.0
 40
233.8946475996962135
 50
322.8690887592421745
 51
12.7592615470079291
  0
LINE
  5
2F2
  8
0
 10
1580.2392864114549411
 20
212.7034719605759108
 30
0.0
 11
2058.1802023647292117
 21
212.7034719605759108
 31
0.0
  0
ARC
  5
2F3
  8
0
 10
2161.0795801944518644
 20
209.737604388368112
 30
0.0
 40
102.9421115394475947
 50
103.9486470498113988
 51
178.3490215027628096
  0
ARC
  5
2F4
  8
0
 10
2219.5708378569538581
 20
36.4164925756857727
 30
0.0
 40
285.6452386647462731
 50
63.0672809675414285
 51
106.9561862931413998
  0
LINE
  5
2F5
  8
0
 10
2348.952106506536893
 20
291.0803684875709223
 30
0.0
 11
2394.7477201233878077
 21
483.6107181953954068
 31
0.0
  0
ARC
  5
2F6
  8
0
 10
2404.5182797802631285
 20
564.3660160256581548
 30
0.0
 40
81.3442189935026505
 50
172.9335969517024125
 51
263.1013322066531259
  0
LINE
  5
2F7
  8
0
 10
2323.791931594019843
 20
574.3729472324050676
 30
0.0
 11
2323.791931594019843
 21
637.1488820864317404
 31
0.0
  0
LINE
  5
2F8
  8
0
 10
1580.2392864114549411
 20
1061.5942922122860637
 30
0.0
 11
2058.1802023647292117
 21
1061.5942922122860637
 31
0.0
  0
ARC
  5
2F9
  8
0
 10
2161.0795801944518644
 20
1064.5601597844949993
 30
0.0
 40
102.9421115394475947
 50
181.6509784972305965
 51
256.0513529501885159
  0
ARC
  5
2FA
  8
0
 10
2219.5708378569538581
 20
1237.8812715971769194
 30
0.0
 40
285.6452386647462731
 50
253.0438137068574918
 51
296.9327190324571006
  0
LINE
  5
2FB
  8
0
 10
2348.952106506536893
 20
983.2173956852927859
 30
0.0
 11
2394.7477201233878077
 21
790.6870459774679603
 31
0.0
  0
ARC
  5
2FC
  8
0
 10
2404.5182797802631285
 20
709.9317481472055533
 30
0.0
 40
81.3442189935026505
 50
96.8986677933469309
 51
187.0664030482942053
  0
LINE
  5
2FD
  8
0
 10
2323.791931594019843
 20
699.9248169404585269
 30
0.0
 11
2323.791931594019843
 21
637.1488820864317404
 31
0.0
  0
LINE
  5
2FE
  8
0
 10
1580.2392864114549411
 20
1061.5942922122860637
 30
0.0
 11
1580.2392864114549411
 21
212.7034719605759108
 31
0.0
  0
LINE
  5
303
  8
0
 10
1561.1300996272400425
 20
23.9070793732537901
 30
0.0
 11
2411.3586343219249102
 21
23.9070793732537901
 31
0.0
  0
ARC
  5
304
  8
0
 10
2484.0394411378010773
 20
125.8681693381281974
 30
0.0
 40
125.2140708795620014
 50
148.7011510428835095
 51
234.517632302521406
  0
LINE
  5
305
  8
0
 10
2377.0478657961130011
 20
190.9171228434381078
 30
0.0
 11
1562.073236179847072
 21
141.8256921561091985
 31
0.0
  0
LINE
  5
306
  8
0
 10
1562.073236179847072
 20
141.8256921561091985
 30
0.0
 11
1561.1300996272400425
 21
23.9070793732537901
 31
0.0
  0
LINE
  5
310
  8
0
 10
1658.2259783321030682
 20
1084.2580421350619417
 30
0.0
 11
2379.1588785809690307
 21
1084.2580421350598954
 31
0.0
  0
ARC
  5
311
  8
0
 10
2535.3176187223511988
 20
1114.8810765948460357
 30
0.0
 40
159.1330335350538121
 50
102.0947822343076012
 51
191.0950209906137047
  0
LINE
  5
312
  8
0
 10
2501.9745508980049635
 20
1270.4817263047038978
 30
0.0
 11
2401.9686790343448592
 21
1460.9036797540209136
 31
0.0
  0
ARC
  5
313
  8
0
 10
2313.2471655507110881
 20
1629.4887386991720177
 30
0.0
 40
190.5057192169475968
 50
218.5083966477438935
 51
297.7565538555376747
  0
LINE
  5
314
  8
0
 10
2164.173217009857126
 20
1510.874292189462949
 30
0.0
 11
1658.2259783321030682
 21
1510.8742921894599931
 31
0.0
  0
ARC
  5
315
  8
0
 10
2305.0846742025350977
 20
1259.5990491018740158
 30
0.0
 40
693.9491481455391977
 50
158.7711112332347057
 51
183.4708180726073863
  0
LINE
  5
316
  8
0
 10
1612.4083937849479753
 20
1217.5872560102159241
 30
0.0
 11
1658.2259783321030682
 21
1084.2580421350619417
 31
0.0
  0
LINE
  5
32A
  8
0
 10
2466.3838491197820986
 20
59.2157823156255674
 30
0.0
 11
2944.3247650730550049
 21
59.2157823156255674
 31
0.0
  0
ARC
  5
32B
  8
0
 10
3047.2241429027790218
 20
56.2499147434177686
 30
0.0
 40
102.9421115394475947
 50
103.9486470497986943
 51
178.3490215027632075
  0
ARC
  5
32C
  8
0
 10
3105.7154005652801061
 20
-117.0711970692645991
 30
0.0
 40
285.6452386647462731
 50
63.0672809675414285
 51
106.9561862931288942
  0
LINE
  5
32D
  8
0
 10
3235.0966692148640504
 20
137.5926788426203871
 30
0.0
 11
3280.8922828317149651
 21
330.123028550445099
 31
0.0
  0
ARC
  5
32E
  8
0
 10
3290.6628424885889217
 20
410.8783263807072217
 30
0.0
 40
81.3442189935026505
 50
172.9335969517040041
 51
263.1013322066659725
  0
LINE
  5
32F
  8
0
 10
3209.9364943023470005
 20
420.8852575874543049
 30
0.0
 11
3209.9364943023470005
 21
483.6611924414813188
 31
0.0
  0
LINE
  5
330
  8
0
 10
2466.3838491197820986
 20
908.1066025673371769
 30
0.0
 11
2944.3247650730550049
 21
908.1066025673371769
 31
0.0
  0
ARC
  5
331
  8
0
 10
3047.2241429027790218
 20
911.0724701395447482
 30
0.0
 40
102.9421115394475947
 50
181.6509784972301134
 51
256.0513529502013057
  0
ARC
  5
332
  8
0
 10
3105.7154005652801061
 20
1084.3935819522268957
 30
0.0
 40
285.6452386647462731
 50
253.043813706870111
 51
296.9327190324571006
  0
LINE
  5
333
  8
0
 10
3235.0966692148640504
 20
829.7297060403423075
 30
0.0
 11
3280.8922828317149651
 21
637.1993563325175955
 31
0.0
  0
ARC
  5
334
  8
0
 10
3290.6628424885889217
 20
556.4440585022553023
 30
0.0
 40
81.3442189935026505
 50
96.8986677933598628
 51
187.0664030482926137
  0
LINE
  5
335
  8
0
 10
3209.9364943023470005
 20
546.4371272955077075
 30
0.0
 11
3209.9364943023470005
 21
483.6611924414813188
 31
0.0
  0
LINE
  5
336
  8
0
 10
2466.3838491197820986
 20
908.1066025673371769
 30
0.0
 11
2466.3838491197820986
 21
59.2157823156255674
 31
0.0
  0
LINE
  5
337
  8
0
 10
3299.0121064218838001
 20
917.923509380909536
 30
0.0
 11
2821.0711904686099842
 21
917.9235093809159025
 31
0.0
  0
ARC
  5
338
  8
0
 10
2718.1718126388877863
 20
914.9576418087096954
 30
0.0
 40
102.9421115394475947
 50
1.6509784972306261
 51
76.0513529502281216
  0
ARC
  5
339
  8
0
 10
2659.6805549763821546
 20
741.6365299960281163
 30
0.0
 40
285.6452386647462731
 50
73.0438137068978506
 51
116.9327190324352017
  0
LINE
  5
33A
  8
0
 10
2530.2992863268018482
 20
996.300405907915092
 30
0.0
 11
2484.5036727099550262
 21
1188.8307556157399176
 31
0.0
  0
ARC
  5
33B
  8
0
 10
2474.7331130530819792
 20
1269.5860534460030067
 30
0.0
 40
81.3442189935026505
 50
276.8986677933601754
 51
7.0664030482935027
  0
LINE
  5
33C
  8
0
 10
2555.4594612393248099
 20
1279.5929846527481004
 30
0.0
 11
2555.4594612393248099
 21
1342.3689195067759101
 31
0.0
  0
LINE
  5
33D
  8
0
 10
3299.0121064218960782
 20
1766.8143296326209111
 30
0.0
 11
2821.0711904686208982
 21
1766.8143296326279597
 31
0.0
  0
ARC
  5
33E
  8
0
 10
2718.1718126388977907
 20
1769.7801972048368953
 30
0.0
 40
102.9421115394475947
 50
283.9486470497718074
 51
358.3490215027694035
  0
ARC
  5
33F
  8
0
 10
2659.6805549763989802
 20
1943.1013090175199522
 30
0.0
 40
285.6452386647462731
 50
243.0672809675648125
 51
286.956186293102121
  0
LINE
  5
340
  8
0
 10
2530.2992863268109431
 20
1688.4374331056369556
 30
0.0
 11
2484.5036727099591189
 21
1495.9070833978130395
 31
0.0
  0
ARC
  5
341
  8
0
 10
2474.7331130530837981
 20
1415.1517855675499504
 30
0.0
 40
81.3442189935026505
 50
352.9335969517064768
 51
83.1013322066397393
  0
LINE
  5
342
  8
0
 10
2555.4594612393270836
 20
1405.1448543608019008
 30
0.0
 11
2555.4594612393248099
 21
1342.3689195067759101
 31
0.0
  0
LINE
  5
343
  8
0
 10
3299.0121064218960782
 20
1766.8143296326209111
 30
0.0
 11
3299.0121064218838001
 21
917.923509380909536
 31
0.0
  0
LINE
  5
344
  8
0
 10
3383.6022186743389284
 20
59.2157823156255674
 30
0.0
 11
4104.5351189232032993
 21
59.2157823156248782
 31
0.0
  0
ARC
  5
345
  8
0
 10
4260.6938590645850127
 20
89.8388167754105922
 30
0.0
 40
159.1330335350538121
 50
102.0947822343063933
 51
191.0950209906110899
  0
LINE
  5
346
  8
0
 10
4227.3507912402392321
 20
245.439466485267701
 30
0.0
 11
4127.3449193765809468
 21
435.8614199345847169
 31
0.0
  0
ARC
  5
347
  8
0
 10
4038.6234058929471757
 20
604.4464788797351957
 30
0.0
 40
190.5057192169475968
 50
218.5083966477440072
 51
297.7565538555388116
  0
LINE
  5
348
  8
0
 10
3889.5494573520900303
 20
485.8320323700262975
 30
0.0
 11
3383.6022186743389284
 21
485.8320323700247059
 31
0.0
  0
ARC
  5
349
  8
0
 10
4030.4609145447670926
 20
234.5567892824379044
 30
0.0
 40
693.9491481455391977
 50
158.7711112332297887
 51
183.4708180726084095
  0
LINE
  5
34A
  8
0
 10
3337.784634127182926
 20
192.5449961907791021
 30
0.0
 11
3383.6022186743389284
 21
59.2157823156255674
 31
0.0
  0
LINE
  5
34B
  8
0
 10
3383.6022186743412021
 20
502.2817024512568764
 30
0.0
 11
4104.5351189232032993
 21
502.2817024512560806
 31
0.0
  0
ARC
  5
34C
  8
0
 10
4260.6938590645850127
 20
532.9047369110419368
 30
0.0
 40
159.1330335350538121
 50
102.0947822343077007
 51
191.0950209906110899
  0
LINE
  5
34D
  8
0
 10
4227.3507912402392321
 20
688.5053866208991167
 30
0.0
 11
4127.3449193765809468
 21
878.9273400702156778
 31
0.0
  0
ARC
  5
34E
  8
0
 10
4038.6234058929471757
 20
1047.5123990153660998
 30
0.0
 40
190.5057192169475968
 50
218.5083966477440072
 51
297.7565538555360263
  0
LINE
  5
34F
  8
0
 10
3889.5494573520909398
 20
928.8979525056574857
 30
0.0
 11
3383.6022186743412021
 21
928.8979525056561215
 31
0.0
  0
ARC
  5
350
  8
0
 10
4030.4609145447711853
 20
677.6227094180692347
 30
0.0
 40
693.9491481455391977
 50
158.7711112332297887
 51
183.4708180726084095
  0
LINE
  5
351
  8
0
 10
3337.7846341271838355
 20
635.6109163264103472
 30
0.0
 11
3383.6022186743412021
 21
502.2817024512568764
 31
0.0
  0
LINE
  5
352
  8
0
 10
3383.6022186743412021
 20
962.5160971679395061
 30
0.0
 11
4028.6065440111560747
 21
962.5160971679395061
 31
0.0
  0
ARC
  5
353
  8
0
 10
4155.6217329891842382
 20
1174.0332861741790111
 30
0.0
 40
246.7232852331241872
 50
197.6178730653033142
 51
239.0153592892312986
  0
LINE
  5
354
  8
0
 10
3920.4706829579558871
 20
1099.3582358197579651
 30
0.0
 11
3384.5453552269468673
 21
1080.4347099507949679
 31
0.0
  0
LINE
  5
355
  8
0
 10
3384.5453552269468673
 20
1080.4347099507949679
 30
0.0
 11
3383.6022186743412021
 21
962.5160971679395061
 31
0.0
  0
LINE
  5
35A
  8
0
 10
3436.5771308609128027
 20
1196.9415087245708946
 30
0.0
 11
3952.6336542623930654
 21
1234.152855752384994
 31
0.0
  0
ARC
  5
35B
  8
0
 10
3990.1849636117390219
 20
1364.7293693379599517
 30
0.0
 40
135.8687849876278051
 50
175.2098938955215033
 51
253.9557762264080054
  0
LINE
  5
35C
  8
0
 10
3854.7907283486679262
 20
1376.0751963921009065
 30
0.0
 11
3401.9424652562829579
 21
1254.9219792345959377
 31
0.0
  0
ARC
  5
35D
  8
0
 10
3379.1490784217248802
 20
1201.9715837814349015
 30
0.0
 40
57.6479215760288994
 50
354.9942855832543955
 51
66.7097273391240719
  0
LINE
  5
366
  8
0
 10
3994.7962632881881291
 20
1502.584387307525958
 30
0.0
 11
3362.4636220557140405
 21
1465.373040279712086
 31
0.0
  0
ARC
  5
367
  8
0
 10
3316.3217484207548296
 20
1358.161880278928038
 30
0.0
 40
116.7189159102259026
 50
315.2576191146985138
 51
66.7137719749006806
  0
LINE
  5
368
  8
0
 10
3399.2247419245859419
 20
1276.0010684562469123
 30
0.0
 11
4029.430928892817974
 21
1444.603916797500915
 31
0.0
  0
ARC
  5
369
  8
0
 10
4052.2243157273787801
 20
1497.5543122506610416
 30
0.0
 40
57.6479215760288994
 50
174.99428558324351
 51
246.7097273391700867
  0
ARC
  5
374
  8
0
 10
3249.3492081011031587
 20
1466.3147434941420215
 30
0.0
 40
215.947109008751994
 50
15.0092997953041198
 51
69.2979352226968643
  0
LINE
  5
375
  8
0
 10
3457.9290232383850707
 20
1522.2398237939019054
 30
0.0
 11
4123.7723295210580545
 21
1522.2398237939019054
 31
0.0
  0
LINE
  5
376
  8
0
 10
4123.7723295210580545
 20
1522.2398237939019054
 30
0.0
 11
4123.7723295210580545
 21
1621.9442680828060475
 31
0.0
  0
LINE
  5
377
  8
0
 10
4123.7723295210580545
 20
1621.9442680828060475
 30
0.0
 11
3325.6883584116180828
 21
1668.3184266761720664
 31
0.0
  0
VIEWPORT
  5
295
 67
     1
  8
0
 10
128.5
 20
97.5
 30
0.0
 40
448.3484477296727277
 41
222.1800000000000068
 68
     1
 69
     1
1001
ACAD
1000
MVIEW
1002
{
1070
    16
1010
0.0
1020
0.0
1030
0.0
1010
0.0
1020
0.0
1030
1.0
1040
0.0
1040
222.1800000000000068
1040
128.5
1040
97.5
1040
50.0
1040
0.0
1040
0.0
1070
     0
1070
  1000
1070
     1
1070
     1
1070
     0
1070
     0
1070
     0
1070
     0
1040
0.0
1040
0.0
1040
0.0
1040
10.0
1040
10.0
1040
10.0
1040
10.0
1070
     0
1002
{
1002
}
1002
}
  0
VIEWPORT
  5
299
 67
     1
  8
0
 10
128.5
 20
97.5
 30
0.0
 40
205.5999999999999943
 41
156.0
 68
     2
 69
     2
1001
ACAD
1000
MVIEW
1002
{
1070
    16
1010
-760.3754690064529314
1020
415.4407559275949211
1030
7.098547315027484
1010
0.0
1020
-76.3812648374894536
1030
4375.879731848692245
1040
0.0
1040
343.7783167208571058
1040
1076.3937986070450279
1040
-406.7374513959838964
1040
50.0
1040
0.0
1040
0.0
1070
     0
1070
  1000
1070
     1
1070
     3
1070
     0
1070
     0
1070
     0
1070
     0
1040
0.0
1040
0.0
1040
0.0
1040
10.0
1040
10.0
1040
10.0
1040
10.0
1070
     0
1002
{
1002
}
1002
}
  0
ENDSEC
  0
EOF
